<!-- Generated by IcoMoon.io -->
<svg version="1.1" xmlns="http://www.w3.org/2000/svg" id="contact" viewBox="0 0 36 32">
<title>-1-1</title>
<path fill="#263238" d="M15.924 15.401c-0.732 0.049-1.444-0.265-1.708-0.428h-0.122l-0.122 0.672v0.733l0.305 0.795c0 0 0.244 0.306 0.305 0.306s-0.854 1.895-0.854 1.895v3.422l-0.183 1.65 0.244 0.672c-0.224-0.061-0.329-0.073 1.037 0.367s1.993-0.917 2.135-1.65c0.061-0.815 0.183-2.396 0.183-2.2s0.854 0.571 1.281 0.733c1.017 0.326 3.148 0.978 3.539 0.978s0.854-0.163 1.037-0.244c0.61-0.55 0.244-2.078 0.183-2.261-0.049-0.147-0.346-0.387-0.488-0.489-0.197-0.113-0.344-0.18-0.732-0.306l-1.647-0.428-0.122 0.306c-0.006-0.056-0.044-0.097-0.183-0.183l-0.244-0.428-0.244 0.306-0.244 0.122v-0.183l0.122-0.367-0.122-0.183c-0.041-0.020-0.134-0.073-0.183-0.122s-0.102-0.143-0.122-0.183l-0.061-0.55c0.148-0.282 0.456-0.988 0.671-1.467 0.216-0.483 0.244-1.446 0.183-1.895l-0.488-0.672c-2.013 1.406-2.441 1.222-3.356 1.284z"></path>
<path fill="#263238" d="M14.485 17.591c-0.011-0-0.022-0.003-0.032-0.008s-0.019-0.012-0.025-0.021c-0.191-0.269-0.542-1.054-0.578-1.415s0.17-1.222 0.178-1.261c0.005-0.018 0.016-0.033 0.032-0.043s0.035-0.013 0.053-0.008c0.018 0.004 0.034 0.015 0.043 0.031s0.014 0.034 0.010 0.052c0 0.010-0.209 0.878-0.176 1.222s0.375 1.1 0.553 1.345c0.005 0.007 0.009 0.016 0.011 0.025s0.003 0.018 0.001 0.028c-0.001 0.009-0.005 0.018-0.010 0.026s-0.011 0.015-0.019 0.020c-0.013 0.007-0.027 0.010-0.042 0.009z"></path>
<path fill="#fff" d="M15.49 25.582l-0.465-0.033c0.504-0.136 0.816-0.948 1.011-1.507 0.037-0.105 0.072-0.205 0.107-0.297 0.173-0.453 0.189-1.865 0.179-2.408-0.072-0.255-0.266-0.878-0.403-1.079-0.028-0.041-0.048-0.087-0.058-0.136s-0.010-0.099-0-0.148c0.043-0.205 0.253-0.339 0.437-0.455 0.062-0.037 0.122-0.078 0.179-0.122 0.042-0.262 0.345-0.343 0.571-0.403 0.071-0.020 0.138-0.038 0.19-0.057 0.218-0.2 1.175-2.031 1.385-3.015 0.178-0.83-0.122-1.123-0.122-1.126l0.276-0.323c0.051 0.043 0.497 0.452 0.265 1.538-0.181 0.843-1.226 3.154-1.624 3.314-0.084 0.031-0.169 0.058-0.256 0.079-0.091 0.020-0.18 0.050-0.265 0.089-0.027 0.171-0.193 0.276-0.366 0.387-0.086 0.047-0.167 0.103-0.242 0.166 0.2 0.325 0.423 1.11 0.449 1.201l0.007 0.053c0 0.2 0.032 1.973-0.207 2.596-0.033 0.088-0.067 0.183-0.102 0.284-0.218 0.633-0.226 1.209-0.947 1.402z"></path>
<path fill="#fff" d="M23.354 21.343c-0.333-0.164-1.201-0.335-1.721-0.445-0.222-0.046-0.414-0.088-0.558-0.122-0.239-0.057-0.49-0.027-0.709 0.085-0.065 0.029-0.132 0.052-0.2 0.071-0.264 0.066-0.443-0.193-0.572-0.383-0.015-0.021-0.030-0.045-0.048-0.067-0.165 0.097-0.392 0.229-0.61 0.166-0.051-0.015-0.098-0.041-0.138-0.075s-0.073-0.077-0.096-0.124c-0.056-0.12-0.097-0.246-0.122-0.376-0.040-0.17-0.068-0.277-0.153-0.345-0.288-0.23-0.287-0.339-0.293-0.367l0.216-0.353c0.098 0.144 0.212 0.276 0.342 0.394 0.166 0.151 0.273 0.357 0.3 0.579 0.018 0.090 0.045 0.178 0.081 0.263 0.090-0.030 0.176-0.071 0.256-0.122 0.060-0.039 0.125-0.071 0.193-0.093 0.192-0.048 0.309 0.122 0.421 0.285 0.046 0.071 0.098 0.138 0.156 0.2 0.030-0.010 0.067-0.024 0.107-0.042 0.303-0.148 0.649-0.184 0.976-0.103 0.135 0.034 0.323 0.073 0.541 0.122 0.517 0.099 1.022 0.256 1.503 0.469l0.127 0.381z"></path>
<path fill="#263238" d="M25.758 23.643c-0.014 0-0.027-0.004-0.039-0.011-0.788-0.515-2.563-0.66-2.582-0.661-0.010 0-0.020-0.002-0.029-0.005s-0.017-0.009-0.024-0.017c-0.007-0.007-0.012-0.016-0.015-0.025s-0.005-0.019-0.004-0.029c0.001-0.010 0.003-0.020 0.008-0.028s0.011-0.016 0.019-0.022c0.008-0.006 0.017-0.010 0.027-0.013s0.020-0.003 0.029-0.001c0.075 0 1.83 0.149 2.648 0.683 0.008 0.005 0.015 0.012 0.020 0.019s0.009 0.016 0.011 0.025 0.002 0.019 0 0.028c-0.002 0.009-0.005 0.018-0.011 0.026-0.006 0.010-0.015 0.018-0.025 0.023s-0.022 0.009-0.033 0.009z"></path>
<path fill="#263238" d="M25.123 22.252c-0.055-0.001-0.11-0.010-0.162-0.027-0.253-0.072-1.586-0.79-1.64-0.82-0.017-0.009-0.029-0.024-0.034-0.042s-0.004-0.037 0.005-0.054c0.009-0.017 0.024-0.029 0.042-0.034s0.037-0.004 0.054 0.005c0.475 0.257 1.421 0.754 1.611 0.809 0.051 0.021 0.106 0.026 0.16 0.016 0.004-0.016 0.014-0.031 0.029-0.040s0.031-0.014 0.048-0.012c0.017 0.002 0.033 0.010 0.044 0.022s0.018 0.029 0.019 0.046c-0.001 0.019-0.006 0.037-0.014 0.054s-0.021 0.031-0.037 0.042c-0.036 0.025-0.079 0.037-0.123 0.035z"></path>
<path fill="#263238" d="M25.869 21.307c0 0-0.671 0.655-0.671 0.726s0.477 0.495 0.513 0.637c0.035 0.142 0.354-0.035 0.442 0s0.071 0.284-0.177 0.336c-0.248 0.053-0.229 0.691-0.141 0.779s0.854 0.478 1.273 0.92c0.419 0.443 0.654 0.885 0.83 0.956s0.354 0.122 0.406-0.23c0.052-0.352 0.106-1.115-0.353-1.664s-0.654-0.603-0.796-0.603c-0.142 0-0.366 0.018-0.282-0.176s0.282-0.367 0.211-0.532c-0.071-0.165-0.624-1.203-1.254-1.15z"></path>
<path fill="#263238" d="M28.319 25.92c-0.052 0.003-0.103-0.009-0.148-0.034s-0.083-0.061-0.109-0.106c-0.004-0.008-0.007-0.017-0.007-0.027s0.001-0.018 0.003-0.027c0.003-0.009 0.008-0.017 0.014-0.024s0.013-0.013 0.022-0.017c0.016-0.008 0.035-0.010 0.053-0.004s0.032 0.018 0.041 0.034c0.006 0.010 0.054 0.089 0.203 0.053 0.204-0.051 0.366-0.11 0.408-0.352 0.057-0.528-0.051-1.061-0.309-1.525-0.157-0.237-0.345-0.451-0.559-0.638-0.191-0.18-0.342-0.322-0.353-0.473 0-0.055 0-0.11-0.006-0.167 0.010-0.219-0.031-0.438-0.122-0.638-0.16-0.319-0.539-0.733-0.899-0.886-0.331-0.136-0.481-0.076-0.61 0.244-0.007 0.017-0.021 0.031-0.038 0.038s-0.037 0.007-0.054-0c-0.017-0.007-0.031-0.021-0.038-0.039s-0.007-0.037 0-0.054c0.165-0.394 0.397-0.489 0.799-0.321s0.803 0.611 0.976 0.955c0.102 0.218 0.151 0.457 0.142 0.697 0 0.055 0.002 0.109 0.007 0.161 0.006 0.095 0.146 0.227 0.308 0.379 0.224 0.195 0.42 0.42 0.583 0.669 0.277 0.494 0.392 1.062 0.327 1.625-0.061 0.324-0.287 0.407-0.513 0.463-0.039 0.011-0.079 0.016-0.12 0.015z"></path>
<path fill="#263238" d="M15.741 14.831c-0.348 0-0.976-0.045-1.304-0.351-0.131-0.121-0.246-0.259-0.342-0.411-0.063-0.105-0.14-0.2-0.228-0.285-0.079-0.068-0.135-0.157-0.163-0.258s-0.025-0.206 0.008-0.305c0.007-0.017 0.021-0.031 0.038-0.038s0.036-0.008 0.054-0.001c0.009 0.003 0.017 0.008 0.024 0.015s0.012 0.014 0.016 0.023c0.004 0.009 0.006 0.018 0.006 0.027s-0.002 0.019-0.005 0.027c-0.022 0.072-0.022 0.149-0 0.221s0.064 0.136 0.122 0.184c0.094 0.093 0.176 0.197 0.244 0.31 0.089 0.142 0.197 0.271 0.32 0.385 0.339 0.315 1.098 0.319 1.315 0.312 0.019 0 0.037 0.007 0.050 0.021s0.021 0.031 0.021 0.050-0.007 0.037-0.021 0.050c-0.013 0.013-0.031 0.021-0.050 0.021l-0.104 0.001z"></path>
<path fill="#263238" d="M16.261 15.462c-0.588 0.007-1.173-0.085-1.73-0.271-0.748-0.293-0.732-0.611-0.702-0.698 0.009-0.032 0.020-0.063 0.033-0.094 0.029-0.073 0.040-0.1 0-0.166-0.1-0.152-0.018-0.48-0.009-0.517 0.005-0.018 0.016-0.034 0.032-0.043s0.035-0.013 0.053-0.008c0.018 0.005 0.034 0.017 0.043 0.033s0.012 0.036 0.008 0.054c-0.033 0.122-0.057 0.332-0.010 0.403 0.031 0.042 0.050 0.093 0.053 0.146s-0.009 0.105-0.035 0.151c-0.012 0.026-0.021 0.052-0.028 0.079-0.033 0.122 0.109 0.329 0.61 0.528 0.61 0.245 2.167 0.447 3.088 0 1.495-0.721 1.601-0.988 1.597-1.052s-0.010-0.122-0.017-0.196c-0.037-0.196-0.030-0.397 0.022-0.589 0.083-0.215 0.166-0.429 0.081-0.697-0.057-0.245-0.086-0.495-0.087-0.747-0.009-0.166-0.016-0.324-0.033-0.444-0.021-0.216-0.089-0.425-0.199-0.611-0.007-0.006-0.013-0.013-0.018-0.021s-0.007-0.017-0.008-0.026c-0.001-0.009 0-0.019 0.003-0.027s0.007-0.017 0.013-0.024c0.012-0.014 0.029-0.023 0.048-0.025s0.037 0.004 0.052 0.015c0.102 0.087 0.207 0.427 0.244 0.705 0.020 0.122 0.027 0.287 0.035 0.457 0 0.239 0.027 0.478 0.081 0.711 0.1 0.315 0 0.563-0.081 0.782-0.045 0.174-0.050 0.355-0.017 0.532 0.007 0.071 0.015 0.139 0.018 0.203 0.007 0.159-0.157 0.455-1.678 1.187-0.407 0.196-0.941 0.27-1.465 0.27z"></path>
<path fill="#263238" d="M22.619 15.584c-0.317-0.008-0.632-0.049-0.941-0.122-0.284-0.066-0.34-0.439-0.382-0.711-0.007-0.095-0.030-0.188-0.067-0.275-0.168-0.112-0.195-0.211-0.195-0.471-0.014-0.133-0.073-0.258-0.166-0.354-0.060-0.076-0.112-0.158-0.156-0.244-0.099-0.198-0.442-1.166-0.359-1.445 0.059-0.194-0.178-0.634-0.569-0.786-0.425-0.166-1.273-0.692-1.308-0.714-0.008-0.005-0.015-0.011-0.020-0.019s-0.009-0.016-0.012-0.025c-0.002-0.009-0.003-0.018-0.001-0.028s0.005-0.018 0.010-0.026c0.010-0.016 0.026-0.027 0.044-0.031s0.037-0.001 0.053 0.008c0.009 0 0.873 0.541 1.285 0.703 0.445 0.174 0.732 0.681 0.653 0.958-0.060 0.203 0.226 1.093 0.349 1.345 0.043 0.078 0.094 0.152 0.15 0.221 0.112 0.121 0.18 0.276 0.194 0.44 0 0.244 0.023 0.28 0.133 0.353 0.078 0.053 0.099 0.186 0.122 0.367 0.038 0.245 0.084 0.55 0.273 0.594 0.654 0.15 1.393 0.189 1.472-0.077 0.066-0.224 0.038-0.578 0.012-0.891-0.024-0.194-0.029-0.39-0.015-0.585 0.031-0.216-0.366-1.721-0.61-2.619-0.116-0.438-0.207-0.782-0.237-0.919-0.085-0.403-2.553-2.193-3.185-2.445-0.544-0.221-1.357-0.512-2.138-0.489-0.010 0.001-0.021-0.001-0.030-0.005s-0.018-0.010-0.025-0.018c-0.116-0.137-0.247-0.262-0.388-0.373l-0.043 0.046c-0.168 0.182-0.563 0.611-1.127 0.538-0.311-0.033-0.615-0.112-0.903-0.232 0.002 0.065-0.021 0.128-0.063 0.177l-0.011 0.009c-0.012 0.009-0.301 0.189-1.098 0.122-0.769-0.070-1.191-0.108-1.928-0.846-0.206-0.207-0.445-0.458-0.7-0.726-0.588-0.632-1.259-1.337-1.516-1.466-0.293-0.147-0.82-0.205-1.010-0.222-0.021 0.224-0.129 0.876-0.681 1.1 0 0.088 0.039 0.347 0.377 0.791l0.187 0.244c0.57 0.755 1.906 2.524 2.329 2.706 0.137 0.059 0.366 0.141 0.627 0.235 0.714 0.257 1.603 0.576 1.868 0.842 0.225 0.224 0.417 1.078 0.588 1.833 0.1 0.44 0.204 0.896 0.265 0.969 0.125 0.119 0.271 0.215 0.43 0.282 0.106 0.040 0.202 0.103 0.282 0.185 0.010 0.016 0.014 0.035 0.010 0.053s-0.015 0.034-0.031 0.045c-0.016 0.010-0.035 0.014-0.053 0.010s-0.034-0.014-0.045-0.029c-0.069-0.055-0.146-0.102-0.227-0.137-0.177-0.076-0.338-0.183-0.475-0.318-0.079-0.094-0.159-0.435-0.294-1.028-0.146-0.667-0.355-1.572-0.55-1.769-0.244-0.244-1.152-0.571-1.816-0.809-0.265-0.095-0.488-0.177-0.636-0.244-0.458-0.197-1.761-1.921-2.386-2.75l-0.187-0.244c-0.466-0.611-0.409-0.913-0.4-0.945 0.002-0.012 0.008-0.022 0.016-0.031s0.018-0.015 0.029-0.019c0.61-0.205 0.634-1.048 0.636-1.056s0.002-0.019 0.006-0.027 0.010-0.016 0.016-0.023c0.007-0.006 0.015-0.011 0.024-0.014s0.018-0.005 0.028-0.004c0.030 0 0.749 0.050 1.135 0.244 0.277 0.144 0.929 0.827 1.558 1.489 0.254 0.266 0.488 0.518 0.698 0.724 0.7 0.702 1.081 0.733 1.84 0.806 0.669 0.061 0.949-0.066 0.997-0.092 0.015-0.033 0.021-0.070 0.018-0.106 0-0.040 0-0.133 0.087-0.133 0.030 0.004 0.060 0.013 0.087 0.028 0.282 0.122 0.581 0.2 0.887 0.232 0.488 0.062 0.854-0.328 1.007-0.489 0.027-0.034 0.059-0.064 0.095-0.089 0.041-0.020 0.122-0.057 0.522 0.394 0.796-0.015 1.614 0.277 2.163 0.501 0.636 0.26 3.164 2.053 3.269 2.552 0.028 0.133 0.122 0.477 0.235 0.912 0.355 1.33 0.646 2.445 0.61 2.676-0.012 0.185-0.007 0.371 0.016 0.555 0.026 0.325 0.055 0.693-0.018 0.941-0.063 0.225-0.362 0.293-0.693 0.293z"></path>
<path fill="#263238" d="M15.386 8.076c-0.218 0.001-0.434-0.034-0.641-0.104-0.705-0.244-0.698-0.483-0.689-0.528 0.003-0.019 0.013-0.035 0.028-0.046s0.034-0.016 0.053-0.013 0.035 0.013 0.046 0.028c0.011 0.015 0.016 0.034 0.013 0.053 0 0.012 0.028 0.176 0.595 0.367 0.384 0.123 0.797 0.126 1.183 0.008s0.727-0.352 0.977-0.669c0.006-0.007 0.013-0.013 0.021-0.018s0.017-0.007 0.026-0.008c0.009-0.001 0.019-0 0.027 0.002s0.017 0.007 0.024 0.013c0.015 0.012 0.024 0.029 0.026 0.048s-0.003 0.038-0.015 0.052c-0.2 0.253-0.455 0.458-0.745 0.599s-0.608 0.215-0.931 0.216z"></path>
<path fill="#e8e8e8" d="M9.209 2.478l-8.739-1.534 8.079 0.284 0.66 1.25z"></path>
<path fill="#d9d9d9" d="M7.771 1.199v-0.397l-7.301 0.142 7.301 0.255z"></path>
<path fill="#e8e8e8" d="M8.244 0.793l-1.508-0.793-6.266 0.944 7.774-0.15z"></path>
<path fill="#263238" d="M7.419 5.415c-0.010 0-0.020-0.002-0.030-0.006s-0.018-0.011-0.024-0.019c-0.011-0.012-1.084-1.26-1.403-1.512-0.066-0.051-0.134-0.108-0.205-0.165-0.285-0.256-0.603-0.472-0.946-0.643-0.439-0.186-1.001-1.090-1.024-1.129-0.005-0.008-0.008-0.017-0.009-0.026s-0.001-0.019 0.001-0.028c0.002-0.009 0.006-0.018 0.012-0.025s0.013-0.014 0.021-0.019c0.008-0.005 0.017-0.008 0.026-0.009s0.019-0.001 0.028 0.001c0.009 0.002 0.018 0.006 0.025 0.012s0.014 0.013 0.019 0.021c0 0.009 0.561 0.903 0.96 1.073 0.349 0.148 0.683 0.422 0.976 0.663l0.203 0.164c0.332 0.26 1.379 1.479 1.424 1.532 0.006 0.007 0.011 0.015 0.014 0.024s0.004 0.018 0.003 0.027c-0.001 0.009-0.003 0.018-0.007 0.026s-0.010 0.016-0.017 0.022c-0.013 0.011-0.029 0.017-0.046 0.017z"></path>
<path fill="#9e9e9e" d="M5.278 1.777l-4.62-0.834 4.788 1.442-0.168-0.609z"></path>
<path fill="#9e9e9e" d="M6.15 2.597l1.717 0.517 0.122-0.849-2.040-0.367c0 0 0.045 0.265 0.071 0.367 0.036 0.114 0.079 0.225 0.131 0.332z"></path>
<path fill="#263238" d="M14.765 7.345h-0.020c-0.009-0.003-0.017-0.007-0.025-0.013s-0.013-0.013-0.018-0.021c-0.005-0.008-0.007-0.017-0.008-0.026s-0-0.019 0.002-0.028c0 0 0.133-0.471 0-0.795-0.005-0.009-0.007-0.018-0.008-0.028s0.001-0.020 0.004-0.029c0.003-0.009 0.009-0.018 0.016-0.025s0.015-0.013 0.025-0.016c0.009-0.004 0.019-0.005 0.029-0.005s0.020 0.003 0.028 0.007c0.009 0.004 0.017 0.011 0.023 0.018s0.011 0.017 0.014 0.026c0.15 0.367 0.009 0.865 0 0.886-0.004 0.013-0.013 0.025-0.024 0.034s-0.024 0.014-0.038 0.015z"></path>
<path fill="#263238" d="M16.341 7.098c-0.011 0-0.022-0.003-0.032-0.008s-0.019-0.013-0.025-0.022c-0.193-0.266-0.515-0.733-0.503-0.864 0.002-0.018 0.011-0.035 0.026-0.047s0.033-0.018 0.051-0.016c0.019 0.002 0.036 0.011 0.048 0.026s0.018 0.033 0.017 0.051c0 0.075 0.244 0.457 0.476 0.768 0.005 0.008 0.009 0.016 0.012 0.025s0.003 0.018 0.001 0.028c-0.001 0.009-0.005 0.018-0.010 0.026s-0.011 0.015-0.019 0.020c-0.012 0.009-0.027 0.013-0.042 0.013z"></path>
<path fill="#263238" d="M24.237 18.108c-0.017-0-0.034-0.002-0.050-0.006-0.195-0.043-0.959-0.826-1.098-1.017-0.108-0.136-0.245-0.246-0.402-0.32-0.078 0.108-0.126 0.234-0.141 0.367-0.015 0.181-0.043 0.358-0.148 0.43-0.025 0.017-0.054 0.027-0.084 0.031s-0.060 0-0.088-0.010c-0.217-0.066-0.184-0.268-0.138-0.546l0.016-0.099c0.048-0.218 0.131-0.427 0.244-0.62 0.020-0.037 0.040-0.077 0.051-0.101-0.056-0.094-0.286-0.473-0.443-0.733-0.010-0.016-0.013-0.035-0.008-0.054s0.016-0.034 0.031-0.044c0.008-0.005 0.017-0.008 0.026-0.010s0.019-0.001 0.028 0.001c0.009 0.002 0.018 0.006 0.025 0.011s0.014 0.012 0.019 0.020c0.075 0.122 0.443 0.725 0.46 0.76s0 0.084-0.065 0.21c-0.106 0.179-0.182 0.374-0.228 0.577l-0.017 0.099c-0.048 0.291-0.050 0.361 0.039 0.387 0.034 0.011 0.046 0 0.052 0 0.063-0.043 0.081-0.254 0.087-0.324 0.013-0.183 0.089-0.356 0.216-0.489 0.013-0.009 0.027-0.015 0.042-0.017s0.031-0.002 0.046 0.003c0.192 0.084 0.359 0.214 0.488 0.379 0.188 0.244 0.901 0.939 1.019 0.964 0.013 0 0.037 0.006 0.043-0.006s0-0.11-0.105-0.209c-0.14-0.122-0.603-0.733-0.563-0.874 0.004-0.015 0.013-0.029 0.024-0.040s0.026-0.018 0.042-0.021c0.066-0.013 0.132 0.034 0.509 0.367 0.194 0.172 0.488 0.431 0.561 0.446 0.028 0.006 0.057 0.010 0.085 0.012-0.015-0.027-0.033-0.053-0.051-0.078-0.059-0.082-0.174-0.209-0.287-0.332-0.137-0.139-0.262-0.289-0.372-0.45-0.009-0.017-0.011-0.036-0.005-0.054s0.018-0.033 0.034-0.042c0.017-0.009 0.036-0.011 0.054-0.006s0.033 0.017 0.043 0.034c0.105 0.15 0.222 0.291 0.35 0.422 0.122 0.132 0.234 0.257 0.298 0.345s0.122 0.18 0.072 0.244c-0.050 0.065-0.149 0.059-0.244 0.038s-0.306-0.194-0.627-0.478c-0.085-0.076-0.188-0.167-0.271-0.236 0.126 0.214 0.276 0.413 0.447 0.593 0.135 0.122 0.19 0.274 0.137 0.378-0.013 0.030-0.034 0.055-0.061 0.072s-0.059 0.026-0.091 0.025z"></path>
<path fill="#263238" d="M24.953 17.517c-0.1-0.005-0.197-0.033-0.286-0.081-0.014-0.010-0.023-0.025-0.027-0.042s-0.001-0.035 0.008-0.050c0.009-0.015 0.022-0.026 0.039-0.032s0.034-0.005 0.050 0.002c0.074 0.043 0.159 0.064 0.244 0.060l0.006-0.007c0 0 0-0.042-0.135-0.165-0.219-0.231-0.423-0.476-0.61-0.733-0.010-0.014-0.015-0.031-0.015-0.048s0.005-0.034 0.015-0.048c0.084-0.103 0.804 0.235 0.811 0.244 0.005 0.001 0.010 0.001 0.015 0 0 0 0-0.057-0.090-0.133-0.112-0.092-0.741-0.323-1.683-0.619l-0.017-0.006c-0.2-0.062-0.284-0.347-0.293-0.379-0.003-0.017 0.001-0.035 0.010-0.049s0.024-0.025 0.040-0.030c0.017-0.005 0.035-0.003 0.050 0.005s0.028 0.021 0.034 0.037c0.020 0.066 0.091 0.245 0.199 0.282h0.017c0.698 0.22 1.566 0.51 1.73 0.644s0.161 0.254 0.122 0.323c-0.021 0.030-0.052 0.052-0.088 0.060s-0.073 0.002-0.105-0.016c-0.073-0.037-0.344-0.144-0.525-0.207 0.15 0.2 0.313 0.39 0.488 0.568 0.128 0.122 0.182 0.204 0.179 0.277-0.002 0.022-0.008 0.044-0.019 0.064s-0.026 0.037-0.044 0.050c-0.036 0.025-0.079 0.035-0.122 0.029z"></path>
<path fill="#263238" d="M13.757 1.2c0 0-0.874 0.225-0.991 0.704s0 0.978 0.377 0.928c0.377-0.050 0.871-0.378 1.201-0.354s0.26 0.148 0.142 0.357c-0.118 0.209 0.094 0.563 0.683 0.398s0.61-0.472 1.036-0.354c0.426 0.117 0.038 1.085 0.137 1.222s0.122 0.33 0.344 0c0.222-0.33 0.556-0.779 0.909-0.66s-0.329 0.802-0.682 0.944l-0.354 0.142c0 0-0.141 0.99-0.354 1.132 0 0 1.414-0.188 1.952-0.684s0.071-0.489 0.165-0.754c0.094-0.265 0.636-0.279 0.636-0.6s-0.071-0.274-0.565-0.51c-0.494-0.236-0.354-0.353-0.283-0.472s0.142-0.33-0.259-0.449-1.342-0.401-1.169-0.66c0.173-0.259 0.264-0.779-0.344-0.733s-1.188 0.441-1.534 0.398c-0.345-0.043-0.664-0.134-1.047 0.006z"></path>
<path fill="#263238" d="M14.91 6.536h-0.017l-0.159-0.035c-0.411-0.090-1.267-0.277-1.723-0.601-0.558-0.396-0.456-1.381-0.356-1.695s0.326-1.376 0.328-1.392c0.002-0.009 0.006-0.018 0.011-0.026s0.012-0.014 0.021-0.019c0.008-0.005 0.017-0.009 0.026-0.010s0.019-0.001 0.028 0.002c0.014 0.001 0.028 0.001 0.043 0 0.007-0.004 0.015-0.006 0.023-0.007 0.185-0.036 0.366-0.094 0.537-0.174 0.244-0.1 0.481-0.196 0.677-0.181 0.109 0.009 0.244 0.028 0.288 0.122s-0.011 0.204-0.089 0.342c-0.018 0.034-0.025 0.072-0.021 0.11s0.019 0.074 0.044 0.103c0.098 0.122 0.315 0.158 0.578 0.083 0.179-0.050 0.348-0.13 0.5-0.236 0.168-0.109 0.3-0.194 0.575-0.122 0.339 0.095 0.261 0.581 0.205 0.936-0.025 0.105-0.035 0.213-0.029 0.32 0.018 0.026 0.034 0.054 0.050 0.081 0.012 0.026 0.029 0.051 0.049 0.072 0.048-0.045 0.089-0.097 0.122-0.154 0.199-0.29 0.569-0.829 0.991-0.687 0.041 0.011 0.078 0.035 0.104 0.068s0.041 0.075 0.042 0.118c0.009 0.28-0.516 0.766-0.826 0.89l-0.32 0.128c-0.043 0.171-0.226 0.887-0.351 1.115l-0.024 0.046c-0.078 0.154-0.244 0.477-0.558 0.643-0.017 0.009-0.036 0.010-0.054 0.005s-0.033-0.018-0.042-0.034c-0.009-0.017-0.010-0.036-0.005-0.054s0.018-0.033 0.034-0.042c0.276-0.145 0.426-0.44 0.498-0.582l0.027-0.050c0.129-0.237 0.344-1.1 0.347-1.115 0.003-0.011 0.008-0.021 0.015-0.030s0.016-0.015 0.027-0.019l0.354-0.142c0.272-0.109 0.743-0.563 0.732-0.755 0-0.018 0-0.040-0.050-0.056-0.282-0.094-0.565 0.244-0.829 0.634-0.108 0.158-0.184 0.216-0.257 0.214s-0.122-0.077-0.16-0.143c-0.013-0.023-0.027-0.048-0.043-0.071-0.049-0.068-0.032-0.192 0-0.423 0.049-0.302 0.115-0.715-0.103-0.776s-0.3 0-0.46 0.1c-0.158 0.116-0.335 0.206-0.522 0.264-0.463 0.13-0.664-0.049-0.732-0.132-0.041-0.051-0.067-0.113-0.073-0.178s0.007-0.131 0.038-0.189c0.043-0.077 0.101-0.181 0.087-0.208 0 0-0.022-0.033-0.172-0.044s-0.393 0.081-0.61 0.171c-0.179 0.081-0.367 0.141-0.559 0.181-0.019 0.007-0.039 0.010-0.059 0.010-0.052 0.244-0.233 1.068-0.318 1.335s-0.183 1.191 0.304 1.538c0.432 0.307 1.269 0.489 1.671 0.578l0.162 0.035c0.009 0.002 0.018 0.006 0.025 0.012s0.014 0.012 0.019 0.020c0.005 0.008 0.008 0.017 0.010 0.026s0.001 0.019-0.001 0.028c-0.004 0.015-0.013 0.029-0.025 0.038s-0.028 0.015-0.043 0.014z"></path>
<path fill="#263238" d="M12.833 3.873c-0.012 0-0.023-0.003-0.033-0.009-0.161-0.094-0.302-0.219-0.414-0.369s-0.192-0.32-0.237-0.502c-0.037-0.106-0.037-0.221 0-0.326 0.019-0.027 0.045-0.049 0.075-0.062s0.064-0.018 0.097-0.013c0.122 0.011 0.281 0.122 0.393 0.385 0.063 0.165 0.145 0.322 0.244 0.468 0.011 0.015 0.017 0.034 0.014 0.052s-0.012 0.036-0.027 0.047c-0.015 0.011-0.034 0.017-0.052 0.014s-0.036-0.012-0.047-0.027c-0.109-0.155-0.198-0.322-0.267-0.499-0.095-0.226-0.218-0.296-0.277-0.301-0.028 0-0.038 0.010-0.040 0.013-0.040 0.089 0.102 0.733 0.6 0.994 0.014 0.007 0.025 0.019 0.031 0.034s0.008 0.030 0.004 0.046c-0.004 0.015-0.012 0.029-0.025 0.039s-0.027 0.015-0.043 0.015h0.004z"></path>
<path fill="#263238" d="M15.714 3.678h-0.037c-0.030-0.005-0.059-0.020-0.080-0.042s-0.036-0.050-0.042-0.080c-0.020-0.083-0.195-0.202-0.315-0.259-0.009-0.004-0.016-0.010-0.022-0.017s-0.011-0.015-0.014-0.024c-0.003-0.009-0.004-0.018-0.004-0.028s0.003-0.019 0.007-0.027c0.004-0.008 0.009-0.016 0.016-0.022s0.015-0.011 0.024-0.014c0.009-0.003 0.018-0.004 0.027-0.004s0.018 0.003 0.027 0.007c0.059 0.028 0.35 0.178 0.392 0.356 0 0.011 0 0.011 0.010 0.012 0.015 0.001 0.031-0.003 0.044-0.010s0.026-0.017 0.035-0.030c0.008-0.012 0.012-0.025 0.012-0.039s-0.004-0.028-0.012-0.039c-0.093-0.172-0.156-0.269-0.234-0.29-0.010-0.002-0.019-0.005-0.027-0.011s-0.015-0.012-0.020-0.021-0.009-0.017-0.010-0.027c-0.002-0.010-0.001-0.019 0.001-0.029s0.007-0.018 0.013-0.026c0.006-0.008 0.013-0.014 0.022-0.019s0.018-0.007 0.028-0.008c0.010-0.001 0.020 0 0.029 0.003 0.141 0.037 0.227 0.178 0.323 0.361 0.020 0.036 0.030 0.076 0.027 0.117s-0.018 0.080-0.043 0.112c-0.021 0.028-0.047 0.051-0.078 0.068s-0.065 0.026-0.099 0.028z"></path>
<path fill="#263238" d="M13.179 3.185c-0.008 0.001-0.015 0.001-0.023 0-0.037-0.008-0.070-0.025-0.098-0.050s-0.049-0.057-0.060-0.092c-0.006-0.036-0.003-0.072 0.007-0.107s0.028-0.067 0.052-0.094c0.013-0.013 0.031-0.020 0.050-0.020s0.037 0.007 0.050 0.020c0.013 0.013 0.020 0.031 0.020 0.050s-0.007 0.036-0.020 0.050c-0.012 0.015-0.033 0.050-0.027 0.070s0.018 0.024 0.041 0.035c0.13-0.059 0.27-0.094 0.412-0.103 0.021-0.001 0.041-0.008 0.058-0.021s0.029-0.030 0.035-0.050c0.018-0.042 0.022-0.089 0.010-0.133-0.016 0.002-0.032-0.001-0.046-0.009s-0.025-0.021-0.030-0.036c-0.006-0.017-0.006-0.036 0.001-0.052s0.020-0.030 0.037-0.037c0.022-0.009 0.047-0.012 0.070-0.007s0.045 0.016 0.063 0.033c0.030 0.041 0.049 0.089 0.054 0.139s-0.003 0.102-0.024 0.148c-0.016 0.047-0.045 0.088-0.084 0.118s-0.087 0.047-0.136 0.049c-0.133 0.008-0.262 0.042-0.382 0.1-0.009 0.002-0.019 0.002-0.028 0z"></path>
<path fill="#263238" d="M13.355 3.607c-0.071-0.030-0.145-0.054-0.22-0.072-0.033-0.009-0.066-0.016-0.099-0.021-0.038-0.007-0.078-0.011-0.131-0.026 0.028-0.044 0.069-0.077 0.117-0.096s0.101-0.022 0.151-0.009c0.051 0.011 0.097 0.039 0.13 0.080s0.051 0.091 0.052 0.144z"></path>
<path fill="#263238" d="M14.643 3.803c0.044-0.060 0.107-0.103 0.178-0.122 0.072-0.021 0.148-0.023 0.221-0.007 0.072 0.017 0.139 0.051 0.195 0.099 0.056 0.047 0.099 0.108 0.122 0.177-0.070-0.024-0.122-0.053-0.183-0.073-0.054-0.022-0.109-0.038-0.166-0.050-0.056-0.014-0.113-0.022-0.171-0.024-0.066 0-0.128 0-0.197 0.001z"></path>
<path fill="#263238" d="M13.768 4.645h-0.013c-0.125-0.025-0.248-0.062-0.366-0.11-0.022-0.009-0.041-0.024-0.057-0.042s-0.027-0.039-0.033-0.062c-0.011-0.086 0.011-0.174 0.061-0.244l0.349-0.688 0.012-0.017c0.023-0.027 0.052-0.049 0.085-0.062s0.069-0.020 0.104-0.017c0.038 0.008 0.073 0.023 0.105 0.046s0.058 0.051 0.077 0.085c0.008 0.014 0.011 0.030 0.008 0.046 0 0-0.079 0.521-0.088 0.733 0.004 0.072-0.016 0.143-0.057 0.203s-0.099 0.105-0.167 0.129h-0.021zM13.825 3.569l-0.348 0.686c-0.030 0.039-0.046 0.087-0.046 0.137 0 0 0 0.009 0.013 0.013 0.102 0.042 0.209 0.074 0.317 0.095 0.034-0.019 0.062-0.048 0.081-0.082s0.027-0.074 0.024-0.113c0.009-0.196 0.068-0.611 0.085-0.722-0.016-0.021-0.038-0.037-0.063-0.044-0.012 0.001-0.024 0.004-0.035 0.009s-0.021 0.013-0.028 0.023v-0.001z"></path>
<path fill="#263238" d="M12.906 3.799c0.028-0.009 0.057-0.012 0.085-0.009s0.057 0.012 0.082 0.026c0.078 0.043 0.14 0.109 0.177 0.19s0.048 0.171 0.031 0.258c-0.039 0.1-0.166-0.013-0.349-0.086-0.060-0.023-0.066 0-0.122-0.020l0.096-0.359z"></path>
<path fill="#263238" d="M14.352 4.482c-0.021 0.122 0.205 0.093 0.47 0.136s0.466 0.147 0.488 0.020c0.022-0.127-0.149-0.44-0.412-0.483s-0.525 0.2-0.546 0.328z"></path>
<path fill="#263238" d="M13.692 5.179c0.16-0.049 0.295-0.073 0.425-0.114 0.065-0.019 0.129-0.041 0.19-0.068 0.065-0.026 0.122-0.062 0.203-0.1-0.016 0.084-0.059 0.161-0.122 0.219s-0.138 0.099-0.22 0.122c-0.079 0.023-0.162 0.030-0.244 0.021-0.083-0.006-0.163-0.034-0.232-0.079z"></path>
<path fill="#e8e8e8" d="M16.794 11.092c0 0.677-0.283 1.222-1.297 1.222-0.715 0-1.146-0.548-1.146-1.222s0.288-1.222 1.146-1.222c0.858 0 1.297 0.546 1.297 1.222z"></path>
<path fill="#263238" d="M15.375 11.245h-0.023c-0.039 0-0.114 0-0.135-0.067s0.028-0.099 0.062-0.122c0.017-0.014 0.033-0.029 0.048-0.046l-0.011-0.007c-0.091-0.064-0.704-0.044-1.243 0.012-0.009 0.001-0.019 0.001-0.028-0.002s-0.017-0.007-0.025-0.013c-0.007-0.006-0.013-0.013-0.018-0.021s-0.007-0.017-0.008-0.026c-0.002-0.019 0.004-0.037 0.016-0.052s0.029-0.024 0.048-0.026c0.192-0.020 1.158-0.114 1.342 0.012 0.021 0.013 0.039 0.031 0.052 0.052s0.020 0.046 0.020 0.070c0.001 0.019-0.003 0.039-0.010 0.057s-0.017 0.035-0.031 0.049c0.059 0 0.139-0.013 0.232-0.024 0.409-0.049 1.098-0.131 1.696 0.029 0.018 0.005 0.032 0.017 0.041 0.033s0.011 0.035 0.007 0.053c-0.005 0.018-0.016 0.033-0.032 0.043s-0.035 0.012-0.052 0.008c-0.577-0.153-1.243-0.073-1.642-0.026-0.139 0.002-0.24 0.016-0.305 0.016z"></path>
<path fill="#263238" d="M5.511 2.973c-0.014 0-0.027-0.004-0.039-0.012s-0.021-0.018-0.026-0.031c-0.052-0.173-0.076-0.353-0.071-0.534l-0.167-0.589c-0.003-0.012-0.003-0.024-0-0.035s0.008-0.022 0.016-0.031c0.008-0.009 0.018-0.016 0.029-0.020s0.023-0.005 0.035-0.003l0.591 0.104c0.029 0 0.171 0.046 0.196 0.367 0.012 0.136 0.058 0.266 0.134 0.379 0.005 0.008 0.008 0.017 0.010 0.026s0.001 0.019-0.001 0.028c-0.002 0.009-0.006 0.018-0.012 0.025s-0.013 0.014-0.021 0.018c-0.008 0.005-0.017 0.008-0.026 0.009s-0.019 0.001-0.027-0.001c-0.009-0.002-0.017-0.006-0.025-0.012s-0.014-0.013-0.018-0.021c-0.088-0.131-0.141-0.282-0.154-0.439-0.017-0.211-0.085-0.244-0.087-0.244l-0.473-0.083 0.139 0.489c0.001 0.007 0.001 0.014 0 0.021-0.005 0.165 0.014 0.33 0.059 0.489 0.007 0.017 0.008 0.037 0.001 0.054s-0.020 0.031-0.037 0.039c-0.008 0.004-0.017 0.007-0.026 0.009z"></path>
<path fill="#263238" d="M8.102 4.294c-0.013 0.001-0.026-0.003-0.037-0.010-0.161-0.095-1.579-0.949-1.769-1.301-0.006-0.011-0.010-0.023-0.010-0.036s0.003-0.025 0.010-0.036c0.040-0.072 0.063-0.151 0.070-0.232 0.001-0.009 0.003-0.018 0.008-0.027s0.010-0.016 0.017-0.022c0.007-0.006 0.015-0.011 0.024-0.013s0.018-0.004 0.028-0.003c0.009 0.001 0.018 0.003 0.027 0.008s0.016 0.010 0.022 0.017c0.006 0.007 0.011 0.015 0.013 0.024s0.004 0.018 0.003 0.028c-0.008 0.089-0.032 0.175-0.070 0.255 0.207 0.29 1.285 0.969 1.697 1.222 0.008 0.005 0.015 0.011 0.021 0.018s0.010 0.016 0.012 0.025c0.002 0.009 0.003 0.018 0.001 0.028s-0.005 0.018-0.010 0.026c-0.007 0.009-0.015 0.016-0.025 0.021s-0.021 0.007-0.032 0.007z"></path>
<path fill="#263238" d="M15.28 28.526c0 0-0.067-1.034-0.122-1.084s-0.757 0.045-0.901-0.027c-0.144-0.072-0.223 0.323-0.316 0.367s-0.288-0.144-0.155-0.39c0.133-0.246-0.414-0.687-0.55-0.676s-1.008 0.367-1.681 0.408-1.209-0.085-1.395 0.012c-0.185 0.098-0.358 0.208-0.099 0.506s0.854 0.889 1.645 0.896c0.791 0.007 0.976-0.122 1.074-0.237s0.244-0.324 0.35-0.11c0.106 0.214 0.109 0.504 0.293 0.559s1.446 0.348 1.857-0.224z"></path>
<path fill="#263238" d="M14.101 29.58c-0.185 0.001-0.369-0.019-0.549-0.060-0.254-0.071-0.488-0.201-0.682-0.379-0.046-0.038-0.093-0.076-0.139-0.11-0.088-0.065-0.3-0.042-0.544-0.015-0.323 0.048-0.652 0.051-0.976 0.010-0.609-0.12-1.164-0.43-1.586-0.886-0.226-0.28-0.133-0.525-0.020-0.754 0.026-0.071 0.076-0.13 0.141-0.168s0.141-0.053 0.215-0.042c0.016 0.006 0.030 0.018 0.038 0.033s0.010 0.033 0.006 0.050c-0.004 0.017-0.014 0.032-0.028 0.042s-0.032 0.014-0.049 0.012c-0.012 0-0.122-0.020-0.198 0.137-0.104 0.209-0.17 0.386 0 0.601 0.402 0.428 0.927 0.72 1.502 0.836 0.311 0.038 0.627 0.035 0.937-0.011 0.284-0.032 0.51-0.056 0.642 0.042 0.049 0.035 0.096 0.075 0.145 0.114 0.178 0.165 0.393 0.286 0.627 0.352 0.383 0.095 1.009 0.076 1.392-0.122 0.355-0.183 0.412-0.355 0.244-0.703-0.003-0.015-0.002-0.031 0.005-0.045s0.018-0.026 0.032-0.033c0.014-0.007 0.030-0.009 0.045-0.006s0.029 0.011 0.040 0.023c0.207 0.416 0.122 0.673-0.3 0.89-0.295 0.135-0.617 0.202-0.941 0.194z"></path>
<path fill="#263238" d="M13.49 27.204c-0.013 0-0.026-0.003-0.037-0.011s-0.020-0.017-0.025-0.029c-0.004-0.008-0.007-0.017-0.008-0.026s0-0.018 0.003-0.027c0.003-0.009 0.007-0.017 0.013-0.024s0.013-0.013 0.021-0.017c0.010-0.007 0.328-0.225 0.676-1.657 0.001-0.010 0.005-0.020 0.010-0.028s0.012-0.016 0.020-0.022c0.008-0.006 0.018-0.010 0.027-0.012s0.020-0.002 0.030 0.001c0.010 0.002 0.019 0.007 0.027 0.013s0.014 0.014 0.019 0.023c0.005 0.009 0.008 0.019 0.008 0.029s-0.001 0.020-0.004 0.029c-0.366 1.521-0.71 1.731-0.748 1.749-0.010 0.005-0.021 0.007-0.032 0.007z"></path>
<path fill="#263238" d="M14.924 27.698c-0.018 0-0.035-0.007-0.048-0.019s-0.021-0.029-0.022-0.047c-0.034-0.533 0.669-2.009 0.699-2.072 0.010-0.012 0.024-0.019 0.039-0.022s0.031-0.001 0.045 0.006c0.014 0.007 0.025 0.018 0.032 0.032s0.009 0.030 0.006 0.045c-0.007 0.015-0.716 1.506-0.686 2.001 0.001 0.009-0.001 0.019-0.004 0.027s-0.008 0.017-0.014 0.024c-0.006 0.007-0.014 0.013-0.022 0.017s-0.017 0.007-0.027 0.007z"></path>
<path fill="#263238" d="M15.475 25.668c-0.464 0-1.297-0.244-1.696-0.48-0.417-0.244-0.29-1.147-0.179-1.944 0.013-0.098 0.027-0.194 0.039-0.286 0.049-0.379 0.037-1.107 0.023-1.813-0.015-0.832-0.028-1.619 0.049-1.946 0.142-0.611 1.368-2.86 1.42-2.956 0.004-0.008 0.010-0.016 0.017-0.021s0.015-0.010 0.024-0.013c0.009-0.003 0.018-0.003 0.027-0.002s0.018 0.004 0.026 0.009c0.008 0.004 0.015 0.010 0.021 0.017s0.010 0.015 0.013 0.024c0.003 0.009 0.003 0.018 0.002 0.027s-0.004 0.018-0.008 0.026c-0.012 0.023-1.269 2.335-1.407 2.92-0.072 0.309-0.057 1.125-0.044 1.912 0.012 0.71 0.026 1.445-0.024 1.833-0.012 0.093-0.026 0.189-0.040 0.287-0.099 0.715-0.223 1.606 0.111 1.802 0.416 0.244 1.393 0.517 1.753 0.451 0.177-0.032 0.777-0.205 1.113-1.088 0.273-0.717 0.349-3.091 0.349-3.338-0.048-0.144-0.115-0.28-0.201-0.404-0.17-0.286-0.244-0.427-0.176-0.506s0.157-0.020 0.194 0c0.153 0.077 0.296 0.173 0.426 0.286l0.083 0.065c0 0 0-0.013 0-0.021-0.030-0.111-0.065-0.21-0.093-0.29-0.059-0.172-0.091-0.268-0.037-0.331 0.018-0.018 0.041-0.030 0.066-0.036s0.051-0.005 0.075 0.003c0.186 0.037 0.287 0.023 0.366-0.051 0.095-0.103 1.771-2.811 1.889-3.398 0.134-0.65 0.122-1.374-0.026-1.611-0.173-0.277-0.383-0.559-0.386-0.561-0.011-0.015-0.016-0.034-0.013-0.053s0.013-0.035 0.028-0.047c0.007-0.006 0.016-0.010 0.025-0.012s0.018-0.003 0.028-0.002 0.018 0.004 0.026 0.009c0.008 0.005 0.015 0.011 0.020 0.019 0 0 0.216 0.289 0.392 0.571 0.194 0.312 0.168 1.116 0.045 1.711s-1.834 3.37-1.939 3.475c-0.137 0.137-0.314 0.122-0.488 0.091 0.014 0.061 0.033 0.12 0.055 0.178 0.028 0.082 0.063 0.183 0.095 0.299 0.024 0.092 0.043 0.185-0.022 0.226s-0.145-0.013-0.281-0.122c-0.121-0.105-0.254-0.195-0.397-0.268h-0.007c0.050 0.108 0.106 0.212 0.17 0.312 0.137 0.232 0.221 0.38 0.221 0.477 0 0.024-0.055 2.591-0.357 3.388-0.366 0.952-1.025 1.142-1.22 1.177-0.050 0.006-0.1 0.007-0.15 0.004z"></path>
<path fill="#263238" d="M21.893 23.438c-0.062 0-0.122 0-0.17-0.007-0.293-0.022-1.311-0.357-2.209-0.651-0.539-0.177-1.048-0.345-1.302-0.412-0.441-0.129-0.835-0.383-1.133-0.733-0.007-0.007-0.012-0.016-0.016-0.025s-0.005-0.019-0.005-0.029c0.001-0.010 0.003-0.020 0.008-0.029s0.011-0.017 0.019-0.023c0.008-0.006 0.017-0.011 0.026-0.013s0.020-0.003 0.030-0.001c0.010 0.002 0.019 0.005 0.027 0.011s0.015 0.013 0.021 0.021c0.281 0.323 0.648 0.561 1.058 0.683 0.259 0.069 0.77 0.236 1.31 0.414 0.847 0.277 1.9 0.625 2.176 0.645 0.413 0.032 1.112-0.056 1.342-0.428s0.267-1.277 0.204-1.5l-0.008-0.031c-0.076-0.268-0.253-0.897-0.83-1.089-0.722-0.244-1.983-0.588-2.117-0.565-0.028 0-0.059 0.076-0.077 0.116-0.028 0.064-0.057 0.128-0.122 0.13s-0.107-0.075-0.122-0.106c-0.026-0.051-0.051-0.111-0.077-0.174-0.039-0.094-0.122-0.29-0.167-0.301-0.058 0.054-0.111 0.113-0.157 0.177-0.112 0.144-0.188 0.244-0.273 0.209s-0.076-0.122-0.076-0.156c0.002-0.086 0.013-0.171 0.032-0.254 0.039-0.198 0.040-0.266-0.091-0.317-0.312-0.122-0.382-0.637-0.382-0.826 0-0.019 0.008-0.037 0.021-0.050s0.031-0.021 0.050-0.021c0.019 0 0.037 0.007 0.050 0.021s0.021 0.031 0.021 0.050c0 0.122 0.050 0.604 0.29 0.694s0.215 0.297 0.181 0.476c-0.013 0.070-0.021 0.141-0.023 0.213 0.030-0.034 0.067-0.082 0.095-0.122 0.052-0.074 0.112-0.141 0.179-0.2 0.017-0.013 0.037-0.023 0.058-0.027s0.043-0.005 0.064 0c0.112 0.031 0.181 0.194 0.26 0.383 0.022 0.053 0.044 0.105 0.065 0.15 0.033-0.073 0.078-0.172 0.173-0.197 0.181-0.044 1.719 0.41 2.197 0.568 0.647 0.216 0.846 0.92 0.92 1.186l0.009 0.029c0.073 0.254 0.046 1.195-0.22 1.615-0.253 0.395-0.893 0.496-1.308 0.496z"></path>
<path fill="#263238" d="M31.325 28.063c-0.025 0.002-0.050 0.002-0.074 0-0.019-0.003-0.035-0.013-0.047-0.028s-0.016-0.034-0.013-0.053c0.003-0.019 0.013-0.035 0.028-0.047s0.034-0.016 0.053-0.013c0.010 0 0.854 0.103 1.597-1.323 0.641-1.222 0.671-1.589 0.661-1.682-0.023 0.017-0.054 0.045-0.082 0.071-0.072 0.074-0.158 0.135-0.251 0.178-0.14 0.056-1.655 1.345-1.965 2.701-0.002 0.009-0.006 0.018-0.011 0.025s-0.012 0.014-0.020 0.019c-0.008 0.005-0.017 0.008-0.026 0.010s-0.019 0.001-0.027-0.001c-0.009-0.002-0.018-0.005-0.025-0.011s-0.014-0.012-0.019-0.020c-0.005-0.008-0.008-0.017-0.010-0.026s-0.001-0.019 0.001-0.028c0.325-1.42 1.884-2.734 2.050-2.802 0.078-0.037 0.148-0.088 0.207-0.15 0.047-0.056 0.109-0.099 0.179-0.122 0.020-0.004 0.041-0.003 0.060 0.005s0.035 0.021 0.047 0.038c0.168 0.225-0.332 1.26-0.645 1.857-0.677 1.291-1.431 1.401-1.668 1.401z"></path>
<path fill="#263238" d="M31.432 27.897c-0.010-0-0.020-0.002-0.030-0.007s-0.017-0.011-0.024-0.019c-0.006-0.007-0.011-0.015-0.013-0.024s-0.004-0.018-0.003-0.027c0.001-0.009 0.003-0.018 0.008-0.027s0.010-0.016 0.017-0.022c0.010-0.007 0.965-0.82 1.379-1.7 0.008-0.016 0.023-0.028 0.040-0.034s0.036-0.005 0.053 0.003c0.016 0.008 0.029 0.021 0.036 0.038s0.006 0.036-0 0.053c-0.427 0.909-1.375 1.711-1.415 1.749-0.013 0.011-0.029 0.017-0.046 0.017z"></path>
<path fill="#263238" d="M31.265 26.189h-0.006c-0.009-0.001-0.018-0.003-0.027-0.007s-0.016-0.010-0.022-0.017c-0.006-0.007-0.011-0.015-0.013-0.024s-0.004-0.018-0.003-0.027c0.096-1.163 0.663-2.362 1.683-3.562 0.043-0.051 0.072-0.086 0.084-0.103 0.025-0.039 0.047-0.080 0.067-0.122 0.083-0.156 0.15-0.279 0.244-0.252s0.122 0.122 0.096 0.611c-0.051 0.978-0.716 2.87-0.744 2.949-0.002 0.010-0.007 0.019-0.013 0.027s-0.014 0.014-0.022 0.019c-0.009 0.005-0.018 0.008-0.028 0.008s-0.020-0-0.029-0.004c-0.009-0.003-0.018-0.008-0.025-0.015s-0.013-0.015-0.017-0.024c-0.004-0.009-0.006-0.019-0.006-0.029s0.002-0.020 0.007-0.029 0.687-1.95 0.732-2.91c0.011-0.14 0.011-0.281 0-0.422-0.026 0.040-0.056 0.098-0.076 0.134s-0.054 0.101-0.076 0.133c-0.022 0.032-0.046 0.058-0.094 0.114-1.001 1.178-1.555 2.349-1.649 3.481-0 0.018-0.007 0.035-0.019 0.047s-0.028 0.021-0.046 0.022z"></path>
<path fill="#263238" d="M31.3 26.891h-0.020c-0.018-0.005-0.033-0.018-0.042-0.034s-0.011-0.036-0.006-0.054c0.411-1.411 1.37-3.178 1.38-3.2 0.004-0.008 0.010-0.015 0.018-0.021s0.015-0.010 0.024-0.013c0.009-0.003 0.018-0.003 0.027-0.002s0.018 0.004 0.026 0.008c0.008 0.004 0.015 0.010 0.021 0.018s0.010 0.015 0.013 0.024c0.003 0.009 0.003 0.018 0.002 0.027s-0.004 0.018-0.008 0.026c-0.010 0.018-0.96 1.777-1.368 3.178-0.005 0.013-0.015 0.025-0.027 0.032s-0.027 0.011-0.041 0.011z"></path>
<path fill="#263238" d="M30.872 27.92c-0.018 0-0.036-0.007-0.049-0.020-0.049-0.046-1.191-1.167-1.058-2.567 0.116-1.222 0.412-2.372 0.647-2.523 0.016-0.011 0.034-0.019 0.053-0.022s0.039-0.001 0.057 0.005c0.14 0.049 0.17 0.255 0.206 0.518 0.020 0.209 0.067 0.414 0.139 0.611 0.196 0.463 0.671 2.585 0.416 3.734-0.005 0.017-0.016 0.032-0.032 0.041s-0.034 0.012-0.051 0.008c-0.018-0.004-0.033-0.014-0.043-0.029s-0.014-0.033-0.012-0.051c0.244-1.121-0.216-3.195-0.409-3.649-0.077-0.207-0.127-0.423-0.149-0.643-0.023-0.163-0.051-0.367-0.104-0.4-0.132 0.083-0.449 1.056-0.578 2.415-0.122 1.327 1.004 2.436 1.015 2.445s0.019 0.022 0.022 0.036c0.003 0.014 0.002 0.029-0.003 0.042s-0.015 0.025-0.027 0.033c-0.012 0.008-0.027 0.012-0.041 0.011v0.003z"></path>
<path fill="#263238" d="M30.97 27.752c-0.014-0-0.027-0.004-0.038-0.011s-0.021-0.018-0.026-0.030c-0.61-1.352-0.709-3.25-0.709-3.268-0.001-0.009 0.001-0.019 0.003-0.027s0.008-0.017 0.014-0.024c0.006-0.007 0.014-0.013 0.022-0.017s0.017-0.006 0.027-0.007c0.018-0 0.036 0.007 0.049 0.019s0.021 0.030 0.022 0.048c0 0.018 0.104 1.891 0.698 3.218 0.007 0.017 0.008 0.036 0.001 0.054s-0.020 0.032-0.037 0.039c-0.008 0.004-0.017 0.006-0.026 0.006z"></path>
<path fill="#263238" d="M30.886 24.254c-0.018 0-0.035-0.007-0.048-0.019s-0.021-0.029-0.022-0.047c-0.109-1.865 0.664-3.475 1.035-4.247 0.068-0.133 0.129-0.271 0.182-0.411 0.082-0.275 0.187-0.322 0.259-0.312 0.106 0.013 0.25 0.143 0.276 1.090 0.033 1.195-0.315 3.286-0.317 3.3-0.002 0.009-0.005 0.018-0.010 0.026s-0.011 0.015-0.019 0.020-0.016 0.009-0.025 0.012c-0.009 0.002-0.019 0.002-0.028 0.001s-0.018-0.005-0.026-0.010c-0.008-0.005-0.015-0.012-0.020-0.019s-0.009-0.016-0.011-0.025c-0.002-0.009-0.002-0.019-0.001-0.028 0-0.021 0.348-2.099 0.316-3.279-0.023-0.881-0.154-0.953-0.155-0.955-0.051 0.061-0.086 0.134-0.103 0.213-0.055 0.148-0.118 0.292-0.19 0.432-0.366 0.763-1.126 2.349-1.020 4.178 0 0.009-0.001 0.019-0.004 0.027s-0.008 0.017-0.014 0.024c-0.006 0.007-0.014 0.012-0.022 0.017s-0.018 0.006-0.027 0.007l-0.004 0.006z"></path>
<path fill="#263238" d="M31.238 25.887c-0.018-0-0.034-0.007-0.047-0.018s-0.021-0.028-0.023-0.045c-0.023-0.212 0.052-0.534 0.192-1.121 0.069-0.296 0.155-0.664 0.253-1.118 0.204-1.051 0.354-2.112 0.45-3.178 0.002-0.019 0.011-0.036 0.026-0.048s0.033-0.018 0.051-0.017c0.009 0.001 0.018 0.003 0.027 0.008s0.016 0.010 0.021 0.017 0.010 0.015 0.013 0.024c0.003 0.009 0.004 0.018 0.003 0.028-0.096 1.072-0.247 2.138-0.451 3.195-0.099 0.456-0.185 0.824-0.255 1.12-0.134 0.572-0.209 0.886-0.188 1.074 0.002 0.019-0.003 0.037-0.015 0.052s-0.029 0.024-0.047 0.026l-0.007 0.001z"></path>
<path fill="#263238" d="M32.326 28.417c-0.015 0-0.030-0.005-0.042-0.014s-0.021-0.022-0.026-0.036c-0.005-0.018-0.003-0.037 0.006-0.054s0.024-0.029 0.042-0.034l0.144-0.045c-0.007-0.004-0.013-0.008-0.020-0.013-0.014-0.013-0.024-0.029-0.029-0.047s-0.005-0.037-0-0.055c0.024-0.073 0.060-0.142 0.106-0.203l0.016-0.023c-0.265 0.1-0.632 0.209-0.885 0.099-0.009-0.004-0.016-0.009-0.023-0.016s-0.012-0.014-0.015-0.023c-0.003-0.009-0.005-0.018-0.005-0.027s0.002-0.019 0.006-0.027c0.008-0.017 0.022-0.031 0.039-0.038s0.037-0.006 0.054 0.001c0.244 0.105 0.666-0.059 0.807-0.113 0.050-0.020 0.142-0.055 0.19 0.007s0 0.136-0.066 0.237c-0.023 0.034-0.049 0.073-0.067 0.108 0.040-0.010 0.095-0.027 0.139-0.040 0.118-0.043 0.241-0.070 0.366-0.078 0.078 0 0.101 0.038 0.105 0.070 0.010 0.066 0.017 0.109-0.82 0.367l-0.022-0.001z"></path>
<path fill="#263238" d="M30.64 27.878c-0.012 0-0.023-0.003-0.033-0.009-0.193-0.106-0.368-0.241-0.52-0.4-0.116-0.122-0.201-0.155-0.244-0.144-0.008 0.003-0.015 0.009-0.020 0.016s-0.008 0.015-0.008 0.024c-0.002 0.018-0.009 0.036-0.020 0.050s-0.026 0.026-0.043 0.033c-0.067 0.026-0.133-0.028-0.21-0.090l-0.020-0.015c0 0.009 0 0.017 0 0.024 0.012 0.143 0.032 0.358-0.122 0.429-0.008 0.004-0.018 0.006-0.027 0.006s-0.019-0.001-0.027-0.005c-0.009-0.003-0.017-0.008-0.023-0.015s-0.012-0.014-0.016-0.023c-0.004-0.008-0.006-0.018-0.006-0.027s0.001-0.019 0.005-0.027c0.003-0.009 0.008-0.017 0.015-0.024s0.014-0.012 0.023-0.016c0.062-0.028 0.048-0.191 0.039-0.287s-0.015-0.175 0.044-0.208c0.059-0.033 0.128 0.016 0.204 0.076l0.059 0.046c0.010-0.025 0.026-0.047 0.046-0.065s0.044-0.031 0.069-0.039c0.062-0.018 0.194-0.018 0.382 0.183 0.141 0.146 0.303 0.269 0.481 0.367 0.008 0.004 0.016 0.010 0.022 0.017s0.011 0.016 0.013 0.025c0.003 0.009 0.004 0.018 0.003 0.028s-0.004 0.019-0.008 0.027c-0.005 0.011-0.013 0.021-0.022 0.028s-0.021 0.012-0.033 0.014z"></path>
<path fill="#263238" d="M6.165 27.792c-0.126-0-0.252-0.009-0.377-0.026-0.554-0.075-1.362-0.367-2.060-1.3-1.158-1.556-1.203-2.822-1.22-3.364 0-0.082 0-0.146-0.011-0.192-0.030-0.244 0-0.533 0.143-0.593 0.037-0.017 0.111-0.029 0.19 0.067 0.051 0.072 0.082 0.157 0.088 0.244 0.026 0.157 0.055 0.335 0.4 0.537 0.722 0.419 3.129 1.967 3.795 4.265 0.004 0.009 0.005 0.019 0.005 0.029s-0.003 0.020-0.007 0.028-0.011 0.017-0.018 0.023c-0.008 0.006-0.016 0.011-0.026 0.014s-0.019 0.003-0.029 0.002c-0.010-0.001-0.019-0.005-0.027-0.010s-0.016-0.012-0.021-0.020c-0.006-0.008-0.009-0.017-0.011-0.027-0.652-2.247-3.020-3.768-3.73-4.182-0.404-0.235-0.442-0.467-0.469-0.636-0.004-0.062-0.023-0.122-0.057-0.174-0.008-0.012-0.019-0.021-0.032-0.028-0.023 0.015-0.087 0.173-0.052 0.446 0 0.049 0.009 0.122 0.012 0.204 0.018 0.528 0.062 1.764 1.193 3.284 0.666 0.897 1.433 1.171 1.958 1.244 0.332 0.049 0.671 0.029 0.996-0.059 0.018-0.006 0.037-0.004 0.054 0.004s0.029 0.023 0.035 0.041c0.003 0.009 0.004 0.018 0.004 0.027s-0.003 0.018-0.007 0.027c-0.004 0.008-0.010 0.016-0.017 0.022s-0.015 0.011-0.024 0.013c-0.22 0.062-0.448 0.092-0.676 0.087z"></path>
<path fill="#263238" d="M6.833 27.542h-0.012c-0.045-0.009-1.124-0.202-2.287-1.241-0.721-0.668-1.245-1.521-1.516-2.467-0.002-0.009-0.002-0.018-0.001-0.028s0.005-0.018 0.010-0.026c0.005-0.008 0.011-0.015 0.019-0.020s0.016-0.009 0.025-0.012c0.009-0.002 0.018-0.003 0.028-0.001s0.018 0.005 0.026 0.010c0.008 0.005 0.015 0.011 0.020 0.019s0.009 0.016 0.012 0.025c0.263 0.918 0.772 1.747 1.472 2.396 1.13 1.011 2.206 1.205 2.217 1.206 0.018 0.004 0.034 0.014 0.045 0.029s0.015 0.034 0.012 0.053c-0.003 0.016-0.012 0.030-0.025 0.041s-0.029 0.016-0.045 0.015z"></path>
<path fill="#263238" d="M7.524 27.518c-0.018 0.002-0.037-0.004-0.051-0.016s-0.023-0.029-0.025-0.048c-0.002-0.018 0.004-0.037 0.016-0.051s0.029-0.023 0.047-0.025c0.013 0 1.342-0.28 1.392-2.748 0.061-2.722-0.488-4.026-0.829-4.367-0.071-0.072-0.133-0.106-0.164-0.094-0.131 0.051-0.142 0.651-0.148 1.010-0.010 0.479-0.244 0.94-0.559 1.579-0.109 0.218-0.231 0.464-0.359 0.733-0.477 1.028-0.221 2.802-0.218 2.819 0.003 0.010 0.003 0.020 0.002 0.030s-0.005 0.019-0.011 0.027c-0.005 0.008-0.013 0.015-0.021 0.021s-0.018 0.009-0.028 0.010c-0.010 0.001-0.020 0.001-0.030-0.002s-0.019-0.007-0.026-0.014c-0.008-0.006-0.014-0.014-0.018-0.023s-0.007-0.019-0.007-0.029c-0.011-0.073-0.266-1.833 0.229-2.899 0.122-0.275 0.253-0.522 0.366-0.741 0.31-0.622 0.534-1.071 0.543-1.518 0.011-0.636 0.034-1.059 0.237-1.139 0.138-0.055 0.272 0.082 0.316 0.122 0.472 0.478 0.924 2.046 0.87 4.47-0.059 2.591-1.45 2.872-1.508 2.883l-0.018 0.009z"></path>
<path fill="#263238" d="M5.876 28.148c-0.416-0.015-0.431-0.088-0.438-0.122s0.022-0.093 0.094-0.122c0.101-0.045 0.212-0.063 0.322-0.050 0.082 0.009 0.165 0.001 0.244-0.023 0.187-0.057 0.216-0.128 0.216-0.128 0.002-0.009 0.006-0.017 0.011-0.025s0.012-0.014 0.020-0.018 0.016-0.008 0.026-0.009c0.009-0.001 0.018-0.001 0.027 0.001 0.018 0.005 0.034 0.017 0.044 0.033s0.013 0.035 0.009 0.054c0 0.023-0.045 0.147-0.311 0.229-0.096 0.029-0.197 0.039-0.297 0.029-0.052-0.007-0.105-0.007-0.157 0 0.057 0.007 0.122 0.012 0.192 0.015 0.019 0 0.037 0.007 0.050 0.021s0.021 0.031 0.021 0.050c0 0.019-0.007 0.037-0.021 0.050s-0.031 0.021-0.050 0.021l-0.001-0.004z"></path>
<path fill="#263238" d="M8.015 27.746c-0.010 0-0.019-0.002-0.028-0.006s-0.017-0.009-0.023-0.016c-0.013-0.013-0.021-0.031-0.021-0.050s0.007-0.037 0.021-0.050c0.045-0.041 0.086-0.086 0.122-0.134l-0.007 0.007c-0.050 0.060-0.122 0.149-0.223 0.099-0.040-0.024-0.074-0.055-0.102-0.093s-0.047-0.080-0.058-0.125c-0.004-0.018-0.001-0.038 0.009-0.054s0.026-0.027 0.044-0.032 0.038-0.001 0.054 0.009c0.016 0.010 0.027 0.026 0.032 0.044 0.013 0.050 0.045 0.094 0.088 0.122 0.015-0.023 0.031-0.045 0.050-0.065 0.051-0.060 0.138-0.161 0.244-0.091 0.015 0.010 0.028 0.024 0.037 0.040s0.014 0.034 0.016 0.052c0.007 0.114-0.139 0.263-0.203 0.322-0.014 0.013-0.031 0.020-0.050 0.021z"></path>
<path fill="#263238" d="M7.516 27.209c-0.009 0.002-0.019 0.002-0.028 0-0.009-0.004-0.016-0.009-0.023-0.016s-0.012-0.015-0.015-0.024c-0.003-0.009-0.005-0.018-0.004-0.027s0.003-0.019 0.007-0.027c0.685-1.718 0.942-3.577 0.749-5.416-0.002-0.019 0.003-0.038 0.015-0.052s0.029-0.025 0.047-0.027c0.009-0.001 0.019-0.001 0.028 0.002s0.017 0.007 0.025 0.013c0.007 0.006 0.013 0.013 0.018 0.021s0.007 0.017 0.008 0.027c0.351 2.98-0.75 5.466-0.761 5.492-0.006 0.011-0.016 0.021-0.027 0.027s-0.024 0.009-0.037 0.009z"></path>
<path fill="#263238" d="M6.515 26.043c-0.013 0-0.026-0.003-0.037-0.010s-0.020-0.016-0.026-0.028c-0.009-0.018-0.932-1.857-0.635-4.611 0.12-1.197 0.396-2.373 0.822-3.498 0.142-0.392 0.234-0.651 0.209-0.813-0.013-0.083-0.122-0.816 0.079-0.907 0.040-0.018 0.106-0.021 0.182 0.072 0.212 0.262 0.854 2.242 0.816 3.876 0 0.009-0.002 0.019-0.005 0.027s-0.009 0.016-0.015 0.023-0.014 0.012-0.023 0.015c-0.009 0.003-0.018 0.005-0.027 0.005s-0.019-0.002-0.027-0.005c-0.009-0.004-0.016-0.009-0.023-0.015s-0.012-0.014-0.015-0.023c-0.004-0.009-0.005-0.018-0.005-0.027 0.038-1.648-0.621-3.583-0.785-3.789l-0.020-0.021c-0.037 0.078-0.050 0.377 0.009 0.744 0.030 0.197-0.067 0.469-0.216 0.883-0.422 1.114-0.696 2.279-0.815 3.465-0.293 2.71 0.61 4.513 0.62 4.531 0.004 0.008 0.007 0.017 0.008 0.027s-0 0.019-0.003 0.028c-0.003 0.009-0.007 0.017-0.014 0.024s-0.014 0.013-0.022 0.017c-0.010 0.006-0.021 0.009-0.032 0.010z"></path>
<path fill="#263238" d="M6.538 24.453c-0.018 0-0.036-0.007-0.049-0.020s-0.021-0.030-0.022-0.049c0-0.026-0.016-0.621 0.215-1.909s0.488-4.338 0.488-4.37c0.002-0.019 0.011-0.036 0.026-0.048s0.033-0.018 0.051-0.017c0.009 0.001 0.018 0.003 0.027 0.008s0.016 0.010 0.021 0.017c0.006 0.007 0.010 0.015 0.013 0.024s0.003 0.018 0.003 0.027c0 0.031-0.262 3.1-0.488 4.383s-0.214 1.873-0.212 1.879c0 0.019-0.007 0.037-0.020 0.051s-0.031 0.022-0.049 0.023h-0.002z"></path>
<path fill="#263238" d="M4.793 24.359c-0.010-0-0.020-0.002-0.029-0.007s-0.018-0.010-0.024-0.018c-0.010-0.012-1.023-1.189-1.27-2.77s-0.353-2.107-0.513-2.335c-0.093-0.133-0.096-0.276-0.009-0.358 0.048-0.045 0.244-0.165 0.677 0.192 0.575 0.471 1.929 2.2 2.271 3.328 0.004 0.018 0.001 0.036-0.008 0.052s-0.024 0.027-0.041 0.032-0.036 0.003-0.052-0.005c-0.016-0.008-0.029-0.022-0.035-0.039-0.328-1.084-1.675-2.811-2.226-3.259-0.275-0.225-0.444-0.244-0.488-0.198-0.027 0.026-0.027 0.093 0.029 0.172 0.178 0.253 0.279 0.765 0.536 2.395 0.244 1.54 1.229 2.689 1.239 2.699 0.006 0.007 0.011 0.015 0.014 0.024s0.004 0.018 0.003 0.027c-0.001 0.009-0.003 0.018-0.007 0.027s-0.010 0.016-0.017 0.022c-0.014 0.012-0.032 0.018-0.050 0.017z"></path>
<path fill="#263238" d="M6.345 25.652c-0.010 0-0.021-0.002-0.030-0.007s-0.018-0.011-0.025-0.019c0-0.007-0.595-0.721-1.379-1.862s-1.209-3.211-1.228-3.3c-0.002-0.009-0.002-0.019 0-0.028s0.006-0.018 0.011-0.025c0.005-0.008 0.012-0.014 0.020-0.020s0.016-0.009 0.026-0.010c0.018-0.003 0.037 0.001 0.053 0.011s0.026 0.026 0.030 0.044c0 0.022 0.433 2.122 1.206 3.248s1.365 1.843 1.372 1.851c0.012 0.015 0.017 0.033 0.015 0.052s-0.011 0.036-0.025 0.048c-0.013 0.011-0.029 0.017-0.045 0.017z"></path>
<path fill="#263238" d="M4.286 19.942c-0.015-0-0.030-0.006-0.042-0.015s-0.021-0.022-0.025-0.037c0-0.015-0.449-1.513-0.588-2.489-0.033-0.236-0.065-0.429-0.090-0.588-0.068-0.414-0.094-0.571-0.012-0.649 0.022-0.018 0.048-0.031 0.076-0.037s0.057-0.005 0.084 0.003c0.229 0.045 2.161 1.522 2.627 3.227 0.003 0.009 0.004 0.019 0.003 0.028s-0.004 0.019-0.009 0.027-0.011 0.015-0.018 0.021c-0.007 0.006-0.016 0.010-0.025 0.012s-0.019 0.003-0.028 0.002-0.018-0.005-0.027-0.009c-0.008-0.005-0.015-0.011-0.021-0.019s-0.010-0.016-0.012-0.026c-0.443-1.616-2.306-3.084-2.517-3.125-0.013-0.002-0.025-0.002-0.038 0-0.024 0.035 0.013 0.262 0.056 0.524 0.026 0.158 0.057 0.353 0.091 0.59 0.137 0.966 0.578 2.453 0.583 2.468 0.005 0.018 0.003 0.037-0.006 0.054s-0.024 0.029-0.042 0.034c-0.007 0.002-0.014 0.002-0.021 0.001z"></path>
<path fill="#263238" d="M5.841 22.055c-0.016 0-0.033-0.005-0.045-0.016s-0.021-0.025-0.024-0.042c-0.13-0.545-0.362-1.060-0.685-1.518-0.566-0.826-0.91-2.669-0.924-2.748-0.002-0.009-0.002-0.019 0-0.028s0.005-0.018 0.011-0.026c0.005-0.008 0.012-0.014 0.020-0.019s0.016-0.009 0.026-0.011c0.019-0.003 0.037 0.002 0.053 0.012s0.026 0.027 0.030 0.045c0 0.018 0.351 1.892 0.901 2.689 0.335 0.474 0.576 1.008 0.708 1.573 0.002 0.009 0.002 0.019-0 0.028s-0.006 0.018-0.011 0.025c-0.005 0.008-0.012 0.014-0.020 0.019s-0.017 0.008-0.026 0.010l-0.012 0.005z"></path>
<path fill="#263238" d="M6.675 18.076c-0.009-0-0.018-0.002-0.027-0.006s-0.016-0.009-0.022-0.016c-0.006-0.007-0.011-0.015-0.015-0.024s-0.005-0.018-0.004-0.027c0.026-0.676-0.057-1.122-0.297-1.589l-0.028-0.053c-0.471-0.928-1.024-2.042-1.104-2.429-0.052-0.244-0.134-0.343-0.173-0.345-0.009 0-0.11 0.009-0.233 0.418-0.21 0.692 0.283 3.27 0.289 3.3 0.004 0.019-0 0.038-0.011 0.053s-0.027 0.026-0.045 0.030c-0.018 0.003-0.038-0-0.053-0.011s-0.026-0.027-0.030-0.045c-0.021-0.108-0.505-2.639-0.286-3.364 0.105-0.35 0.226-0.519 0.366-0.519h0.001c0.183 0.007 0.27 0.29 0.305 0.457 0.088 0.417 0.818 1.853 1.098 2.393l0.027 0.054c0.251 0.489 0.339 0.96 0.312 1.661-0.002 0.017-0.011 0.033-0.024 0.044s-0.030 0.017-0.047 0.017z"></path>
<path fill="#263238" d="M6.17 19.207c-0.018-0-0.035-0.007-0.048-0.019s-0.021-0.028-0.023-0.046c0-0.009-0.068-0.906-0.135-1.478s-0.732-1.626-0.742-1.636c-0.010-0.016-0.013-0.036-0.009-0.054s0.016-0.035 0.032-0.045c0.016-0.010 0.036-0.013 0.054-0.009s0.035 0.016 0.045 0.032c0.028 0.044 0.693 1.1 0.763 1.694s0.135 1.475 0.137 1.484c0.001 0.019-0.005 0.037-0.017 0.051s-0.029 0.023-0.048 0.025h-0.009z"></path>
<path fill="#263238" d="M19.402 19.74c0 0.034-0.027 0.061-0.061 0.061s-0.061-0.027-0.061-0.061c0-0.034 0.027-0.061 0.061-0.061s0.061 0.027 0.061 0.061z"></path>
<path fill="#263238" d="M20.256 19.924c0 0.067-0.055 0.122-0.122 0.122s-0.122-0.055-0.122-0.122c0-0.067 0.055-0.122 0.122-0.122s0.122 0.055 0.122 0.122z"></path>
<path fill="#263238" d="M19.402 19.679c0 0.067-0.055 0.122-0.122 0.122s-0.122-0.055-0.122-0.122c0-0.067 0.055-0.122 0.122-0.122s0.122 0.055 0.122 0.122z"></path>
<path fill="#263238" d="M14.302 18.483c-0.113 0.227-0.242 0.393-0.287 0.37s0.009-0.225 0.123-0.453c0.113-0.227 0.242-0.393 0.287-0.37s-0.009 0.225-0.123 0.453z"></path>
</svg>
