<!-- Generated by IcoMoon.io -->
<svg version="1.1" xmlns="http://www.w3.org/2000/svg" id="listen" viewBox="0 0 48 32">
<title>Podcast-audience-bro-1</title>
<path fill="#263238" d="M24.092 24.138c-0.876-0.001-1.717-0.348-2.337-0.965s-0.969-1.454-0.97-2.327v-1.109c0-0.048 0.019-0.093 0.053-0.127s0.080-0.052 0.127-0.052h0.45c0.048 0 0.093 0.019 0.127 0.052s0.053 0.079 0.053 0.127-0.019 0.093-0.053 0.127c-0.034 0.034-0.080 0.052-0.127 0.052h-0.268v0.929c0 0.778 0.31 1.524 0.863 2.074s1.302 0.859 2.084 0.859c0.781 0 1.531-0.309 2.083-0.859s0.863-1.296 0.863-2.074v-0.929h-0.27c-0.048 0-0.093-0.019-0.127-0.052s-0.053-0.079-0.053-0.127 0.019-0.093 0.053-0.127c0.034-0.034 0.080-0.052 0.127-0.052h0.45c0.048 0 0.093 0.019 0.127 0.052s0.053 0.079 0.053 0.127v1.109c-0.001 0.873-0.35 1.71-0.97 2.327s-1.461 0.964-2.338 0.965z"></path>
<path fill="#263238" d="M27.578 26.892v-0.358c0-0.047-0.009-0.094-0.027-0.137s-0.045-0.083-0.078-0.116-0.073-0.060-0.117-0.078c-0.044-0.018-0.091-0.027-0.138-0.027h-6.253c-0.047-0-0.094 0.009-0.138 0.027s-0.083 0.044-0.117 0.078-0.060 0.073-0.078 0.116c-0.018 0.043-0.027 0.090-0.027 0.137v0.358h6.973z"></path>
<path fill="#263238" d="M24.442 26.612c0.006-0.026 0.009-0.052 0.009-0.078v-2.575h-0.72v2.575c0 0.026 0.003 0.053 0.009 0.078h0.702z"></path>
<path fill="#e8e8e8" d="M26.318 16.411c0.005-0.294-0.049-0.587-0.159-0.86s-0.273-0.522-0.48-0.732c-0.207-0.21-0.454-0.377-0.727-0.49s-0.565-0.172-0.861-0.172c-0.296 0-0.588 0.059-0.861 0.172s-0.52 0.281-0.727 0.49c-0.207 0.21-0.37 0.459-0.48 0.732s-0.164 0.566-0.159 0.86v4.435c0.010 0.581 0.249 1.136 0.666 1.544s0.977 0.636 1.561 0.636 1.145-0.229 1.561-0.636c0.417-0.408 0.656-0.962 0.666-1.544v-4.435z"></path>
<path fill="#fff" d="M23.169 16.645h-1.305v0.538h1.305c0.072 0 0.14-0.028 0.191-0.079s0.079-0.119 0.079-0.19-0.028-0.14-0.079-0.19c-0.051-0.050-0.119-0.079-0.191-0.079z"></path>
<path fill="#fff" d="M26.319 16.645h-1.304c-0.071 0-0.14 0.028-0.191 0.079s-0.079 0.119-0.079 0.19 0.028 0.14 0.079 0.19c0.050 0.050 0.119 0.079 0.191 0.079h1.304v-0.538z"></path>
<path fill="#fff" d="M24.092 16.645c-0.053 0-0.106 0.016-0.15 0.045s-0.079 0.072-0.1 0.121c-0.020 0.049-0.026 0.103-0.015 0.155s0.036 0.1 0.074 0.138 0.086 0.063 0.138 0.074c0.052 0.010 0.107 0.005 0.156-0.015s0.091-0.055 0.121-0.099c0.030-0.044 0.046-0.096 0.046-0.149 0-0.071-0.028-0.14-0.079-0.19s-0.119-0.079-0.191-0.079z"></path>
<path fill="#fff" d="M24.092 17.731c-0.053 0-0.106 0.016-0.15 0.045s-0.079 0.072-0.1 0.121c-0.020 0.049-0.026 0.103-0.015 0.155s0.036 0.1 0.074 0.138 0.086 0.063 0.138 0.074c0.052 0.010 0.107 0.005 0.156-0.015s0.091-0.055 0.121-0.099c0.030-0.044 0.046-0.096 0.046-0.149 0-0.071-0.028-0.14-0.079-0.19s-0.119-0.079-0.191-0.079z"></path>
<path fill="#fff" d="M24.092 18.816c-0.053 0-0.106 0.016-0.15 0.045s-0.079 0.072-0.1 0.121c-0.020 0.049-0.026 0.103-0.015 0.155s0.036 0.1 0.074 0.138 0.086 0.063 0.138 0.074c0.052 0.010 0.107 0.005 0.156-0.015s0.091-0.055 0.121-0.099c0.030-0.044 0.046-0.096 0.046-0.149 0-0.071-0.028-0.14-0.079-0.19s-0.119-0.079-0.191-0.079z"></path>
<path fill="#fff" d="M23.169 17.731h-1.305v0.538h1.305c0.072 0 0.14-0.028 0.191-0.079s0.079-0.119 0.079-0.19-0.028-0.14-0.079-0.19c-0.051-0.050-0.119-0.079-0.191-0.079z"></path>
<path fill="#fff" d="M26.319 17.731h-1.304c-0.071 0-0.14 0.028-0.191 0.079s-0.079 0.119-0.079 0.19 0.028 0.14 0.079 0.19c0.050 0.050 0.119 0.079 0.191 0.079h1.304v-0.538z"></path>
<path fill="#fff" d="M23.169 18.816h-1.305v0.538h1.305c0.072 0 0.14-0.028 0.191-0.079s0.079-0.119 0.079-0.19-0.028-0.14-0.079-0.19c-0.051-0.050-0.119-0.079-0.191-0.079z"></path>
<path fill="#fff" d="M26.319 18.816h-1.304c-0.071 0-0.14 0.028-0.191 0.079s-0.079 0.119-0.079 0.19 0.028 0.14 0.079 0.19c0.050 0.050 0.119 0.079 0.191 0.079h1.304v-0.538z"></path>
<path fill="#263238" d="M21.865 20.846c0.010 0.581 0.249 1.136 0.665 1.544s0.977 0.636 1.561 0.636c0.584 0 1.145-0.229 1.562-0.636s0.656-0.962 0.665-1.544h-4.454z"></path>
<path fill="#e8e8e8" d="M42.981 19.729c2.781-2.769 2.781-7.258 0-10.027s-7.289-2.769-10.070 0c-2.781 2.769-2.781 7.258 0 10.027s7.289 2.769 10.070 0z"></path>
<path fill="#fff" d="M36.925 11.782h-4.974c-0.251 0-0.454 0.202-0.454 0.452v4.953c0 0.25 0.203 0.452 0.454 0.452h4.974c0.251 0 0.454-0.202 0.454-0.452v-4.953c0-0.25-0.203-0.452-0.454-0.452z"></path>
<path fill="#000" opacity="0.010000000000000002" d="M32.051 17.639h1.963l1.251-5.857h-2.043l-1.249 5.851c0.026 0.004 0.052 0.006 0.078 0.006z"></path>
<path fill="#000" opacity="0.010000000000000002" d="M36.097 11.782h-0.491l-1.25 5.857h0.491l1.25-5.857z"></path>
<path fill="#fff" d="M36.824 17.785h-4.773c-0.186-0-0.364-0.074-0.495-0.204s-0.206-0.308-0.206-0.493v-4.754c0-0.185 0.074-0.362 0.206-0.493s0.31-0.205 0.496-0.205h4.773c0.186 0 0.364 0.074 0.496 0.205s0.206 0.308 0.206 0.494v4.754c-0.001 0.185-0.075 0.362-0.207 0.493s-0.31 0.204-0.495 0.204zM32.051 11.928c-0.108 0-0.212 0.043-0.288 0.119s-0.12 0.179-0.12 0.287v4.754c0 0.108 0.043 0.211 0.119 0.288s0.18 0.119 0.289 0.119h4.773c0.054 0 0.107-0.011 0.156-0.031s0.095-0.050 0.133-0.088 0.068-0.083 0.089-0.132c0.020-0.049 0.031-0.102 0.031-0.156v-4.754c0-0.053-0.011-0.106-0.031-0.155s-0.051-0.094-0.089-0.132c-0.038-0.038-0.083-0.068-0.133-0.088s-0.102-0.031-0.156-0.031h-4.773z"></path>
<path fill="#fff" d="M43.843 11.782h-4.974c-0.251 0-0.454 0.202-0.454 0.452v4.953c0 0.25 0.203 0.452 0.454 0.452h4.974c0.251 0 0.454-0.202 0.454-0.452v-4.953c0-0.25-0.203-0.452-0.454-0.452z"></path>
<path fill="#000" opacity="0.010000000000000002" d="M39.483 17.639h1.963l1.25-5.857h-2.042l-1.252 5.851c0.027 0.004 0.054 0.006 0.081 0.006z"></path>
<path fill="#000" opacity="0.010000000000000002" d="M43.529 11.782h-0.491l-1.251 5.857h0.492l1.25-5.857z"></path>
<path fill="#fff" d="M43.742 17.785h-4.773c-0.186-0-0.364-0.074-0.495-0.204s-0.206-0.308-0.206-0.493v-4.754c0-0.185 0.074-0.362 0.206-0.493s0.31-0.205 0.496-0.205h4.773c0.186 0 0.364 0.074 0.496 0.205s0.206 0.308 0.206 0.494v4.754c-0.001 0.185-0.075 0.362-0.207 0.493s-0.31 0.204-0.495 0.204zM38.969 11.928c-0.108 0-0.212 0.043-0.288 0.119s-0.12 0.179-0.12 0.287v4.754c0 0.108 0.043 0.211 0.119 0.288s0.18 0.119 0.289 0.119h4.773c0.054 0 0.107-0.011 0.156-0.031s0.095-0.050 0.133-0.088c0.038-0.038 0.068-0.083 0.089-0.132s0.031-0.102 0.031-0.156v-4.754c0-0.053-0.011-0.106-0.031-0.155s-0.051-0.094-0.089-0.132c-0.038-0.038-0.083-0.068-0.133-0.088s-0.102-0.031-0.156-0.031h-4.773z"></path>
<path fill="#e8e8e8" d="M38.138 28.382c1.769 0 3.203-0.21 3.203-0.469s-1.434-0.469-3.203-0.469-3.203 0.21-3.203 0.469c0 0.259 1.434 0.469 3.203 0.469z"></path>
<path fill="#fff" d="M39.554 25.18c0 0-0.008 1.314-0.148 1.53-0.166 0.256-0.285 0.614 0.156 0.711s0.703 0.582 1.228 0.614c0.525 0.032 0.578-0.192 0.35-0.372s-0.81-0.678-0.886-0.921c-0.076-0.242 0.072-1.562 0.072-1.562h-0.772z"></path>
<path fill="#000" opacity="0.1" d="M40.255 25.943c0.028-0.387 0.070-0.763 0.070-0.763h-0.771c0 0 0 0.336-0.022 0.696 0.239 0.042 0.481 0.064 0.724 0.067z"></path>
<path fill="#bfbfbf" d="M41.137 27.663c-0.214-0.169-0.418-0.351-0.609-0.546-0.183 0.138-0.72 0.008-0.878-0.117-0.193-0.151-0.152-0.228-0.244-0.296l-0.003 0.006c-0.167 0.256-0.285 0.614 0.156 0.711s0.703 0.582 1.228 0.614c0.525 0.032 0.58-0.195 0.349-0.372z"></path>
<path fill="#fff" d="M36.588 24.704c0 0-0.578 1.202-0.797 1.349-0.264 0.175-0.527 0.458-0.165 0.709s0.394 0.793 0.861 1.016 0.613 0.035 0.481-0.212c-0.132-0.246-0.45-0.921-0.415-1.172s0.747-1.434 0.747-1.434l-0.714-0.256z"></path>
<path fill="#000" opacity="0.1" d="M36.588 24.704c0 0-0.207 0.431-0.42 0.808 0.172 0.17 0.37 0.311 0.586 0.418 0.222-0.427 0.547-0.968 0.547-0.968l-0.714-0.258z"></path>
<path fill="#bfbfbf" d="M36.97 27.563c-0.123-0.234-0.23-0.477-0.321-0.726-0.228 0.059-0.703-0.245-0.755-0.43-0.101-0.358-0.041-0.266-0.096-0.362l-0.005 0.004c-0.264 0.175-0.526 0.458-0.164 0.709s0.394 0.793 0.861 1.016 0.612 0.035 0.48-0.212z"></path>
<path fill="#263238" d="M39.647 16.199c0 0 0.885 4.224 0.944 5.602s-0.171 3.835-0.171 3.835l-0.983-0.064c0 0-0.006-0.726-0.105-1.738-0.058-0.601-0.242-1.302-0.222-2.011 0 0-0.934-2.758-0.9-3.968s0-1.558 0-1.558l1.436-0.098z"></path>
<path fill="#263238" d="M37.281 16.199c0 0-0.918 0.755-0.386 2.278 0.209 0.604 1.018 3.368 1.018 3.368-0.222 0.253-0.41 0.534-0.559 0.835-0.369 0.726-0.638 1.856-1.093 2.504l0.674 0.453c0 0 2.175-2.715 2.314-3.577s-0.514-4.309-0.514-4.309l-0.209-1.401-1.245-0.15z"></path>
<path fill="#fff" d="M41.351 13.336c-0.012-0.143-0.060-0.281-0.141-0.4 0.067-0.088 0.126-0.183 0.174-0.283 0.049-0.117-0.016-0.283-0.152-0.084s-0.285 0.343-0.231 0.591c0.028 0.16-0.001 0.325-0.082 0.465l0.313 0.244 0.624-0.493-0.506-0.040z"></path>
<path fill="#263238" d="M41.645 12.070l-0.525 0.142c-0.048 0.013-0.077 0.063-0.064 0.111l0.299 1.095c0.013 0.048 0.063 0.076 0.111 0.063l0.525-0.142c0.048-0.013 0.077-0.063 0.064-0.111l-0.299-1.095c-0.013-0.048-0.063-0.076-0.111-0.063z"></path>
<path fill="#e8e8e8" d="M41.76 12.147l-0.7 0.189 0.292 1.068 0.7-0.189-0.292-1.068z"></path>
<path fill="#263238" d="M41.62 12.517c-0.009-0.033-0.030-0.061-0.059-0.078s-0.065-0.022-0.098-0.014-0.061 0.030-0.079 0.059c-0.017 0.029-0.022 0.064-0.014 0.097s0.050 0.182 0.064 0.236l0.249-0.067c-0.014-0.049-0.057-0.205-0.064-0.232z"></path>
<path fill="#263238" d="M41.597 12.923c0.031-0.008 0.058-0.028 0.075-0.055s0.024-0.059 0.018-0.091l-0.247 0.064c0.011 0.030 0.033 0.056 0.061 0.071s0.062 0.019 0.093 0.011z"></path>
<path fill="#263238" d="M41.83 13.056l-0.162 0.044-0.033-0.122c0.046-0.018 0.084-0.052 0.106-0.096s0.027-0.095 0.015-0.142l-0.018-0.064c-0-0.001-0.001-0.003-0.002-0.004s-0.002-0.002-0.003-0.003-0.003-0.001-0.004-0.001-0.003-0-0.004 0l-0.027 0.007c-0.001 0-0.003 0.001-0.004 0.002s-0.002 0.002-0.003 0.003-0.001 0.003-0.001 0.004 0 0.003 0.001 0.004c0 0.001 0.001 0.003 0.002 0.004s0.002 0.002 0.003 0.003c0.001 0.001 0.002 0.001 0.004 0.001s0.003 0 0.004-0l0.016-0.005 0.015 0.054c0.006 0.023 0.008 0.046 0.005 0.069s-0.010 0.046-0.022 0.066c-0.012 0.020-0.027 0.038-0.046 0.052s-0.040 0.025-0.063 0.031-0.046 0.008-0.070 0.005c-0.023-0.003-0.046-0.010-0.066-0.022s-0.038-0.027-0.053-0.046c-0.014-0.018-0.025-0.040-0.031-0.062l-0.015-0.054 0.016-0.004c0.003-0.001 0.005-0.003 0.006-0.005s0.002-0.005 0.001-0.008c-0-0.001-0.001-0.003-0.002-0.004s-0.002-0.002-0.003-0.003c-0.001-0.001-0.002-0.001-0.004-0.001s-0.003-0-0.004 0l-0.026 0.007c-0.001 0-0.003 0.001-0.004 0.002s-0.002 0.002-0.003 0.003c-0.001 0.001-0.001 0.003-0.001 0.004s-0 0.003 0 0.004l0.018 0.064c0.013 0.047 0.043 0.088 0.085 0.115s0.092 0.037 0.14 0.029l0.033 0.122-0.162 0.044c-0.003 0.001-0.005 0.002-0.008 0.004s-0.004 0.004-0.006 0.006c-0.001 0.002-0.002 0.005-0.003 0.008s0 0.006 0.001 0.009l0.006 0.021 0.409-0.111-0.006-0.021c-0.001-0.003-0.002-0.005-0.004-0.008s-0.004-0.004-0.007-0.006-0.005-0.002-0.008-0.003c-0.003-0-0.006-0-0.009 0.001z"></path>
<path fill="#fff" d="M41.896 12.397c-0.064 0.007-0.118 0.107-0.098 0.249s0.15-0.012 0.158-0.057c0.008-0.045 0.062-0.204-0.060-0.192z"></path>
<path fill="#fff" d="M42.037 12.608c-0.017-0-0.034 0.003-0.050 0.010s-0.029 0.018-0.040 0.031c-0.011 0.013-0.019 0.029-0.023 0.045s-0.004 0.034-0.001 0.051c0.012 0.138 0.039 0.106 0.039 0.106 0.001 0.057 0.012 0.113 0.034 0.165 0.032 0.061 0.117-0.031 0.117-0.086s-0.009-0.344-0.076-0.321z"></path>
<path fill="#fff" d="M41.963 12.848c0 0 0.111-0.033 0.138-0.113l-0.138 0.113z"></path>
<path fill="#fff" d="M40.997 13.43c0.021-0.089 0.023-0.181 0.005-0.27-0.054-0.248 0.095-0.393 0.231-0.591s0.201-0.033 0.152 0.084c-0.048 0.1-0.107 0.195-0.174 0.283 0.087 0.116 0.136 0.255 0.141 0.4 0 0.047 0 0.186 0 0.186z"></path>
<path fill="#263238" d="M39.273 11.883c0.224-0.047 0.292-0.104 0.292-0.104-0.168-0.673 0.434-2.935-1.462-3.039s-0.836 3.101-0.836 3.101l0.206 0.026-0.106-0.645 0.247 0.661c0.73 0.079 1.198 0.064 1.493 0.027-0.040-0.291-0.044-0.585-0.012-0.877 0.037 0.287 0.097 0.571 0.178 0.849z"></path>
<path fill="#fff" d="M39.547 12.293v-0.020c-0.004 0.009-0.008 0.015 0 0.020z"></path>
<path fill="#fff" d="M40.92 13.625l-0.9 0.832 0.017-1.247c0.003-0.188-0.042-0.374-0.13-0.541s-0.218-0.308-0.376-0.411l0.034 3.281c0.884 0.056 1.671-1.671 1.671-1.671-0.032-0.061-0.077-0.114-0.131-0.156s-0.117-0.072-0.184-0.088z"></path>
<path fill="#000" opacity="0.1" d="M39.882 15.137c-0.134 0.012-0.164-0.243-0.162-0.49-0.037 0.093-0.062 0.191-0.074 0.291-0.011 0.282-0.011 0.562-0.007 0.801 1.007-0.454 1.019-0.86 1.277-1.273-0.165 0.208-0.777 0.648-1.034 0.671z"></path>
<path fill="#e8e8e8" d="M40.729 13.732l0.197-0.186 0.433 0.296-0.126 0.209-0.504-0.318z"></path>
<path fill="#fff" d="M39.886 13.824c-0.363 1.6-0.182 2.652-0.182 2.652s-0.875 0.618-2.714 0.094c0 0 0.334-0.828 0.244-1.459-0.055-0.388-0.421-1.785-0.421-1.785s-0.173-0.611-0.094-1.103c0.154-0.099 0.483-0.219 1.065-0.261 0.010-0.032 0.016-0.066 0.020-0.099 0.019-0.163 0.022-0.327 0.012-0.49-0.008-0.192-0.024-0.345-0.024-0.345h0.702c0 0 0.009 0.177 0.031 0.384 0.012 0.122 0.030 0.256 0.052 0.371 0.011 0.058 0.025 0.115 0.042 0.171 0.701 0.105 0.964 0.287 1.015 0.445 0.239 0.713 0.33 1.084 0.253 1.426z"></path>
<path fill="#263238" d="M38.526 11.524c-0.057 0.128-0.128 0.229-0.376 0.228-0.184 0-0.35-0.162-0.368-0.224 0.020-0.14 0-0.192-0.008-0.351 0.236-0.007 0.473 0.007 0.707 0.041 0.010 0.103 0.025 0.205 0.045 0.306z"></path>
<path fill="#fff" d="M38.993 10.154c0-0.095 0-0.153 0-0.153-0.052-0.248-0.361-0.261-0.503-0.261-0.15 0.005-0.299-0.021-0.438-0.076 0.046 0.109 0.121 0.202 0.218 0.27-0.528-0.117-0.57-0.395-0.55-0.545-0.188 0.653-0.431 0.681-0.431 0.681s0 0.058 0.011 0.152c-0.063 0.014-0.119 0.051-0.157 0.103s-0.056 0.116-0.050 0.18c-0.001 0.069 0.026 0.136 0.074 0.186s0.114 0.079 0.183 0.082c0.014-0.001 0.028-0.003 0.041-0.006 0.112 0.433 0.341 0.903 0.811 0.884s0.661-0.506 0.737-0.947c0.014 0.001 0.028 0.001 0.042 0 0.070-0.007 0.134-0.041 0.178-0.095s0.066-0.123 0.059-0.192c0-0.064-0.022-0.125-0.063-0.174s-0.099-0.081-0.161-0.091z"></path>
<path fill="#fff" d="M37.085 10.003l-0.071 0.003 0.010 0.253 0.071-0.003-0.010-0.253z"></path>
<path fill="#fff" d="M39.261 9.912l-0.071 0.003 0.010 0.253 0.071-0.003-0.010-0.253z"></path>
<path fill="#e8e8e8" d="M38.092 8.856c-0.303 0.012-0.589 0.141-0.798 0.359s-0.326 0.508-0.325 0.81c0 0.006 0.001 0.011 0.004 0.016s0.006 0.010 0.010 0.014c0.004 0.004 0.009 0.007 0.014 0.009s0.011 0.003 0.017 0.003h0.075c0.011-0.001 0.022-0.005 0.029-0.013s0.012-0.019 0.011-0.030c0.002-0.259 0.104-0.507 0.284-0.693s0.426-0.296 0.686-0.306 0.513 0.079 0.709 0.25c0.195 0.171 0.317 0.41 0.339 0.668 0.001 0.011 0.006 0.021 0.014 0.028s0.019 0.011 0.030 0.011h0.075c0.006-0 0.011-0.001 0.016-0.004s0.010-0.006 0.014-0.010c0.004-0.004 0.007-0.009 0.008-0.014s0.003-0.011 0.002-0.017c-0.022-0.302-0.161-0.584-0.387-0.785s-0.523-0.308-0.827-0.296z"></path>
<path fill="#e8e8e8" d="M37.216 10.157h-0.017c-0.048 0.002-0.096 0.013-0.14 0.034s-0.084 0.049-0.117 0.085c-0.066 0.072-0.101 0.167-0.097 0.264s0.047 0.189 0.119 0.255c0.072 0.066 0.167 0.101 0.265 0.097h0.016l-0.029-0.735z"></path>
<path fill="#fff" d="M37.316 10.52c0.011 0.273 0.030 0.448-0.064 0.454s-0.134-0.172-0.145-0.448c-0.011-0.276 0.014-0.448 0.109-0.454s0.090 0.176 0.101 0.449z"></path>
<path fill="#e8e8e8" d="M39.074 10.083h0.017c0.049-0.002 0.097 0.006 0.142 0.022s0.087 0.042 0.123 0.075c0.036 0.033 0.064 0.072 0.085 0.116s0.032 0.091 0.034 0.139c0.002 0.048-0.006 0.096-0.022 0.142s-0.042 0.087-0.075 0.122c-0.033 0.035-0.072 0.064-0.116 0.084s-0.092 0.032-0.14 0.034h-0.017l-0.029-0.735z"></path>
<path fill="#fff" d="M39.001 10.453c0.011 0.273 0.006 0.448 0.101 0.448s0.12-0.182 0.109-0.455c-0.011-0.273-0.051-0.448-0.145-0.445s-0.076 0.179-0.065 0.452z"></path>
<path fill="#e8e8e8" d="M37.691 11.873c0 0 0.147 0.366 0.69 0.448 0 0-0.217 0.448-0.514 0.272-0.356-0.21-0.424-0.646-0.424-0.646l0.247-0.074z"></path>
<path fill="#e8e8e8" d="M38.687 11.918c0.002 0.097-0.031 0.193-0.092 0.268s-0.148 0.128-0.244 0.147c0 0 0.264 0.431 0.481 0.192s0.048-0.565 0.048-0.565l-0.193-0.042z"></path>
<path fill="#e8e8e8" d="M38.566 13.188c0 0.013-0.004 0.025-0.011 0.036s-0.017 0.019-0.029 0.024c-0.012 0.005-0.025 0.006-0.037 0.004s-0.024-0.009-0.033-0.018c-0.009-0.009-0.015-0.020-0.018-0.033s-0.001-0.025 0.004-0.037c0.005-0.012 0.013-0.022 0.024-0.029s0.023-0.011 0.036-0.011c0.017 0 0.033 0.007 0.045 0.019s0.019 0.028 0.019 0.045z"></path>
<path fill="#e8e8e8" d="M38.654 14.449c0 0.013-0.004 0.025-0.011 0.036s-0.017 0.019-0.029 0.024c-0.012 0.005-0.025 0.006-0.037 0.004s-0.024-0.009-0.033-0.018c-0.009-0.009-0.015-0.020-0.018-0.033s-0.001-0.025 0.004-0.037c0.005-0.012 0.013-0.022 0.024-0.029s0.023-0.011 0.036-0.011c0.017 0 0.033 0.007 0.045 0.019s0.019 0.028 0.019 0.045z"></path>
<path fill="#e8e8e8" d="M38.736 15.739c0 0.013-0.004 0.025-0.011 0.036s-0.017 0.019-0.029 0.024c-0.012 0.005-0.025 0.006-0.037 0.004s-0.024-0.009-0.033-0.018c-0.009-0.009-0.015-0.020-0.017-0.033s-0.001-0.025 0.004-0.037c0.005-0.012 0.013-0.022 0.024-0.029s0.023-0.011 0.036-0.011c0.017 0 0.033 0.007 0.045 0.019s0.019 0.028 0.019 0.045z"></path>
<path fill="#fff" d="M44.4 7.158h-13.024c-0.060 0-0.109 0.049-0.109 0.109v0.234c0 0.060 0.049 0.109 0.109 0.109h13.024c0.060 0 0.109-0.049 0.109-0.109v-0.234c0-0.060-0.049-0.109-0.109-0.109z"></path>
<path fill="#fff" d="M35.439 10.195c0 0-0.537-0.075-0.566 0.069s-0.013 0.373 0.080 0.448c0.175 0.142 0.143 0.408 0.143 0.408l0.45-0.044 0.012-0.224c0.023-0.073 0.064-0.139 0.12-0.192 0.162-0.152 0.098-0.32 0.070-0.523s-0.162-0.113-0.173-0.008c-0.003 0.094 0.005 0.187 0.023 0.279l-0.159-0.213z"></path>
<path fill="#fff" d="M35.564 10.392c0 0-0.128 0.026-0.23 0.207l0.23-0.207z"></path>
<path fill="#263238" d="M35.564 10.439h-0.65c-0.045 0.001-0.090-0.008-0.131-0.027s-0.076-0.048-0.103-0.084c-0.023-0.033-0.036-0.071-0.036-0.111s0.012-0.079 0.036-0.111l0.325-0.476c0.028-0.035 0.064-0.064 0.105-0.083s0.085-0.030 0.131-0.030c0.045 0 0.090 0.010 0.131 0.030s0.076 0.048 0.105 0.083l0.326 0.476c0.023 0.033 0.036 0.071 0.036 0.111s-0.013 0.079-0.036 0.111c-0.027 0.036-0.063 0.065-0.105 0.085s-0.087 0.028-0.132 0.027zM34.793 10.158c-0.012 0.017-0.019 0.037-0.019 0.058s0.007 0.041 0.019 0.058c0.014 0.019 0.033 0.033 0.054 0.043s0.044 0.015 0.068 0.014h0.65c0.023 0.001 0.047-0.004 0.068-0.014s0.040-0.025 0.054-0.043c0.012-0.017 0.019-0.037 0.019-0.058s-0.007-0.041-0.019-0.058l-0.325-0.475c-0.014-0.019-0.033-0.034-0.054-0.044s-0.045-0.015-0.069-0.014c-0.024-0.001-0.047 0.004-0.069 0.014s-0.040 0.026-0.054 0.045l-0.326 0.476 0.003-0.001z"></path>
<path fill="#fff" d="M35.044 10.201c0.033 0.169 0.013 0.229-0.064 0.22s-0.155-0.216-0.048-0.264c0.107-0.047 0.193-0.084 0.193-0.084 0.034-0.018 0.072-0.029 0.111-0.030s0.077 0.007 0.113 0.023c0.153-0.053 0.18 0.058 0.18 0.058s0.111 0.32 0.019 0.331c-0.092 0.011-0.168-0.267-0.168-0.267s0.115 0.305 0.010 0.31c-0.105 0.005-0.166-0.296-0.166-0.296s0.069 0.264-0.031 0.273c-0.1 0.009-0.147-0.275-0.147-0.275z"></path>
<path fill="#fff" d="M35.287 7.489h-0.106v2.101h0.106v-2.101z"></path>
<path fill="#fff" d="M35.346 9.557l-0.069 0.101c-0.005 0.006-0.010 0.010-0.017 0.014s-0.014 0.005-0.021 0.005-0.015-0.002-0.021-0.005c-0.007-0.003-0.012-0.008-0.017-0.014l-0.068-0.101c-0.017-0.024 0.005-0.053 0.037-0.053h0.138c0.033 0 0.054 0.032 0.038 0.053z"></path>
<path fill="#fff" d="M35.296 8.852h-0.112c-0.031 0-0.056 0.025-0.056 0.056v0.466c0 0.031 0.025 0.056 0.056 0.056h0.112c0.031 0 0.056-0.025 0.056-0.056v-0.466c0-0.031-0.025-0.056-0.056-0.056z"></path>
<path fill="#fff" d="M35.296 7.086h-0.112c-0.031 0-0.056 0.025-0.056 0.056v0.466c0 0.031 0.025 0.056 0.056 0.056h0.112c0.031 0 0.056-0.025 0.056-0.056v-0.466c0-0.031-0.025-0.056-0.056-0.056z"></path>
<path fill="#263238" d="M34.036 10.439h-0.651c-0.045 0.001-0.090-0.008-0.13-0.027s-0.076-0.048-0.103-0.084c-0.023-0.033-0.036-0.071-0.036-0.111s0.012-0.079 0.036-0.111l0.325-0.476c0.028-0.035 0.064-0.064 0.105-0.083s0.085-0.030 0.131-0.030 0.090 0.010 0.131 0.030c0.041 0.020 0.076 0.048 0.105 0.083l0.325 0.476c0.023 0.033 0.036 0.071 0.036 0.111s-0.012 0.079-0.036 0.111c-0.027 0.036-0.063 0.065-0.105 0.085s-0.087 0.028-0.132 0.027zM33.264 10.157c-0.012 0.017-0.019 0.037-0.019 0.058s0.007 0.041 0.019 0.058c0.014 0.019 0.033 0.033 0.054 0.043s0.044 0.015 0.068 0.014h0.651c0.023 0.001 0.047-0.004 0.068-0.014s0.040-0.025 0.054-0.043c0.012-0.017 0.019-0.037 0.019-0.058s-0.007-0.041-0.019-0.058l-0.325-0.475c-0.014-0.019-0.033-0.034-0.054-0.044s-0.045-0.015-0.069-0.014c-0.023-0.001-0.047 0.004-0.068 0.014s-0.040 0.026-0.054 0.045l-0.326 0.476 0.002-0.001z"></path>
<path fill="#fff" d="M33.758 7.489h-0.105v2.101h0.105v-2.101z"></path>
<path fill="#fff" d="M33.817 9.557l-0.071 0.1c-0.005 0.006-0.010 0.010-0.017 0.014s-0.014 0.005-0.021 0.005-0.015-0.002-0.021-0.005c-0.007-0.003-0.012-0.008-0.017-0.014l-0.068-0.1c-0.017-0.024 0.004-0.053 0.037-0.053h0.138c0.033 0 0.057 0.032 0.041 0.053z"></path>
<path fill="#fff" d="M33.767 8.852h-0.113c-0.031 0-0.056 0.025-0.056 0.056v0.466c0 0.031 0.025 0.056 0.056 0.056h0.113c0.031 0 0.056-0.025 0.056-0.056v-0.466c0-0.031-0.025-0.056-0.056-0.056z"></path>
<path fill="#fff" d="M33.767 7.086h-0.113c-0.031 0-0.056 0.025-0.056 0.056v0.466c0 0.031 0.025 0.056 0.056 0.056h0.113c0.031 0 0.056-0.025 0.056-0.056v-0.466c0-0.031-0.025-0.056-0.056-0.056z"></path>
<path fill="#263238" d="M40.662 10.439h-0.65c-0.045 0.001-0.090-0.008-0.131-0.027s-0.076-0.048-0.103-0.084c-0.023-0.033-0.036-0.071-0.036-0.111s0.012-0.079 0.036-0.111l0.325-0.476c0.028-0.035 0.064-0.064 0.105-0.083s0.085-0.030 0.131-0.030 0.090 0.010 0.131 0.030c0.041 0.020 0.076 0.048 0.105 0.083l0.325 0.476c0.023 0.033 0.036 0.071 0.036 0.111s-0.012 0.079-0.036 0.111c-0.027 0.036-0.063 0.065-0.105 0.085s-0.087 0.029-0.132 0.027zM39.891 10.158c-0.012 0.017-0.019 0.037-0.019 0.058s0.007 0.041 0.019 0.058c0.014 0.019 0.033 0.033 0.054 0.043s0.044 0.015 0.068 0.014h0.65c0.023 0.001 0.047-0.004 0.068-0.014s0.039-0.025 0.054-0.043c0.012-0.017 0.019-0.037 0.019-0.058s-0.007-0.041-0.019-0.058l-0.325-0.475c-0.015-0.018-0.033-0.033-0.055-0.043s-0.044-0.016-0.068-0.016c-0.024 0-0.047 0.005-0.068 0.016s-0.040 0.025-0.055 0.043l-0.325 0.476 0.002-0.001z"></path>
<path fill="#fff" d="M40.385 7.489h-0.105v2.101h0.105v-2.101z"></path>
<path fill="#fff" d="M40.443 9.557l-0.068 0.101c-0.005 0.006-0.010 0.010-0.017 0.014s-0.014 0.005-0.021 0.005c-0.007 0-0.015-0.002-0.021-0.005s-0.012-0.008-0.017-0.014l-0.068-0.101c-0.017-0.024 0.005-0.053 0.037-0.053h0.137c0.033 0 0.054 0.032 0.037 0.053z"></path>
<path fill="#fff" d="M40.393 8.852h-0.112c-0.031 0-0.056 0.025-0.056 0.056v0.466c0 0.031 0.025 0.056 0.056 0.056h0.112c0.031 0 0.056-0.025 0.056-0.056v-0.466c0-0.031-0.025-0.056-0.056-0.056z"></path>
<path fill="#fff" d="M40.393 7.086h-0.112c-0.031 0-0.056 0.025-0.056 0.056v0.466c0 0.031 0.025 0.056 0.056 0.056h0.112c0.031 0 0.056-0.025 0.056-0.056v-0.466c0-0.031-0.025-0.056-0.056-0.056z"></path>
<path fill="#263238" d="M42.119 10.439h-0.65c-0.045 0.001-0.090-0.008-0.131-0.027s-0.076-0.048-0.103-0.084c-0.023-0.033-0.036-0.071-0.036-0.111s0.012-0.079 0.036-0.111l0.325-0.476c0.028-0.035 0.064-0.064 0.105-0.083s0.085-0.030 0.131-0.030c0.045 0 0.090 0.010 0.131 0.030s0.077 0.048 0.105 0.083l0.325 0.476c0.023 0.033 0.036 0.071 0.036 0.111s-0.012 0.079-0.036 0.111c-0.027 0.036-0.063 0.065-0.105 0.085s-0.087 0.028-0.132 0.027zM41.348 10.157c-0.012 0.017-0.019 0.037-0.019 0.058s0.007 0.041 0.019 0.058c0.014 0.019 0.033 0.033 0.054 0.043s0.044 0.015 0.068 0.014h0.65c0.023 0.001 0.047-0.004 0.068-0.014s0.040-0.025 0.054-0.043c0.012-0.017 0.019-0.037 0.019-0.058s-0.006-0.041-0.019-0.058l-0.325-0.475c-0.014-0.019-0.033-0.034-0.054-0.044s-0.045-0.015-0.069-0.014c-0.024-0.001-0.047 0.004-0.069 0.014s-0.040 0.026-0.054 0.045l-0.326 0.476 0.002-0.001z"></path>
<path fill="#fff" d="M41.843 7.489h-0.106v2.101h0.106v-2.101z"></path>
<path fill="#fff" d="M41.901 9.557l-0.069 0.101c-0.005 0.006-0.010 0.010-0.017 0.014s-0.014 0.005-0.021 0.005-0.015-0.002-0.021-0.005c-0.007-0.003-0.012-0.008-0.017-0.014l-0.068-0.101c-0.017-0.024 0.004-0.053 0.037-0.053h0.138c0.033 0 0.054 0.032 0.038 0.053z"></path>
<path fill="#fff" d="M41.851 8.852h-0.112c-0.031 0-0.056 0.025-0.056 0.056v0.466c0 0.031 0.025 0.056 0.056 0.056h0.112c0.031 0 0.056-0.025 0.056-0.056v-0.466c0-0.031-0.025-0.056-0.056-0.056z"></path>
<path fill="#fff" d="M41.851 7.086h-0.112c-0.031 0-0.056 0.025-0.056 0.056v0.466c0 0.031 0.025 0.056 0.056 0.056h0.112c0.031 0 0.056-0.025 0.056-0.056v-0.466c0-0.031-0.025-0.056-0.056-0.056z"></path>
<path fill="#e8e8e8" d="M35.615 10.974l0.034 0.273-0.699 0.033 0.059-0.274 0.607-0.032z"></path>
<path fill="#fff" d="M36.801 13.271c0 0-1.214 1.112-1.494 1.129-0.069 0.004-0.129 0.047-0.186 0.008-0.129-0.087-0.314-0.271-0.287-1.020 0.014-0.41 0.263-2.117 0.263-2.117l0.45-0.020 0.109 1.92c0.386-0.398 1.056-0.95 1.057-0.95 0.209 0.667 0.089 1.049 0.089 1.049z"></path>
<path fill="#fff" d="M39.863 14.817c0.030-0.133 0.088-0.258 0.169-0.367l-0.169 0.367z"></path>
<path fill="#fff" d="M35.948 9.064v-0.765c0-0.037 0.015-0.072 0.041-0.098s0.062-0.041 0.099-0.041h1.206c0.037 0 0.073 0.015 0.099 0.041s0.041 0.062 0.041 0.098v0.765c0 0.037-0.015 0.072-0.041 0.099s-0.062 0.041-0.099 0.041h-0.42l0.033 0.291h-0.217v0.275l-0.257-0.448h0.21l-0.022-0.118h-0.535c-0.018-0-0.037-0.004-0.054-0.011s-0.032-0.017-0.045-0.030c-0.013-0.013-0.023-0.028-0.030-0.045s-0.010-0.035-0.010-0.053z"></path>
<path fill="#e8e8e8" d="M9.13 27.994c1.657 0 3.001-0.197 3.001-0.44s-1.344-0.439-3.001-0.439-3.001 0.197-3.001 0.439c0 0.243 1.344 0.44 3.001 0.44z"></path>
<path fill="#e8e8e8" d="M8.867 20.547c2.886 0 5.226-2.33 5.226-5.204s-2.34-5.204-5.226-5.204c-2.886 0-5.226 2.33-5.226 5.204s2.34 5.204 5.226 5.204z"></path>
<path fill="#fff" d="M6.457 18.746c0 0 0.133 0.768-0.316 1.631h5.618c0 0-0.257-0.403-0.526-1.631h-4.776z"></path>
<path fill="#263238" d="M7.738 18.924c-0.308 0.025-0.602 0.133-0.852 0.314s-0.444 0.426-0.562 0.71c-0.060 0.146-0.123 0.294-0.183 0.432-0.342 0.788-0.019 1.934 0.856 1.934h4.008c0.793 0 1.009-0.999 0.82-1.752-0.122-0.484-0.368-0.97-0.789-1.31-0.562-0.458-2.203-0.415-3.297-0.328z"></path>
<path fill="#fff" d="M3.911 18.078c0 0-0.719 0.433-0.742 0.668h0.881l0.35-0.25-0.118 0.252h0.268c0 0 0.285-0.22 0.3-0.464l-0.029-0.205-0.514-0.228-0.396 0.228z"></path>
<path fill="#fff" d="M12.328 16.489c0 0-0.115-0.753-0.368-1.838s-0.746-1.17-0.746-1.17h-0.005c-0.643-0.275-2.314-0.424-2.314-0.424h-0.077c0 0-1.675 0.148-2.314 0.424h-0.005c0 0-0.498 0.087-0.751 1.17s-0.368 1.838-0.368 1.838c0 0-0.456 0.123-1.278 1.152-0.129 0.163-0.239 0.341-0.327 0.529 0 0 0.631-0.207 1.073 0.11 0 0 1.449-0.612 1.521-1.257 0-0.023 0.006-0.049 0.009-0.076 0.041 0.979 0.077 1.797 0.077 1.797h4.796c0 0 0.036-0.818 0.077-1.797 0 0.028 0.006 0.053 0.008 0.076 0.073 0.645 1.677 1.368 1.677 1.368 0.44-0.673 1.078-0.301 1.078-0.301l-1.765-1.601z"></path>
<path fill="#000" opacity="0.3" d="M6.371 17.024c0-0.019 0.005-0.041 0.008-0.064l-0.105-2.266c0 0-0.289 0.059-0.206 0.755s0.257 0.576 0.16 0.844c-0.097 0.268-0.474-0.039-0.598 0.192s0.697 0.182 0.357 0.777c-0.339 0.595-1.137 1.024-1.137 1.024s1.449-0.615 1.521-1.261z"></path>
<path fill="#000" opacity="0.09" d="M11.361 17.024c0-0.019 0.189 0.014 0 0l0.057-1.94c0 0-0.014 0.938 0.087 1.208s0.474-0.039 0.598 0.192c0.124 0.231-0.697 0.182-0.357 0.777s1.136 1.024 1.136 1.024c0 0-1.448-0.615-1.521-1.261z"></path>
<path fill="#000" opacity="0.3" d="M11.288 17.466c-0.031 0.734-0.055 1.28-0.055 1.28h-4.312c2.892 0 4.371-1.28 4.371-1.28h-0.003z"></path>
<path fill="#fff" d="M9.755 13.161c-0.078 0.388-0.454 0.528-0.908 0.528s-0.829-0.14-0.908-0.526h0.018c0.047-0.006 0.091-0.027 0.126-0.059s0.060-0.073 0.071-0.119c0.006-0.018 0.010-0.038 0.010-0.057v-0.455h1.388v0.455c-0 0.028 0.005 0.057 0.015 0.083 0.015 0.040 0.040 0.074 0.073 0.101s0.073 0.043 0.115 0.049z"></path>
<path fill="#263238" d="M9.54 12.813c-0.23 0.225-0.487 0.365-0.734 0.376-0.257 0.011-0.555-0.198-0.677-0.405 0.005-0.018 0.007-0.036 0.007-0.055v-0.14l1.388 0.015v0.125c0 0.029 0.035 0.064 0.015 0.083z"></path>
<path fill="#263238" d="M7.833 11.496c0 0-0.481-0.542-0.418-1.289s0.679-0.747 0.679-0.747c0 0 0.742-0.652 1.571-0.244s0.771 1.824 0.158 2.176l-1.989 0.104z"></path>
<path fill="#fff" d="M9.955 11.131c0.006-0.124 0.006-0.201 0.006-0.201-0.055-0.33-0.461-0.364-0.647-0.369-0.781-0.026-0.987-0.503-0.987-0.503-0.474-0.141-0.608 0.872-0.608 0.872s0 0.077 0.006 0.201c-0.084 0.016-0.159 0.061-0.212 0.128s-0.080 0.15-0.076 0.234c0 0.202 0.147 0.365 0.328 0.365 0.018-0 0.037-0.002 0.055-0.005l0.085 0.476c0.016 0.107 0.117 0.36 0.208 0.42 0.193 0.128 0.498 0.31 0.728 0.31 0.198 0 0.476-0.163 0.681-0.273 0.114-0.064 0.24-0.309 0.251-0.438l0.053-0.481c0.030-0.001 0.060-0.004 0.090-0.009 0.181 0 0.328-0.163 0.328-0.365 0.004-0.085-0.023-0.168-0.076-0.234s-0.128-0.112-0.212-0.128z"></path>
<path fill="#fff" d="M7.563 10.824h-0.085v0.301h0.085v-0.301z"></path>
<path fill="#fff" d="M10.156 10.824h-0.085v0.301h0.085v-0.301z"></path>
<path fill="#fff" d="M8.817 9.51c-0.361-0-0.708 0.139-0.967 0.389s-0.412 0.589-0.425 0.948c-0 0.007 0.001 0.013 0.003 0.020s0.006 0.012 0.011 0.017c0.005 0.005 0.010 0.009 0.017 0.011s0.013 0.004 0.020 0.004h0.090c0.013 0 0.026-0.005 0.035-0.014s0.015-0.021 0.015-0.034c0.014-0.308 0.147-0.599 0.371-0.812s0.522-0.332 0.831-0.332c0.31 0 0.607 0.119 0.831 0.332s0.357 0.504 0.371 0.812c0.001 0.013 0.006 0.025 0.016 0.034s0.022 0.014 0.035 0.014h0.089c0.007 0 0.013-0.001 0.020-0.004s0.012-0.006 0.017-0.011c0.005-0.005 0.008-0.010 0.011-0.017s0.004-0.013 0.004-0.020c-0.013-0.359-0.166-0.699-0.426-0.948s-0.607-0.389-0.968-0.389z"></path>
<path fill="#263238" d="M7.708 11.016h-0.019c-0.114 0.004-0.221 0.052-0.3 0.134s-0.123 0.191-0.123 0.304c0 0.113 0.044 0.222 0.123 0.304s0.187 0.13 0.3 0.134h0.019v-0.876z"></path>
<path fill="#fff" d="M7.813 11.456c0 0.325 0.014 0.536-0.098 0.536s-0.151-0.211-0.151-0.536c0-0.324 0.039-0.536 0.151-0.536s0.098 0.209 0.098 0.536z"></path>
<path fill="#263238" d="M9.926 11.016h0.019c0.114 0.004 0.221 0.052 0.3 0.134s0.123 0.191 0.123 0.304c0 0.113-0.044 0.222-0.123 0.304s-0.187 0.13-0.3 0.134h-0.019v-0.876z"></path>
<path fill="#fff" d="M9.821 11.456c0 0.325-0.014 0.536 0.099 0.536s0.151-0.211 0.151-0.536c0-0.324-0.039-0.536-0.151-0.536s-0.099 0.209-0.099 0.536z"></path>
<path fill="#263238" d="M8.137 11.594c0.028 0.054 0.090 0.117 0.229 0.12s0.164-0.052 0.166-0.106c-0.062 0.030-0.131 0.044-0.2 0.042s-0.136-0.022-0.196-0.057z"></path>
<path fill="#263238" d="M9.526 11.594c-0.028 0.054-0.090 0.117-0.229 0.12s-0.164-0.052-0.166-0.106c0.062 0.030 0.131 0.044 0.2 0.042s0.136-0.022 0.196-0.057z"></path>
<path fill="#263238" d="M8.855 13.888c0.222-0 0.438-0.068 0.619-0.195s0.318-0.307 0.393-0.514c-0.059-0.009-0.116-0.017-0.172-0.024-0.088 0.143-0.211 0.261-0.358 0.343s-0.312 0.125-0.481 0.125c-0.168 0-0.334-0.043-0.481-0.125s-0.27-0.2-0.358-0.343c-0.056 0.008-0.114 0.015-0.172 0.024 0.075 0.208 0.212 0.387 0.393 0.514s0.397 0.195 0.618 0.196z"></path>
<path fill="#fff" d="M11.351 10.573v-0.689c0-0.034-0.014-0.066-0.038-0.091s-0.057-0.037-0.091-0.037h-1.084c-0.034 0-0.067 0.014-0.091 0.037s-0.038 0.057-0.038 0.091v0.689c0 0.034 0.014 0.066 0.038 0.091s0.057 0.037 0.091 0.037h0.378l-0.030 0.262h0.193v0.248l0.231-0.404h-0.19l0.020-0.106h0.481c0.017 0 0.034-0.003 0.049-0.010s0.030-0.016 0.042-0.028c0.012-0.012 0.022-0.026 0.028-0.042s0.010-0.032 0.010-0.049z"></path>
<path fill="#fff" d="M14.681 18.413c0 0.203-0.321 0.331-0.716 0.331s-0.716-0.128-0.716-0.331c0-0.203 0.321-0.369 0.716-0.369s0.716 0.165 0.716 0.369z"></path>
<path fill="#fff" d="M13.502 18.67c0.019-0.004 0.035-0.112-0.139-0.192-0.121-0.055-0.124-0.113-0.055-0.185s0.188-0.132 0.279-0.106c0.148 0.042 0.247 0.35 0.313 0.284 0.1-0.026-0.021-0.308-0.199-0.401 0.321 0.079 0.337 0.448 0.485 0.419 0.113-0.022-0.082-0.388-0.251-0.496 0.108 0.050 0.203 0.126 0.276 0.22 0.107 0.156 0.12 0.208 0.193 0.186 0.095-0.030-0.132-0.372-0.16-0.409 0.143 0.056 0.17 0.175 0.213 0.223s0.064 0.128 0.125 0.097c0.060-0.031 0.005-0.143-0.036-0.208-0.193-0.31-0.514-0.362-0.82-0.324-0.242 0.031-0.519 0.132-0.667 0.324-0.037 0.048-0.059 0.106-0.063 0.166s0.011 0.121 0.043 0.173c0.051 0.108 0.235 0.281 0.463 0.23z"></path>
<path fill="#bfbfbf" d="M14.869 18.746h-11.829c-0.035 0-0.064 0.028-0.064 0.063v0.102c0 0.035 0.029 0.063 0.064 0.063h11.829c0.035 0 0.064-0.028 0.064-0.063v-0.102c0-0.035-0.028-0.063-0.064-0.063z"></path>
<path fill="#263238" d="M3.387 18.746l-0.87-2.634c-0.003-0.010-0.004-0.021-0.002-0.032s0.006-0.021 0.012-0.030c0.006-0.009 0.014-0.016 0.024-0.021s0.020-0.008 0.031-0.008h2.749l0.979 2.724h-2.922z"></path>
<path fill="#fff" d="M5.405 16.022l0.9 2.572h2.41v0.090c0 0.017-0.007 0.033-0.019 0.045s-0.028 0.019-0.045 0.019h-2.5l-0.866-2.619c-0.004-0.012-0.005-0.024-0.003-0.037s0.007-0.024 0.014-0.034c0.007-0.010 0.017-0.018 0.028-0.024s0.023-0.009 0.036-0.009l0.046-0.003z"></path>
<path fill="#fff" d="M4.129 17.384c-0.008-0.045-0.029-0.086-0.060-0.12 0.013-0.016 0.030-0.028 0.049-0.037s0.040-0.012 0.061-0.012c0.049 0.002 0.095 0.020 0.133 0.051s0.064 0.073 0.075 0.12c0.006 0.020 0.007 0.042 0.003 0.063s-0.013 0.040-0.026 0.057c-0.013 0.017-0.030 0.030-0.050 0.039s-0.041 0.013-0.062 0.012c-0.049-0.001-0.097-0.019-0.134-0.052 0.019-0.038 0.023-0.081 0.012-0.122z"></path>
<path fill="#fff" d="M9.698 18.746h0.879c0.117-0.085 0.212-0.197 0.277-0.327s0.098-0.272 0.096-0.416v-0.412c0-0.016-0.003-0.031-0.009-0.046s-0.015-0.028-0.026-0.039c-0.011-0.011-0.024-0.020-0.039-0.026s-0.030-0.009-0.046-0.009h-1.381c-0.016 0-0.031 0.003-0.046 0.009s-0.028 0.015-0.039 0.026c-0.011 0.011-0.020 0.024-0.026 0.039s-0.009 0.030-0.009 0.046v0.412c-0.002 0.144 0.030 0.287 0.094 0.416s0.158 0.241 0.275 0.327z"></path>
<path fill="#fff" d="M11.198 17.648c-0.037-0.023-0.079-0.036-0.123-0.038s-0.087 0.007-0.126 0.027v0.148c0.038-0.006 0.077 0.001 0.11 0.022 0.124 0.072 0.098 0.218 0.011 0.367-0.040 0.085-0.108 0.152-0.193 0.192-0.025 0.062-0.057 0.12-0.096 0.175 0.165 0.036 0.316-0.104 0.434-0.307 0.139-0.239 0.181-0.472-0.017-0.586z"></path>
<path fill="#fff" d="M11.368 22.312h-4.813c-0.351 0-0.636 0.284-0.636 0.634v3.168c0 0.35 0.285 0.634 0.636 0.634h4.813c0.351 0 0.636-0.284 0.636-0.634v-3.168c0-0.35-0.285-0.634-0.636-0.634z"></path>
<path fill="#fff" d="M7.44 25.363l0.073 1.265 0.008 0.011c0.058 0.077 0.132 0.139 0.219 0.182s0.181 0.064 0.278 0.063 0.191-0.025 0.276-0.069c0.085-0.044 0.159-0.108 0.215-0.186l0.027-1.265h-1.095z"></path>
<path fill="#bfbfbf" d="M8.776 27.865c-0.488 0.085-0.986 0.085-1.474 0-0.046-0.045-0.085-0.096-0.116-0.151-0.049-0.087-0.077-0.185-0.081-0.285s0.016-0.2 0.057-0.291l0.294-0.522 1.164 0.013 0.262 0.476c0.063 0.113 0.090 0.242 0.078 0.371s-0.063 0.25-0.147 0.349c-0.012 0.014-0.024 0.027-0.037 0.039z"></path>
<path fill="#bfbfbf" d="M8.49 27.208c0.072 0.032 0.141 0.070 0.205 0.115l-0.205-0.115z"></path>
<path fill="#bfbfbf" d="M7.392 27.324c0.128-0.087 0.272-0.148 0.423-0.18s0.308-0.032 0.46-0.003z"></path>
<path fill="#263238" d="M6.813 20.142l0.514 5.867h1.33c0 0 0.132-3.584 0.215-5.911 0.005-0.138-0.017-0.276-0.067-0.405s-0.124-0.247-0.221-0.346c-0.096-0.099-0.212-0.178-0.34-0.232s-0.265-0.081-0.404-0.081c-0.142-0-0.283 0.029-0.414 0.085s-0.248 0.14-0.345 0.244c-0.097 0.104-0.171 0.227-0.217 0.361s-0.064 0.276-0.053 0.418z"></path>
<path fill="#fff" d="M9.604 25.363l0.073 1.265 0.008 0.011c0.057 0.077 0.132 0.139 0.219 0.182s0.181 0.064 0.278 0.063 0.191-0.025 0.276-0.069c0.085-0.044 0.159-0.108 0.215-0.186l0.027-1.265h-1.095z"></path>
<path fill="#bfbfbf" d="M10.939 27.865c-0.488 0.085-0.986 0.085-1.474 0-0.045-0.045-0.084-0.096-0.116-0.151-0.050-0.087-0.078-0.185-0.082-0.285s0.015-0.2 0.057-0.291l0.294-0.522 1.163 0.013 0.262 0.476c0.063 0.113 0.090 0.242 0.078 0.371s-0.063 0.25-0.147 0.349c-0.012 0.014-0.024 0.027-0.037 0.039z"></path>
<path fill="#bfbfbf" d="M10.653 27.208c0.072 0.032 0.141 0.070 0.205 0.115l-0.205-0.115z"></path>
<path fill="#bfbfbf" d="M9.557 27.324c0.128-0.087 0.272-0.148 0.423-0.179s0.308-0.032 0.46-0.003z"></path>
<path fill="#263238" d="M8.979 20.142l0.514 5.867h1.33c0 0 0.132-3.584 0.216-5.911 0.005-0.138-0.018-0.276-0.068-0.406s-0.125-0.247-0.222-0.347c-0.097-0.099-0.213-0.178-0.341-0.232s-0.266-0.081-0.405-0.080c-0.142 0-0.283 0.030-0.413 0.087s-0.247 0.14-0.343 0.244c-0.096 0.104-0.17 0.227-0.216 0.361s-0.064 0.276-0.052 0.417z"></path>
<path fill="#fff" d="M26.756 10.155v-2.731c0-0.132-0.053-0.259-0.146-0.352s-0.221-0.146-0.353-0.146h-4.303c-0.133 0-0.26 0.052-0.354 0.146s-0.146 0.22-0.146 0.352v2.731c0 0.132 0.053 0.259 0.146 0.352s0.221 0.146 0.354 0.146h1.498l-0.118 1.039h0.771v0.98l0.915-1.6h-0.751l0.079-0.42h1.908c0.132 0 0.26-0.052 0.353-0.146s0.146-0.22 0.147-0.352z"></path>
<path fill="#e8e8e8" d="M30.042 21.848l2.599 0.863-0.645 0.642 1.203 1.198-2.599-0.863 0.645-0.642-1.203-1.198z"></path>
<path fill="#e8e8e8" d="M18.166 21.848l-2.599 0.863 0.645 0.642-1.203 1.198 2.599-0.863-0.645-0.642 1.203-1.198z"></path>
<path fill="#e8e8e8" d="M24.031 2.057l-1.226 2.441h0.913v1.695l1.225-2.441h-0.912v-1.695z"></path>
</svg>
