<!-- Generated by IcoMoon.io -->
<svg version="1.1" xmlns="http://www.w3.org/2000/svg" id="read" viewBox="0 0 48 32">
<title>House-bookshelves-bro-1</title>
<path fill="#fff" d="M38.090 19.824c0 0-0.302 0.192-0.473-0.028s0.116-0.625-0.137-0.798c-0.253-0.173-0.691 0.091-0.691 0.091s0.337 0.099 0.326 0.282c-0.011 0.184-0.173 0.256-0.192 0.173s-0.183-0.484-0.457-0.316c-0.079 0.047-0.147 0.109-0.201 0.182s-0.093 0.158-0.114 0.247c0 0 0.637-0.068 0.675 0.172s-0.261-0.042-0.524-0.057c-0.263-0.015-0.503 0.023-0.486 0.182 0.006 0.14-0.002 0.281-0.025 0.42 0.144-0.12 0.326-0.184 0.513-0.18 0.289 0.017 0.278 0.2 0.016 0.185s-0.489 0.234-0.489 0.234 0.24 0.409 0.544 0.611c0.305 0.202 0.414 0.128 0.449-0.026s-0.046-0.556 0.138-0.545c0.184 0.011-0.304 0.693-0.070 0.733s0.424-0.028 0.486-0.182l0.064-0.154c0 0-0.082-0.399-0.046-0.555s0.079 0.004 0.12 0.192c0.042 0.188 0.068 0.636 0.148 0.614s0.337-0.349 0.398-0.477-0.339-0.52-0.334-0.599c0.004-0.079 0.312 0.071 0.36 0.153 0.035 0.062 0.066 0.126 0.094 0.192 0 0 0.192-0.12 0.187-0.489s-0.28-0.256-0.28-0.256z"></path>
<path fill="#263238" opacity="0.3" d="M38.090 19.824c0 0-0.302 0.192-0.473-0.028s0.116-0.625-0.137-0.798c-0.253-0.173-0.691 0.091-0.691 0.091s0.337 0.099 0.326 0.282c-0.011 0.184-0.173 0.256-0.192 0.173s-0.183-0.484-0.457-0.316c-0.079 0.047-0.147 0.109-0.201 0.182s-0.093 0.158-0.114 0.247c0 0 0.637-0.068 0.675 0.172s-0.261-0.042-0.524-0.057c-0.263-0.015-0.503 0.023-0.486 0.182 0.006 0.14-0.002 0.281-0.025 0.42 0.144-0.12 0.326-0.184 0.513-0.18 0.289 0.017 0.278 0.2 0.016 0.185s-0.489 0.234-0.489 0.234 0.24 0.409 0.544 0.611c0.305 0.202 0.414 0.128 0.449-0.026s-0.046-0.556 0.138-0.545c0.184 0.011-0.304 0.693-0.070 0.733s0.424-0.028 0.486-0.182l0.064-0.154c0 0-0.082-0.399-0.046-0.555s0.079 0.004 0.12 0.192c0.042 0.188 0.068 0.636 0.148 0.614s0.337-0.349 0.398-0.477-0.339-0.52-0.334-0.599c0.004-0.079 0.312 0.071 0.36 0.153 0.035 0.062 0.066 0.126 0.094 0.192 0 0 0.192-0.12 0.187-0.489s-0.28-0.256-0.28-0.256z"></path>
<path fill="#fff" d="M39.164 19.046c0 0-0.012 0.433-0.351 0.454s-0.548-0.541-0.894-0.406c-0.346 0.135-0.38 0.753-0.38 0.753s0.328-0.269 0.505-0.133c0.177 0.136 0.136 0.346 0.041 0.312s-0.611-0.148-0.628 0.24c-0.007 0.11 0.008 0.221 0.045 0.326s0.095 0.2 0.17 0.282c0 0 0.366-0.682 0.633-0.558s-0.22 0.232-0.415 0.485c-0.195 0.252-0.321 0.518-0.148 0.609 0.145 0.090 0.28 0.194 0.404 0.311 0 0-0.046-0.357 0.168-0.634s0.391-0.141 0.196 0.111c-0.194 0.252-0.098 0.648-0.098 0.648s0.574 0.040 0.984-0.128c0.41-0.168 0.413-0.326 0.281-0.468s-0.589-0.332-0.453-0.509c0.136-0.177 0.488 0.777 0.688 0.569s0.26-0.442 0.148-0.609l-0.113-0.167c0 0-0.457-0.192-0.589-0.332s0.058-0.076 0.275 0.010c0.216 0.086 0.684 0.365 0.717 0.271s-0.12-0.576-0.207-0.722-0.753-0.017-0.829-0.075c-0.076-0.058 0.284-0.264 0.399-0.256s0.257 0.035 0.257 0.035c0 0 0.010-0.273-0.363-0.52s-0.443 0.104-0.443 0.104z"></path>
<path fill="#263238" opacity="0.2" d="M39.164 19.046c0 0-0.012 0.433-0.351 0.454s-0.548-0.541-0.894-0.406c-0.346 0.135-0.38 0.753-0.38 0.753s0.328-0.269 0.505-0.133c0.177 0.136 0.136 0.346 0.041 0.312s-0.611-0.148-0.628 0.24c-0.007 0.11 0.008 0.221 0.045 0.326s0.095 0.2 0.17 0.282c0 0 0.366-0.682 0.633-0.558s-0.22 0.232-0.415 0.485c-0.195 0.252-0.321 0.518-0.148 0.609 0.145 0.090 0.28 0.194 0.404 0.311 0 0-0.046-0.357 0.168-0.634s0.391-0.141 0.196 0.111c-0.194 0.252-0.098 0.648-0.098 0.648s0.574 0.040 0.984-0.128c0.41-0.168 0.413-0.326 0.281-0.468s-0.589-0.332-0.453-0.509c0.136-0.177 0.488 0.777 0.688 0.569s0.26-0.442 0.148-0.609l-0.113-0.167c0 0-0.457-0.192-0.589-0.332s0.058-0.076 0.275 0.010c0.216 0.086 0.684 0.365 0.717 0.271s-0.12-0.576-0.207-0.722-0.753-0.017-0.829-0.075c-0.076-0.058 0.284-0.264 0.399-0.256s0.257 0.035 0.257 0.035c0 0 0.010-0.273-0.363-0.52s-0.443 0.104-0.443 0.104z"></path>
<path fill="#fff" d="M37.655 21.626c0 0-0.055 0.498-0.449 0.491s-0.581-0.677-0.993-0.554-0.51 0.832-0.51 0.832c0 0 0.405-0.28 0.597-0.106s0.124 0.412 0.017 0.364c-0.107-0.047-0.69-0.228-0.747 0.218-0.019 0.127-0.011 0.256 0.022 0.38s0.091 0.24 0.17 0.341c0 0 0.487-0.753 0.783-0.585s-0.276 0.248-0.525 0.52c-0.249 0.273-0.418 0.568-0.229 0.689 0.159 0.117 0.306 0.25 0.437 0.397 0 0-0.020-0.417 0.257-0.716s0.464-0.128 0.216 0.146c-0.248 0.274-0.174 0.738-0.174 0.738s0.659 0.1 1.148-0.054c0.489-0.153 0.507-0.337 0.367-0.512s-0.648-0.439-0.474-0.63c0.174-0.191 0.489 0.942 0.74 0.722s0.342-0.486 0.228-0.689l-0.12-0.204c0 0-0.509-0.263-0.648-0.439s0.074-0.082 0.316 0.037 0.755 0.487 0.802 0.38c0.047-0.107-0.085-0.674-0.169-0.852s-0.867-0.090-0.949-0.164c-0.082-0.074 0.353-0.278 0.485-0.256 0.098 0.016 0.195 0.038 0.291 0.064 0 0 0.037-0.315-0.37-0.635s-0.519 0.076-0.519 0.076z"></path>
<path fill="#263238" opacity="0.3" d="M37.655 21.626c0 0-0.055 0.498-0.449 0.491s-0.581-0.677-0.993-0.554-0.51 0.832-0.51 0.832c0 0 0.405-0.28 0.597-0.106s0.124 0.412 0.017 0.364c-0.107-0.047-0.69-0.228-0.747 0.218-0.019 0.127-0.011 0.256 0.022 0.38s0.091 0.24 0.17 0.341c0 0 0.487-0.753 0.783-0.585s-0.276 0.248-0.525 0.52c-0.249 0.273-0.418 0.568-0.229 0.689 0.159 0.117 0.306 0.25 0.437 0.397 0 0-0.020-0.417 0.257-0.716s0.464-0.128 0.216 0.146c-0.248 0.274-0.174 0.738-0.174 0.738s0.659 0.1 1.148-0.054c0.489-0.153 0.507-0.337 0.367-0.512s-0.648-0.439-0.474-0.63c0.174-0.191 0.489 0.942 0.74 0.722s0.342-0.486 0.228-0.689l-0.12-0.204c0 0-0.509-0.263-0.648-0.439s0.074-0.082 0.316 0.037 0.755 0.487 0.802 0.38c0.047-0.107-0.085-0.674-0.169-0.852s-0.867-0.090-0.949-0.164c-0.082-0.074 0.353-0.278 0.485-0.256 0.098 0.016 0.195 0.038 0.291 0.064 0 0 0.037-0.315-0.37-0.635s-0.519 0.076-0.519 0.076z"></path>
<path fill="#fff" d="M38.333 24.605c-0.2-0.223-0.623-0.223-0.872 0.349s-0.025 0.472-0.025 0.472c0 0 0.473-0.149 0.77-0.249s0.698-0.348 0.723-0.199-0.2 0.298-0.474 0.348c-0.274 0.050-0.997 0.248-0.922 0.398s0.25 0.597 0.25 0.597c0.213-0.18 0.438-0.346 0.673-0.497 0.325-0.199 0.524-0.124 0.35 0.099s-0.673 0.473-0.573 0.771c0.1 0.298 0.7 0.672 0.7 0.672s0.074-0.622 0.249-0.821c0.175-0.199 0.174 0.025 0.125 0.373-0.025 0.148-0.042 0.298-0.050 0.448l0.698 0.248c0.114-0.173 0.239-0.34 0.374-0.497l0.128-0.124c0 0-0.548-0.473-0.573-0.768s0.374 0 0.498 0.050c0.124 0.050 0.324 0.397 0.324 0.397s0.125-0.572 0.15-0.768l0.025-0.199c0 0-0.524-0.199-0.724-0.199s-0.299 0.149-0.299-0.050c0-0.199 0.2-0.323 0.424-0.298 0.203 0.033 0.403 0.083 0.598 0.149 0 0 0.149-0.125 0.099-0.498s-0.174-0.373-0.473-0.273c-0.299 0.1-0.499 0.32-0.723 0.32s-0.099-0.273 0.050-0.348c0.149-0.075 0.523-0.224 0.598-0.249s-0.399-0.373-0.648-0.423c-0.249-0.049-0.572 0.128-0.548 0.373 0.047 0.52-0.7 0.622-0.9 0.395z"></path>
<path fill="#fff" d="M40.726 22.464c-0.271-0.16-0.572-0.164-0.719-0.333s0.142-0.256 0.296-0.192c0.155 0.064 0.513 0.248 0.58 0.288s0.021-0.545-0.105-0.768c-0.126-0.223-0.47-0.349-0.641-0.169-0.362 0.38-0.928-0.118-0.889-0.415s-0.239-0.616-0.834-0.429c-0.595 0.188-0.374 0.29-0.374 0.29s0.423 0.259 0.695 0.42c0.272 0.161 0.721 0.298 0.624 0.414s-0.356 0.045-0.574-0.128-0.841-0.588-0.906-0.434c-0.064 0.154-0.289 0.576-0.289 0.576 0.276 0.042 0.55 0.103 0.818 0.181 0.363 0.113 0.437 0.312 0.154 0.328s-0.799-0.197-0.962 0.074c-0.163 0.271-0.051 0.967-0.051 0.967s0.52-0.351 0.784-0.35c0.265 0.001 0.096 0.148-0.201 0.339-0.128 0.078-0.252 0.164-0.371 0.256l0.269 0.689c0.206-0.028 0.414-0.043 0.621-0.044l0.176 0.012c0 0 0-0.723 0.208-0.938s0.245 0.281 0.289 0.408-0.088 0.505-0.088 0.505c0 0 0.513-0.281 0.681-0.392l0.168-0.112c0 0-0.192-0.525-0.321-0.675s-0.308-0.128-0.158-0.256 0.376-0.064 0.504 0.124c0.107 0.175 0.201 0.359 0.279 0.548 0 0 0.192 0.031 0.442-0.251s0.166-0.373-0.106-0.533zM38.367 23.26c-0.199-0.099 0.274-0.298 0.274-0.298 0.175-0.026-0.074 0.398-0.273 0.297l-0.001 0.001zM38.702 22.332c-0.085-0.042 0.17-0.128 0.17-0.128 0.369 0.068-0.084 0.17-0.169 0.127l-0.001 0.001z"></path>
<path fill="#fff" d="M36.853 25.91c-0.218-0.128-0.46-0.132-0.577-0.268s0.114-0.205 0.238-0.153c0.125 0.052 0.413 0.199 0.468 0.231s0.017-0.438-0.085-0.616-0.378-0.281-0.513-0.136c-0.292 0.305-0.747-0.095-0.716-0.335s-0.192-0.496-0.673-0.345-0.301 0.234-0.301 0.234c0 0 0.341 0.209 0.559 0.337s0.577 0.239 0.502 0.333c-0.075 0.094-0.287 0.036-0.462-0.104s-0.677-0.474-0.729-0.35-0.232 0.467-0.232 0.467c0.222 0.034 0.442 0.082 0.658 0.145 0.292 0.092 0.352 0.252 0.123 0.264s-0.641-0.159-0.77 0.059c-0.128 0.217-0.040 0.778-0.040 0.778s0.418-0.282 0.631-0.282c0.213 0.001 0.077 0.119-0.161 0.273-0.104 0.063-0.204 0.131-0.3 0.205l0.217 0.555c0.166-0.022 0.333-0.034 0.5-0.036l0.142 0.010c0 0 0-0.583 0.167-0.755s0.197 0.226 0.232 0.328c0.035 0.102-0.071 0.406-0.071 0.406s0.414-0.226 0.548-0.316l0.135-0.089c0 0-0.155-0.423-0.26-0.543s-0.249-0.103-0.128-0.208 0.302-0.049 0.405 0.1c0.087 0.141 0.162 0.289 0.225 0.442 0 0 0.155 0.025 0.355-0.202s0.128-0.303-0.089-0.431zM34.955 26.55c-0.16-0.080 0.221-0.24 0.221-0.24 0.14-0.020-0.060 0.321-0.221 0.241l0.001-0.001zM35.225 25.802c-0.069-0.034 0.137-0.102 0.137-0.102 0.298 0.058-0.069 0.138-0.137 0.103v-0.001z"></path>
<path fill="#fff" d="M35.963 21.802c0 0-0.275 0.199-0.449 0s0.075-0.597-0.175-0.746-0.648 0.124-0.648 0.124c0 0 0.324 0.075 0.324 0.249s-0.149 0.248-0.174 0.174c-0.025-0.074-0.199-0.448-0.449-0.274-0.072 0.048-0.133 0.111-0.18 0.183s-0.079 0.154-0.094 0.239c0 0 0.598-0.1 0.648 0.124s-0.249-0.025-0.498-0.025-0.474 0.050-0.449 0.199c0.014 0.132 0.014 0.266 0 0.398 0.129-0.121 0.297-0.191 0.474-0.199 0.274 0 0.274 0.174 0.025 0.174s-0.449 0.249-0.449 0.249 0.249 0.373 0.548 0.547c0.299 0.174 0.399 0.1 0.424-0.050s-0.075-0.522 0.099-0.522-0.249 0.672-0.025 0.696c0.224 0.024 0.399-0.049 0.449-0.199l0.050-0.149c0 0-0.1-0.373-0.075-0.522s0.075 0 0.125 0.174c0.049 0.174 0.1 0.597 0.174 0.572s0.299-0.348 0.349-0.472c0.050-0.124-0.349-0.473-0.349-0.547s0.299 0.049 0.349 0.124c0.036 0.056 0.069 0.114 0.099 0.174 0 0 0.174-0.124 0.149-0.473s-0.273-0.223-0.273-0.223z"></path>
<path fill="#fff" d="M20.908 3.385c-0.157-0.121-0.684-0.1-0.786 0.152s0.221 0.662 0.529 0.633c0.121-0.012 0.174-0.020 0.221-0.088l-0.433-0.422 0.469 0.376c0.013-0.024 0.024-0.050 0.032-0.077 0.005-0.019 0.010-0.039 0.014-0.060 0.033-0.15 0.102-0.401-0.047-0.514z"></path>
<path fill="#fff" d="M21.929 3.093v0.009c-0.042 0.188-0.257 0.294-0.438 0.278-0.025-0.002-0.050-0.007-0.074-0.013-0.042 0.067-0.069 0.143-0.077 0.222s0.002 0.159 0.031 0.233c0.008 0.021 0.018 0.041 0.030 0.060 0.053-0.044 0.623-0.529 0.623-0.529l-0.591 0.568c0.178 0.192 0.597 0.164 0.742-0.188s-0.040-0.589-0.245-0.639z"></path>
<path fill="#fff" d="M21.639 2.437c-0.307-0.064-0.581 0.072-0.577 0.391 0.002 0.070 0.018 0.14 0.047 0.204s0.072 0.121 0.125 0.168l0.316-0.43-0.266 0.469c0.060 0.040 0.128 0.065 0.2 0.072 0.181 0.015 0.396-0.091 0.438-0.278 0.044-0.209 0.023-0.528-0.284-0.595z"></path>
<path fill="#fff" d="M21.281 1.327c0 0-0.031 0.010-0.228 0.105-0.115 0.063-0.2 0.169-0.237 0.295s-0.022 0.261 0.041 0.376c0.054 0.107 0.148 0.19 0.262 0.229l0.079-0.761-0.033 0.771c0.015 0.002 0.030 0.002 0.045 0 0.128-0.013 0.329-0.165 0.348-0.477s-0.277-0.538-0.277-0.538z"></path>
<path fill="#fff" d="M20.385 2.019l0.592 0.472c0.006-0.021 0.008-0.042 0.006-0.064-0.028-0.27-0.298-0.427-0.476-0.483s-0.302 0.044-0.187 0.303c0.115 0.259 0.416 0.384 0.55 0.345 0.032-0.008 0.061-0.025 0.082-0.050l-0.566-0.523z"></path>
<path fill="#fff" d="M20.792 2.624c-0.091-0.007-0.179-0.034-0.258-0.079s-0.146-0.108-0.197-0.183c-0.063-0.006-0.126 0.013-0.175 0.052s-0.081 0.097-0.088 0.159c-0.060 0.282 0.144 0.576 0.438 0.54 0.092-0.005 0.18-0.042 0.247-0.106l-0.526-0.479 0.563 0.428c0.011-0.020 0.018-0.042 0.020-0.064 0.018-0.090 0.009-0.184-0.025-0.269z"></path>
<path fill="#fff" d="M20.789 4.19c-0.048 0.020-0.099 0.033-0.151 0.036-0.192 0.018-0.389-0.132-0.486-0.309-0.057 0.004-0.112 0.027-0.154 0.065s-0.071 0.090-0.081 0.146c-0.058 0.33 0.248 0.764 0.557 0.695 0.081-0.016 0.155-0.053 0.215-0.109l-0.675-0.648 0.714 0.605c0.041-0.052 0.067-0.114 0.076-0.18 0.034-0.099 0.029-0.207-0.015-0.302z"></path>
<path fill="#fff" d="M22.147 4.864c-0.227-0.262-0.497-0.028-0.497-0.028s-0.166 0.054-0.228 0.289c-0.019 0.071-0.016 0.146 0.008 0.216l0.682-0.397-0.666 0.434c0.064 0.118 0.198 0.192 0.385 0.138 0.299-0.082 0.542-0.387 0.316-0.652z"></path>
<path fill="#fff" d="M26.878 11.601h0.569l-0.5 0.209 1.258 2.971h-1.326v-3.18z"></path>
<path fill="#fff" d="M26.878 19.206h0.569l-0.5 0.208 1.258 2.972h-1.326v-3.18z"></path>
<path fill="#263238" d="M8.069 21.272c0 0-0.385-5.12-0.192-5.696s1.379-0.544 1.603-0.544c0.225 0 4.906 0 5.58 0.32s0.77 8.192 0.77 8.192h-7.44l-0.321-2.272z"></path>
<path fill="#263238" d="M16.085 20.856c0 0-0.77 0-0.924 0.768s0.452 3.936 0.497 4.832c0.045 0.896 0.203 2.144 0.203 2.144h2.726l0.609-7.744h-3.111z"></path>
<path fill="#636363" d="M19.196 20.856c0 0-0.77 0-0.962 0.768s0.257 3.936 0.257 4.832c0 0.896 0.096 2.144 0.096 2.144h0.962c0 0 0.096-2.304 0.096-2.624s0.385-3.648 0.192-4.32c-0.192-0.672-0.353-0.736-0.641-0.8z"></path>
<path fill="#fff" d="M11.067 15.368c0 0-2.549 1.040-2.549 1.152s0.866 3.12 1.187 3.584c0.321 0.464 0.545 0.976 0.641 1.168s0.513 0.672 0.85 0.672c0.337 0 0.738-0.4 1.812-0.56s2.036-0.144 2.229-0.288c0.192-0.144-0.048-0.528-0.080-0.608s-0.16-0.368-0.16-0.368 1.042 0.864 1.459 0.896c0.417 0.032 0.722-0.176 0.786-0.448s-0.176-0.928-0.337-1.28-0.914-0.912-1.251-1.344c-0.337-0.432-0.77-0.944-1.074-1.296-0.265-0.31-0.593-0.561-0.962-0.736-0.289-0.128-1.026-0.448-1.491-0.496s-1.058-0.048-1.058-0.048z"></path>
<path fill="#fff" d="M10.906 14.696l0.080 0.96 1.7 1.664 0.257-1.184 0.112-0.496c0 0-1.106-0.192-1.459-0.432s-0.689-0.512-0.689-0.512z"></path>
<path fill="#263238" d="M13.055 15.64c0 0-1.106-0.192-1.459-0.432s-0.689-0.512-0.689-0.512l0.080 0.96 0.43 0.42c0.334 0.094 0.667 0.14 0.893 0.052 0.251-0.091 0.491-0.21 0.716-0.355l0.030-0.134z"></path>
<path fill="#263238" d="M10.399 13.955c0 0-0.3-1.366-0.3-1.6s0.813-1.43 1.924-1.238c1.111 0.192 1.732 0.832 1.775 1.024s-0.128 0.576-0.128 0.576c0.034 0.111 0.055 0.226 0.064 0.342 0 0.128-0.192 0.682-0.192 0.682l-0.064-0.576c0 0-0.534 0.15-0.834 0.15s-0.813-0.192-0.813-0.192c0 0 0.107 0.341 0 0.512s-0.427 0.32-0.427 0.32c0 0-0.043 0.341-0.171 0.341-0.158-0.008-0.316-0.029-0.47-0.064-0.086-0.021-0.364-0.277-0.364-0.277z"></path>
<path fill="#fff" d="M10.89 14.104c0 0-0.043-0.512-0.471-0.384s-0.149 0.597 0.086 0.832c0.235 0.235 0.299 0.064 0.299 0.064s0.064 0.491 0.385 0.768c0.321 0.277 0.813 0.789 1.326 0.725s0.877-0.704 0.941-1.173c0.064-0.469 0.106-1.579 0.106-1.707-0.015-0.144-0.044-0.287-0.085-0.426 0 0-0.449 0.32-0.855 0.234s-0.834-0.256-1.026-0.256c-0.192 0-0.15 0.278-0.086 0.363s0.235 0.256 0.043 0.363c-0.192 0.107-0.449 0.213-0.449 0.213v0.448l-0.214-0.064z"></path>
<path fill="#263238" d="M12.491 14.969c0 0-0.257 0-0.398 0.012-0.085 0.014-0.171 0.018-0.257 0.012-0.058-0.012-0.128-0.058-0.012 0.058s0.468 0.256 0.655 0.28c0.187 0.024 0.316-0.035 0.456-0.128s0.257-0.187 0.187-0.21c-0.097-0.017-0.194-0.025-0.292-0.024v0.059l-0.341-0.060z"></path>
<path fill="#fff" d="M13.969 17.384l0.112-0.288c0 0 0.144 0.144 0.529 0.144s1.010 0.272 1.010 0.272l0.048 0.080c0 0 0.112-0.336 0.321-0.4s0.545-0.288 0.593-0.352l0.048-0.064 0.224 0.192-0.994 1.312-1.86-0.72-0.032-0.176z"></path>
<path fill="#fff" d="M11.917 19.352l0.727-0.299c0 0 0.641-0.682 0.706-0.746s0.706-0.128 0.706-0.128l0.706 0.469c0 0 0.128 0.107 0 0.149s-0.406-0.085-0.406-0.085l-0.278-0.171-0.171 0.086 0.363 0.298c0 0 0.107 0.278 0.107 0.427-0.002 0.096-0.024 0.19-0.064 0.277l-0.214 0.299-0.641-0.32c0 0-0.385 0.277-0.471 0.32s-0.898-0.021-0.898-0.021l-0.171-0.555z"></path>
<path fill="#fff" d="M8.966 16.216c0 0-0.471 0.064-0.535 0.469s-0.491 3.819-0.363 4.203c0.128 0.384 2.501-0.277 2.587-0.32s1.432-0.448 1.454-0.533 0.064-0.79-0.128-0.832c-0.192-0.042-2.031 0.021-2.031 0.021l-0.257-2.219z"></path>
<path fill="#fff" d="M16.566 18.024c0 0-0.433 0.448-0.417 0.56s0.241-0.064 0.289-0.112c0.048-0.048 0.273-0.176 0.273-0.304s-0.048-0.272-0.144-0.144z"></path>
<path fill="#fff" d="M16.615 18.296c0 0 0.128 0.128 0.128 0.24s-0.273 0.48-0.401 0.48c-0.128 0-0.032-0.256 0.032-0.368s0.241-0.352 0.241-0.352z"></path>
<path fill="#fff" d="M16.743 18.536c0 0 0.16 0.048 0.16 0.192s-0.305 0.384-0.385 0.4c-0.080 0.016-0.064-0.128 0-0.24s0.224-0.352 0.224-0.352z"></path>
<path fill="#fff" d="M16.903 18.728c0.033 0.081 0.044 0.169 0.032 0.256-0.016 0.16-0.257 0.256-0.337 0.256s-0.080-0.112-0.080-0.112c0.136-0.126 0.264-0.26 0.385-0.4z"></path>
<path fill="#fff" d="M11.86 30.232h-0.305l-0.152-2.016h0.609l-0.153 2.016z"></path>
<path fill="#fff" d="M9.070 30.232h-0.305l-0.152-2.016h0.609l-0.153 2.016z"></path>
<path fill="#fff" d="M19.14 30.232h-0.305l-0.152-2.016h0.609l-0.153 2.016z"></path>
<path fill="#fff" d="M16.35 30.232h-0.305l-0.152-2.016h0.609l-0.153 2.016z"></path>
<path fill="#263238" d="M18.715 24.359h-7.279v4.224h7.279v-4.224z"></path>
<path fill="#fff" d="M23.995 23.683c0 0 0.77-0.32 0.941-0.448s0.406 0.149 0.299 0.448c-0.107 0.299-0.385 0.832-0.812 1.088s-0.77 0.469-0.855 0.554c-0.086 0.085-0.064 0.406-0.427 0.534s-0.813-0.128-1.069-0.534c-0.256-0.406-0.428-0.682-0.428-0.682s0.022-0.299 0.449-0.448c0.427-0.149 1.154-0.214 1.154-0.214l0.748-0.298z"></path>
<path fill="#fff" d="M15.236 21.096c0 0 0.507-0.123 0.636-0.059s0.556 0.47 0.556 0.47c0 0 2.587 0.042 2.779 0.128s2.181 1.6 2.608 1.813c0.428 0.213 0.791 0.405 0.791 0.405l-0.321 1.408v0.128l0.022 0.214c0 0-1.112-0.342-1.39-0.406s-1.432-0.661-1.539-0.661-0.983-0.256-0.983-0.256c0 0-0.128-0.085-1.518-0.213s-2.95-0.278-3.506-0.299c-0.556-0.021-1.283-0.064-1.56-0.171s-0.77-0.853-0.855-1.301c-0.085-0.448 0.812-0.832 1.197-1.003s1.818-0.384 2.074-0.384c0.257 0 1.010 0.187 1.010 0.187z"></path>
<path fill="#fff" d="M15.722 21.72l-0.428 0.619 0.577-0.384z"></path>
<path fill="#fff" d="M22.285 23.576c0 0 0.62-0.491 0.748-0.64s0.556-0.96 0.641-1.216c0.085-0.256 0.299-0.384 0.449-0.192s0.257 0.576 0.342 0.747c0.085 0.171-0.042 1.002-0.299 1.28s-0.611 0.95-0.684 1.088c-0.192 0.362-0.492 0.405-0.684 0.426s-0.662-0.49-0.662-0.49l0.149-1.003z"></path>
<path fill="#fff" d="M12.772 22.147c0 0 0.641-0.128 1.219-0.064s1.753 0.426 2.245 0.554c0.492 0.128 1.368 0.192 1.775 0.342s1.475 0.341 2.287 0.341 2.052 0.107 2.052 0.107c0 0-0.171 1.237-0.128 1.472 0.042 0.189 0.099 0.374 0.171 0.554 0 0-1.646 0.128-2.116 0.192s-2.373-0.234-2.694-0.32c-0.321-0.086-0.791-0.213-1.090-0.213s-0.877 0.128-1.71 0.213c-0.834 0.085-2.009-0.277-2.159-0.298s-0.684-0.214-0.813-0.299-0.877-1.408-0.62-1.963c0.257-0.555 0.577-0.64 0.577-0.64z"></path>
<path fill="#fff" d="M16.704 24.299c0.412 0.082 0.849 0.332 1.44 0.563 0.788 0.308 2.366 0.28 2.569 0.308s0.72 0 0.72 0z"></path>
<path fill="#fff" d="M13.525 24.589l0.235 0.034c0.685 0.103 1.988-0.273 2.535-0.342z"></path>
<path fill="#fff" d="M12.835 24.52c0 0 0.123 0 0.444 0.038l-0.444-0.038z"></path>
<path fill="#263238" d="M8.677 20.856c0 0-0.77 0-0.924 0.768s0.449 3.936 0.497 4.832c0.048 0.896 0.203 2.144 0.203 2.144h2.726l0.609-7.744h-3.111z"></path>
<path fill="#636363" d="M11.788 20.856c0 0-0.77 0-0.962 0.768s0.257 3.936 0.257 4.832c0 0.896 0.096 2.144 0.096 2.144h0.962c0 0 0.096-2.304 0.096-2.624s0.385-3.648 0.192-4.32c-0.192-0.672-0.353-0.736-0.641-0.8z"></path>
<path fill="#fff" d="M18.049 30.232h-0.305l-0.152-2.016h0.609l-0.153 2.016z"></path>
<path fill="#fff" d="M20.647 30.232h-0.305l-0.152-2.016h0.609l-0.153 2.016z"></path>
<path fill="#fff" d="M21.866 30.232h-0.305l-0.152-2.016h0.609l-0.152 2.016z"></path>
<path fill="#fff" d="M24.431 30.232h-0.305l-0.152-2.016h0.609l-0.153 2.016z"></path>
<path fill="#263238" d="M17.673 25.592h6.699c0.123 0 0.242 0.049 0.329 0.136s0.136 0.205 0.136 0.328v3.28h-7.632v-3.28c-0-0.061 0.012-0.122 0.036-0.178s0.058-0.108 0.102-0.151c0.044-0.043 0.095-0.077 0.152-0.1s0.118-0.035 0.179-0.034z"></path>
<path fill="#636363" d="M24.375 25.592h-2.437c-0.123 0-0.242 0.049-0.329 0.136s-0.136 0.205-0.136 0.328v3.28h3.367v-3.28c-0-0.123-0.049-0.241-0.137-0.328s-0.205-0.136-0.329-0.136z"></path>
</svg>
