<!-- Generated by IcoMoon.io -->
<svg version="1.1" xmlns="http://www.w3.org/2000/svg" id="write" viewBox="0 0 32 32">
<title>Typewriter-bro-1</title>
<path fill="#fff" d="M23.867 5.736h-15.958c-0.311 0-0.563 0.252-0.563 0.563v14.376c0 0.311 0.252 0.563 0.563 0.563h15.958c0.311 0 0.563-0.252 0.563-0.563v-14.376c0-0.311-0.252-0.563-0.563-0.563z"></path>
<path fill="#000" opacity="0.2" d="M24.43 14.227v6.464c0 0.145-0.057 0.283-0.16 0.386s-0.241 0.16-0.386 0.16h-15.992c-0.145 0-0.284-0.057-0.386-0.16s-0.16-0.241-0.16-0.386v-1.28h0.034v0.863c0 0.082 0.016 0.163 0.048 0.239s0.077 0.145 0.135 0.203c0.058 0.058 0.127 0.104 0.203 0.135s0.157 0.048 0.239 0.047h15.449c0.082 0 0.163-0.016 0.239-0.047s0.145-0.077 0.203-0.135c0.058-0.058 0.104-0.127 0.135-0.203s0.048-0.157 0.048-0.239v-5.088c0-0.115-0.046-0.226-0.127-0.307s-0.192-0.127-0.307-0.127h-16.298v-0.524h17.083z"></path>
<path fill="#263238" d="M22.943 16.067v-0.74c0-0.036-0.007-0.072-0.021-0.105s-0.034-0.063-0.059-0.089-0.056-0.046-0.089-0.059c-0.033-0.014-0.069-0.021-0.105-0.021h-13.56c-0.073 0-0.142 0.029-0.194 0.080s-0.080 0.121-0.080 0.194v0.74c0 0.073-0.029 0.142-0.080 0.194s-0.121 0.080-0.194 0.080c-0.073 0-0.143 0.029-0.194 0.080s-0.080 0.121-0.080 0.194v1.461c0 0.337 0.134 0.66 0.372 0.898s0.561 0.372 0.898 0.372c0.054 0 0.106 0.022 0.144 0.060s0.060 0.090 0.060 0.144v0.438c0 0.162 0.064 0.317 0.178 0.431s0.269 0.178 0.431 0.178h11.037c0.162 0 0.317-0.064 0.431-0.178s0.178-0.269 0.178-0.431v-0.438c0-0.054 0.021-0.106 0.060-0.144s0.090-0.060 0.144-0.060c0.167 0 0.332-0.033 0.486-0.097s0.294-0.157 0.412-0.275 0.211-0.258 0.275-0.412c0.064-0.154 0.097-0.319 0.097-0.486v-1.461c0-0.073-0.029-0.142-0.080-0.194s-0.121-0.080-0.194-0.081c-0.073 0-0.142-0.029-0.194-0.080s-0.080-0.121-0.081-0.194z"></path>
<path fill="#fff" d="M9.873 15.472h-0.474c-0.058 0-0.114 0.023-0.155 0.064s-0.064 0.097-0.064 0.155v0.122c0 0.252 0.204 0.572 0.456 0.572s0.456-0.32 0.456-0.572v-0.122c-0-0.058-0.023-0.114-0.065-0.155s-0.097-0.064-0.155-0.064z"></path>
<path fill="#fff" d="M11.008 15.472h-0.474c-0.058 0-0.114 0.023-0.155 0.064s-0.064 0.097-0.065 0.155v0.122c0 0.252 0.204 0.572 0.456 0.572s0.456-0.32 0.456-0.572v-0.122c0-0.058-0.023-0.114-0.064-0.155s-0.097-0.064-0.155-0.064z"></path>
<path fill="#fff" d="M12.147 15.472h-0.474c-0.058 0-0.114 0.023-0.155 0.064s-0.064 0.097-0.064 0.155v0.122c0 0.252 0.204 0.572 0.456 0.572s0.456-0.32 0.456-0.572v-0.122c0-0.058-0.023-0.114-0.064-0.155s-0.097-0.064-0.155-0.064z"></path>
<path fill="#fff" d="M13.284 15.472h-0.474c-0.058 0-0.114 0.023-0.155 0.064s-0.064 0.097-0.064 0.155v0.122c0 0.252 0.204 0.572 0.456 0.572s0.456-0.32 0.456-0.572v-0.122c0-0.029-0.006-0.057-0.017-0.084s-0.027-0.051-0.047-0.071c-0.020-0.020-0.044-0.036-0.071-0.047s-0.055-0.017-0.084-0.017z"></path>
<path fill="#fff" d="M14.42 15.472h-0.474c-0.058 0-0.114 0.023-0.155 0.064s-0.064 0.097-0.064 0.155v0.122c0 0.252 0.204 0.572 0.456 0.572s0.456-0.32 0.456-0.572v-0.122c-0-0.058-0.023-0.114-0.065-0.155s-0.097-0.064-0.155-0.064z"></path>
<path fill="#fff" d="M15.558 15.472h-0.474c-0.058 0-0.114 0.023-0.155 0.064s-0.064 0.097-0.065 0.155v0.122c0 0.252 0.204 0.572 0.456 0.572s0.456-0.32 0.456-0.572v-0.122c0-0.058-0.023-0.114-0.064-0.155s-0.097-0.064-0.155-0.064z"></path>
<path fill="#fff" d="M16.694 15.472h-0.474c-0.058 0-0.114 0.023-0.155 0.064s-0.064 0.097-0.064 0.155v0.122c0 0.252 0.204 0.572 0.456 0.572s0.456-0.32 0.456-0.572v-0.122c0-0.058-0.023-0.114-0.064-0.155s-0.097-0.064-0.155-0.064z"></path>
<path fill="#fff" d="M17.831 15.472h-0.474c-0.058 0-0.114 0.023-0.155 0.064s-0.064 0.097-0.064 0.155v0.122c0 0.252 0.204 0.572 0.456 0.572s0.456-0.32 0.456-0.572v-0.122c0-0.058-0.023-0.114-0.064-0.155s-0.097-0.064-0.155-0.064z"></path>
<path fill="#fff" d="M18.968 15.472h-0.472c-0.029 0-0.057 0.006-0.084 0.017s-0.051 0.027-0.071 0.047c-0.020 0.020-0.036 0.044-0.047 0.071s-0.017 0.055-0.017 0.084v0.122c0 0.252 0.204 0.572 0.456 0.572s0.456-0.32 0.456-0.572v-0.122c-0-0.029-0.006-0.058-0.017-0.084s-0.028-0.051-0.048-0.071c-0.021-0.020-0.045-0.036-0.072-0.047s-0.056-0.016-0.085-0.016z"></path>
<path fill="#fff" d="M20.105 15.472h-0.474c-0.058 0-0.114 0.023-0.155 0.064s-0.064 0.097-0.064 0.155v0.122c0 0.252 0.204 0.572 0.456 0.572s0.456-0.32 0.456-0.572v-0.122c0-0.058-0.023-0.114-0.064-0.155s-0.097-0.064-0.155-0.064z"></path>
<path fill="#fff" d="M21.242 15.472h-0.474c-0.058 0-0.114 0.023-0.155 0.064s-0.064 0.097-0.064 0.155v0.122c0 0.252 0.204 0.572 0.456 0.572s0.456-0.32 0.456-0.572v-0.122c0-0.058-0.023-0.114-0.064-0.155s-0.097-0.064-0.155-0.064z"></path>
<path fill="#fff" d="M22.378 15.472h-0.474c-0.058 0-0.114 0.023-0.155 0.064s-0.064 0.097-0.064 0.155v0.122c0 0.251 0.203 0.571 0.459 0.571s0.456-0.32 0.456-0.572v-0.122c0-0.029-0.006-0.057-0.017-0.084s-0.027-0.051-0.048-0.071c-0.021-0.020-0.045-0.036-0.072-0.047s-0.056-0.016-0.084-0.016z"></path>
<path fill="#fff" d="M9.873 17.881h-0.474c-0.058 0-0.114 0.023-0.155 0.064s-0.064 0.097-0.064 0.155v0.122c0 0.252 0.204 0.572 0.456 0.572s0.456-0.32 0.456-0.572v-0.122c-0-0.058-0.023-0.114-0.065-0.155s-0.097-0.064-0.155-0.064z"></path>
<path fill="#fff" d="M11.008 17.881h-0.474c-0.058 0-0.114 0.023-0.155 0.064s-0.064 0.097-0.065 0.155v0.122c0 0.252 0.204 0.572 0.456 0.572s0.456-0.32 0.456-0.572v-0.122c0-0.058-0.023-0.114-0.064-0.155s-0.097-0.064-0.155-0.064z"></path>
<path fill="#fff" d="M12.147 17.881h-0.474c-0.058 0-0.114 0.023-0.155 0.064s-0.064 0.097-0.064 0.155v0.122c0 0.252 0.204 0.572 0.456 0.572s0.456-0.32 0.456-0.572v-0.122c0-0.058-0.023-0.114-0.064-0.155s-0.097-0.064-0.155-0.064z"></path>
<path fill="#fff" d="M13.284 17.881h-0.474c-0.058 0-0.114 0.023-0.155 0.064s-0.064 0.097-0.064 0.155v0.122c0 0.252 0.204 0.572 0.456 0.572s0.456-0.32 0.456-0.572v-0.122c0-0.029-0.006-0.057-0.017-0.084s-0.027-0.051-0.047-0.071c-0.020-0.020-0.044-0.037-0.071-0.048s-0.055-0.017-0.084-0.017z"></path>
<path fill="#fff" d="M14.42 17.881h-0.474c-0.058 0-0.114 0.023-0.155 0.064s-0.064 0.097-0.064 0.155v0.122c0 0.252 0.204 0.572 0.456 0.572s0.456-0.32 0.456-0.572v-0.122c-0-0.058-0.023-0.114-0.065-0.155s-0.097-0.064-0.155-0.064z"></path>
<path fill="#fff" d="M15.558 17.881h-0.474c-0.058 0-0.114 0.023-0.155 0.064s-0.064 0.097-0.065 0.155v0.122c0 0.252 0.204 0.572 0.456 0.572s0.456-0.32 0.456-0.572v-0.122c0-0.058-0.023-0.114-0.064-0.155s-0.097-0.064-0.155-0.064z"></path>
<path fill="#fff" d="M16.694 17.881h-0.474c-0.058 0-0.114 0.023-0.155 0.064s-0.064 0.097-0.064 0.155v0.122c0 0.252 0.204 0.572 0.456 0.572s0.456-0.32 0.456-0.572v-0.122c0-0.058-0.023-0.114-0.064-0.155s-0.097-0.064-0.155-0.064z"></path>
<path fill="#fff" d="M17.831 17.881h-0.474c-0.058 0-0.114 0.023-0.155 0.064s-0.064 0.097-0.064 0.155v0.122c0 0.252 0.204 0.572 0.456 0.572s0.456-0.32 0.456-0.572v-0.122c0-0.058-0.023-0.114-0.064-0.155s-0.097-0.064-0.155-0.064z"></path>
<path fill="#fff" d="M18.968 17.881h-0.472c-0.029 0-0.057 0.006-0.084 0.017s-0.051 0.027-0.071 0.048c-0.020 0.020-0.036 0.044-0.047 0.071s-0.017 0.055-0.017 0.084v0.122c0 0.252 0.204 0.572 0.456 0.572s0.456-0.32 0.456-0.572v-0.122c-0-0.029-0.006-0.058-0.017-0.085s-0.028-0.051-0.048-0.071c-0.021-0.020-0.045-0.036-0.072-0.047s-0.056-0.016-0.085-0.016z"></path>
<path fill="#fff" d="M20.105 17.881h-0.474c-0.058 0-0.114 0.023-0.155 0.064s-0.064 0.097-0.064 0.155v0.122c0 0.252 0.204 0.572 0.456 0.572s0.456-0.32 0.456-0.572v-0.122c0-0.058-0.023-0.114-0.064-0.155s-0.097-0.064-0.155-0.064z"></path>
<path fill="#fff" d="M21.242 17.881h-0.474c-0.058 0-0.114 0.023-0.155 0.064s-0.064 0.097-0.064 0.155v0.122c0 0.252 0.204 0.572 0.456 0.572s0.456-0.32 0.456-0.572v-0.122c0-0.058-0.023-0.114-0.064-0.155s-0.097-0.064-0.155-0.064z"></path>
<path fill="#fff" d="M22.378 17.881h-0.474c-0.058 0-0.114 0.023-0.155 0.064s-0.064 0.097-0.064 0.155v0.122c0 0.252 0.204 0.572 0.456 0.572s0.456-0.32 0.456-0.572v-0.122c0-0.058-0.023-0.114-0.064-0.155s-0.097-0.064-0.155-0.064z"></path>
<path fill="#fff" d="M9.305 16.715h-0.473c-0.058 0-0.114 0.023-0.155 0.064s-0.064 0.097-0.064 0.155v0.122c0 0.251 0.204 0.572 0.456 0.572s0.456-0.32 0.456-0.572v-0.122c0-0.029-0.006-0.057-0.017-0.084s-0.027-0.051-0.048-0.071c-0.020-0.020-0.045-0.036-0.071-0.047s-0.055-0.016-0.084-0.016z"></path>
<path fill="#fff" d="M10.442 16.715h-0.474c-0.058 0-0.114 0.023-0.155 0.064s-0.064 0.097-0.064 0.155v0.122c0 0.251 0.204 0.572 0.456 0.572s0.456-0.32 0.456-0.572v-0.122c-0-0.058-0.023-0.114-0.065-0.155s-0.097-0.064-0.155-0.064z"></path>
<path fill="#fff" d="M11.579 16.715h-0.474c-0.058 0-0.114 0.023-0.155 0.064s-0.064 0.097-0.065 0.155v0.122c0 0.251 0.205 0.572 0.456 0.572s0.456-0.32 0.456-0.572v-0.122c0-0.058-0.023-0.114-0.064-0.155s-0.097-0.064-0.155-0.064z"></path>
<path fill="#fff" d="M12.715 16.715h-0.474c-0.058 0-0.114 0.023-0.155 0.064s-0.064 0.097-0.064 0.155v0.122c0 0.251 0.204 0.572 0.456 0.572s0.456-0.32 0.456-0.572v-0.122c0-0.029-0.006-0.057-0.017-0.084s-0.027-0.051-0.047-0.071c-0.020-0.020-0.044-0.036-0.071-0.047s-0.055-0.017-0.084-0.017z"></path>
<path fill="#fff" d="M13.852 16.715h-0.476c-0.058 0-0.114 0.023-0.155 0.064s-0.064 0.097-0.064 0.155v0.122c0 0.251 0.204 0.572 0.456 0.572s0.456-0.32 0.456-0.572v-0.122c0-0.058-0.023-0.113-0.063-0.154s-0.096-0.064-0.154-0.065z"></path>
<path fill="#fff" d="M14.989 16.715h-0.474c-0.058 0-0.114 0.023-0.155 0.064s-0.064 0.097-0.064 0.155v0.122c0 0.251 0.204 0.572 0.456 0.572s0.456-0.32 0.456-0.572v-0.122c-0-0.058-0.023-0.114-0.065-0.155s-0.097-0.064-0.155-0.064z"></path>
<path fill="#fff" d="M16.128 16.715h-0.474c-0.058 0-0.114 0.023-0.155 0.064s-0.064 0.097-0.065 0.155v0.122c0 0.251 0.205 0.572 0.456 0.572s0.456-0.32 0.456-0.572v-0.122c0-0.058-0.023-0.114-0.064-0.155s-0.097-0.064-0.155-0.064z"></path>
<path fill="#fff" d="M17.263 16.715h-0.474c-0.058 0-0.114 0.023-0.155 0.064s-0.064 0.097-0.064 0.155v0.122c0 0.251 0.204 0.572 0.456 0.572s0.456-0.32 0.456-0.572v-0.122c0-0.058-0.023-0.114-0.064-0.155s-0.097-0.064-0.155-0.064z"></path>
<path fill="#fff" d="M18.4 16.715h-0.474c-0.058 0-0.114 0.023-0.155 0.064s-0.064 0.097-0.064 0.155v0.122c0 0.251 0.204 0.572 0.456 0.572s0.456-0.32 0.456-0.572v-0.122c0-0.058-0.023-0.114-0.064-0.155s-0.097-0.064-0.155-0.064z"></path>
<path fill="#fff" d="M19.536 16.715h-0.474c-0.058 0-0.114 0.023-0.155 0.064s-0.064 0.097-0.064 0.155v0.122c0 0.251 0.204 0.572 0.456 0.572s0.456-0.32 0.456-0.572v-0.122c-0-0.058-0.023-0.114-0.064-0.155s-0.097-0.064-0.155-0.064z"></path>
<path fill="#fff" d="M20.672 16.715h-0.474c-0.058 0-0.114 0.023-0.155 0.064s-0.064 0.097-0.065 0.155v0.122c0 0.251 0.205 0.572 0.456 0.572s0.456-0.32 0.456-0.572v-0.122c0-0.058-0.023-0.114-0.064-0.155s-0.097-0.064-0.155-0.064z"></path>
<path fill="#fff" d="M21.81 16.715h-0.474c-0.058 0.001-0.112 0.024-0.153 0.065s-0.063 0.096-0.063 0.154v0.122c0 0.251 0.204 0.572 0.456 0.572s0.456-0.32 0.456-0.572v-0.122c0-0.029-0.006-0.058-0.017-0.085s-0.028-0.051-0.048-0.071c-0.021-0.020-0.045-0.036-0.072-0.047s-0.056-0.016-0.085-0.016z"></path>
<path fill="#fff" d="M22.947 16.715h-0.474c-0.058 0-0.114 0.023-0.155 0.064s-0.064 0.097-0.064 0.155v0.122c0 0.251 0.204 0.572 0.456 0.572s0.456-0.32 0.456-0.572v-0.122c0-0.058-0.023-0.114-0.064-0.155s-0.097-0.064-0.155-0.064z"></path>
<path fill="#fff" d="M20.231 19.094h-8.684c-0.113 0-0.205 0.092-0.205 0.205v0.623c0 0.114 0.092 0.206 0.205 0.206h8.684c0.113 0 0.206-0.092 0.206-0.206v-0.623c0-0.113-0.092-0.205-0.206-0.205z"></path>
<path fill="#fff" d="M21.393 19.155h-0.474c-0.058 0-0.114 0.023-0.155 0.064s-0.064 0.097-0.064 0.155v0.122c0 0.252 0.204 0.572 0.456 0.572s0.456-0.32 0.456-0.572v-0.122c0-0.058-0.023-0.114-0.064-0.155s-0.097-0.064-0.155-0.064z"></path>
<path fill="#fff" d="M10.858 19.155h-0.474c-0.058 0-0.114 0.023-0.155 0.064s-0.064 0.097-0.064 0.155v0.122c0 0.252 0.204 0.572 0.456 0.572s0.456-0.32 0.456-0.572v-0.122c-0-0.058-0.023-0.114-0.065-0.155s-0.097-0.064-0.155-0.064z"></path>
<path fill="#000" opacity="0.2" d="M9.899 15.819c0.023 0 0.046 0.002 0.069 0.006 0-0.004 0-0.009 0-0.013v-0.122c-0-0.025-0.010-0.049-0.028-0.067s-0.042-0.028-0.067-0.028h-0.474c-0.025 0-0.049 0.010-0.067 0.028s-0.028 0.042-0.028 0.067v0.122c0 0.175 0.128 0.395 0.279 0.439-0.047-0.194 0.058-0.432 0.317-0.432z"></path>
<path fill="#000" opacity="0.2" d="M11.062 15.787c0.014-0.001 0.029-0.001 0.044 0v-0.098c-0-0.025-0.010-0.049-0.028-0.067s-0.042-0.028-0.067-0.028h-0.474c-0.025 0-0.049 0.010-0.067 0.028s-0.028 0.042-0.028 0.067v0.122c0 0.192 0.152 0.432 0.32 0.448-0.077-0.198 0.024-0.471 0.301-0.471z"></path>
<path fill="#000" opacity="0.2" d="M12.232 15.77h0.010v-0.080c0-0.025-0.010-0.049-0.028-0.067s-0.042-0.028-0.067-0.028h-0.474c-0.025 0-0.049 0.010-0.067 0.028s-0.028 0.042-0.028 0.067v0.122c0 0.195 0.161 0.448 0.332 0.448 0.008 0.001 0.017 0.001 0.025 0-0.086-0.202 0.013-0.49 0.298-0.49z"></path>
<path fill="#000" opacity="0.2" d="M13.297 15.738c0.027-0.001 0.053 0.001 0.079 0.006v-0.056c0-0.025-0.010-0.049-0.028-0.067s-0.042-0.028-0.067-0.028h-0.474c-0.025 0-0.049 0.010-0.067 0.028s-0.028 0.042-0.028 0.067v0.122c0 0.183 0.141 0.416 0.3 0.448-0.109-0.201-0.015-0.52 0.285-0.52z"></path>
<path fill="#000" opacity="0.2" d="M14.492 15.738h0.024v-0.048c-0-0.025-0.010-0.049-0.028-0.067s-0.042-0.028-0.067-0.028h-0.474c-0.025 0-0.049 0.010-0.067 0.028s-0.028 0.042-0.028 0.067v0.122c0 0.195 0.161 0.448 0.332 0.448 0.009 0.001 0.018 0.001 0.026 0-0.112-0.202-0.018-0.522 0.282-0.522z"></path>
<path fill="#000" opacity="0.2" d="M15.638 15.744h0.015v-0.056c-0-0.025-0.010-0.049-0.028-0.067s-0.042-0.028-0.067-0.028h-0.474c-0.025 0-0.049 0.010-0.067 0.028s-0.028 0.042-0.028 0.067v0.122c0 0.195 0.161 0.448 0.332 0.448 0.010 0.001 0.021 0.001 0.031 0-0.105-0.202-0.010-0.514 0.286-0.514z"></path>
<path fill="#000" opacity="0.2" d="M16.735 15.738c0.018 0 0.036 0.002 0.054 0.004v-0.051c0-0.025-0.010-0.049-0.028-0.067s-0.042-0.028-0.067-0.028h-0.474c-0.025 0-0.049 0.010-0.067 0.028s-0.028 0.042-0.028 0.067v0.122c0 0.192 0.159 0.444 0.328 0.448-0.113-0.201-0.020-0.523 0.281-0.523z"></path>
<path fill="#000" opacity="0.2" d="M17.926 15.754v-0.064c0-0.025-0.010-0.049-0.028-0.067s-0.042-0.028-0.067-0.028h-0.474c-0.025 0-0.049 0.010-0.067 0.028s-0.028 0.042-0.028 0.067v0.122c0 0.195 0.161 0.448 0.332 0.448 0.017-0 0.034-0.003 0.051-0.008-0.092-0.197 0.002-0.488 0.281-0.497z"></path>
<path fill="#000" opacity="0.2" d="M18.97 15.729c0.032 0 0.063 0.004 0.093 0.012v-0.051c-0-0.025-0.010-0.049-0.028-0.067s-0.042-0.028-0.067-0.028h-0.472c-0.025 0-0.049 0.010-0.067 0.028s-0.028 0.042-0.028 0.067v0.122c0 0.18 0.137 0.408 0.292 0.443-0.12-0.2-0.027-0.526 0.276-0.526z"></path>
<path fill="#000" opacity="0.2" d="M20.132 15.729c0.023 0 0.045 0.002 0.068 0.006v-0.045c-0-0.025-0.010-0.049-0.028-0.067s-0.042-0.028-0.067-0.028h-0.474c-0.025 0-0.049 0.010-0.067 0.028s-0.028 0.042-0.028 0.067v0.122c0 0.192 0.154 0.436 0.32 0.448-0.12-0.201-0.028-0.531 0.277-0.531z"></path>
<path fill="#000" opacity="0.2" d="M21.286 15.762c0.017 0 0.033 0.002 0.050 0.004v-0.075c0-0.025-0.010-0.049-0.028-0.067s-0.042-0.028-0.067-0.028h-0.474c-0.012 0-0.025 0.002-0.036 0.007s-0.022 0.012-0.031 0.021c-0.009 0.009-0.016 0.019-0.021 0.031s-0.007 0.024-0.007 0.036v0.122c0 0.192 0.154 0.435 0.32 0.448-0.093-0.202 0.005-0.499 0.294-0.499z"></path>
<path fill="#000" opacity="0.2" d="M22.473 15.747v-0.056c0-0.025-0.010-0.049-0.028-0.067s-0.042-0.028-0.067-0.028h-0.474c-0.025 0-0.049 0.010-0.067 0.028s-0.028 0.042-0.028 0.067v0.122c0 0.195 0.161 0.448 0.332 0.448 0.025-0 0.049-0.006 0.072-0.015-0.091-0.193-0.005-0.476 0.26-0.498z"></path>
<path fill="#000" opacity="0.2" d="M9.932 18.112c0.012-0.001 0.024-0.001 0.037 0v-0.014c-0-0.025-0.010-0.049-0.028-0.067s-0.042-0.028-0.067-0.028h-0.474c-0.025 0-0.049 0.010-0.067 0.028s-0.028 0.042-0.028 0.067v0.122c0 0.195 0.161 0.448 0.332 0.448 0.012-0 0.024-0.002 0.035-0.004-0.143-0.195-0.056-0.552 0.261-0.552z"></path>
<path fill="#000" opacity="0.2" d="M11.046 18.112c0.020 0 0.040 0.002 0.060 0.005v-0.017c-0-0.025-0.010-0.049-0.028-0.067s-0.042-0.028-0.067-0.028h-0.474c-0.025 0-0.049 0.010-0.067 0.028s-0.028 0.042-0.028 0.067v0.122c0 0.195 0.161 0.448 0.332 0.448h0.014c-0.147-0.197-0.060-0.558 0.259-0.558z"></path>
<path fill="#000" opacity="0.2" d="M12.176 18.128c0.021 0 0.043 0.002 0.064 0.006v-0.034c0-0.012-0.002-0.025-0.007-0.036s-0.012-0.022-0.021-0.031c-0.009-0.009-0.019-0.016-0.031-0.020s-0.024-0.007-0.036-0.007h-0.474c-0.025 0-0.049 0.010-0.067 0.028s-0.028 0.042-0.028 0.067v0.122c0 0.192 0.159 0.443 0.328 0.448-0.127-0.199-0.038-0.541 0.272-0.541z"></path>
<path fill="#000" opacity="0.2" d="M13.329 18.136c0.017 0 0.033 0.001 0.049 0.003v-0.040c0-0.012-0.002-0.025-0.007-0.036s-0.012-0.022-0.021-0.031c-0.009-0.009-0.019-0.016-0.031-0.020s-0.024-0.007-0.036-0.007h-0.474c-0.012 0-0.025 0.002-0.036 0.007s-0.022 0.012-0.031 0.020c-0.009 0.009-0.016 0.019-0.021 0.031s-0.007 0.024-0.007 0.036v0.122c0 0.195 0.161 0.448 0.332 0.448h0.008c-0.123-0.2-0.031-0.533 0.275-0.533z"></path>
<path fill="#000" opacity="0.2" d="M14.443 18.112c0.024 0 0.049 0.002 0.073 0.007v-0.018c-0-0.025-0.010-0.049-0.028-0.067s-0.042-0.028-0.067-0.028h-0.474c-0.025 0-0.049 0.010-0.067 0.028s-0.028 0.042-0.028 0.067v0.122c0 0.195 0.161 0.448 0.332 0.448-0.146-0.196-0.060-0.558 0.259-0.558z"></path>
<path fill="#000" opacity="0.2" d="M15.597 18.12c0.019 0 0.037 0.002 0.056 0.004v-0.024c-0-0.025-0.010-0.049-0.028-0.067s-0.042-0.028-0.067-0.028h-0.474c-0.025 0-0.049 0.010-0.067 0.028s-0.028 0.042-0.028 0.067v0.122c0 0.195 0.161 0.448 0.332 0.448h0.012c-0.138-0.198-0.050-0.55 0.264-0.55z"></path>
<path fill="#000" opacity="0.2" d="M16.776 18.144h0.014v-0.045c0-0.025-0.010-0.049-0.028-0.067s-0.042-0.028-0.067-0.028h-0.474c-0.025 0-0.049 0.010-0.067 0.028s-0.028 0.042-0.028 0.067v0.122c0 0.195 0.161 0.448 0.331 0.448 0.013-0 0.025-0.002 0.037-0.005-0.11-0.2-0.018-0.52 0.282-0.52z"></path>
<path fill="#000" opacity="0.2" d="M17.92 18.12h0.004v-0.020c0-0.012-0.003-0.025-0.007-0.036s-0.012-0.022-0.021-0.031c-0.009-0.009-0.019-0.016-0.031-0.020s-0.024-0.007-0.036-0.007h-0.472c-0.013 0-0.025 0.002-0.036 0.007s-0.022 0.012-0.031 0.020c-0.009 0.009-0.016 0.019-0.021 0.031s-0.007 0.024-0.007 0.036v0.122c0 0.195 0.161 0.448 0.332 0.448 0.020-0 0.039-0.004 0.058-0.010-0.13-0.198-0.040-0.539 0.268-0.539z"></path>
<path fill="#000" opacity="0.2" d="M19.026 18.095h0.036c-0.001-0.024-0.011-0.048-0.029-0.065s-0.041-0.027-0.066-0.027h-0.472c-0.025 0-0.049 0.010-0.067 0.028s-0.028 0.042-0.028 0.067v0.122c0 0.195 0.161 0.448 0.332 0.448 0.016-0 0.031-0.003 0.046-0.007-0.161-0.191-0.078-0.566 0.247-0.566z"></path>
<path fill="#000" opacity="0.2" d="M20.198 18.112v-0.011c-0-0.025-0.010-0.049-0.028-0.067s-0.042-0.028-0.067-0.028h-0.474c-0.025 0-0.049 0.010-0.067 0.028s-0.028 0.042-0.028 0.067v0.122c0 0.195 0.161 0.448 0.332 0.448 0.022-0 0.043-0.004 0.064-0.012-0.134-0.198-0.046-0.546 0.268-0.546z"></path>
<path fill="#000" opacity="0.2" d="M21.312 18.112h0.026v-0.013c0-0.012-0.003-0.025-0.007-0.036s-0.012-0.022-0.021-0.031-0.019-0.016-0.031-0.020c-0.011-0.005-0.024-0.007-0.036-0.007h-0.474c-0.025 0-0.049 0.010-0.067 0.028s-0.028 0.042-0.028 0.067v0.122c0 0.195 0.161 0.448 0.331 0.448 0.015-0 0.030-0.002 0.045-0.006-0.143-0.196-0.055-0.55 0.262-0.55z"></path>
<path fill="#000" opacity="0.2" d="M22.432 18.161c0.014 0 0.028 0 0.041 0v-0.064c0-0.025-0.010-0.049-0.028-0.067s-0.042-0.028-0.067-0.028h-0.474c-0.025 0-0.049 0.010-0.067 0.028s-0.028 0.042-0.028 0.067v0.122c0 0.195 0.161 0.448 0.332 0.448-0.099-0.198-0.003-0.506 0.291-0.506z"></path>
<path fill="#000" opacity="0.2" d="M9.392 16.966h0.008v-0.031c-0-0.025-0.010-0.049-0.028-0.067s-0.042-0.028-0.067-0.028h-0.473c-0.025 0-0.049 0.010-0.067 0.028s-0.028 0.042-0.028 0.067v0.122c0 0.195 0.161 0.448 0.332 0.448 0.017-0 0.033-0.003 0.049-0.008-0.123-0.2-0.030-0.53 0.274-0.53z"></path>
<path fill="#000" opacity="0.2" d="M10.505 16.966h0.032v-0.033c-0-0.025-0.010-0.049-0.028-0.067s-0.042-0.028-0.067-0.028h-0.474c-0.025 0-0.049 0.010-0.067 0.028s-0.028 0.042-0.028 0.067v0.122c0 0.195 0.161 0.448 0.332 0.448 0.009 0.001 0.019 0.001 0.028 0-0.126-0.2-0.035-0.537 0.272-0.537z"></path>
<path fill="#000" opacity="0.2" d="M11.668 16.966h0.006v-0.031c-0-0.025-0.010-0.049-0.028-0.067s-0.042-0.028-0.067-0.028h-0.474c-0.013-0-0.025 0.002-0.037 0.007s-0.022 0.012-0.031 0.021-0.016 0.019-0.021 0.031c-0.005 0.011-0.007 0.024-0.008 0.037v0.122c0 0.195 0.161 0.448 0.332 0.448 0.017-0 0.034-0.003 0.051-0.008-0.12-0.199-0.028-0.53 0.277-0.53z"></path>
<path fill="#000" opacity="0.2" d="M12.781 16.96h0.029v-0.024c0-0.025-0.010-0.049-0.028-0.067s-0.042-0.028-0.067-0.028h-0.474c-0.025 0-0.049 0.010-0.067 0.028s-0.028 0.042-0.028 0.067v0.122c0 0.195 0.161 0.448 0.332 0.448 0.012-0 0.023-0.002 0.035-0.004-0.132-0.199-0.043-0.541 0.268-0.541z"></path>
<path fill="#000" opacity="0.2" d="M13.888 16.966c0.020 0 0.041 0.002 0.061 0.005v-0.036c0-0.025-0.010-0.049-0.028-0.067s-0.042-0.028-0.067-0.028h-0.478c-0.025 0-0.049 0.010-0.067 0.028s-0.028 0.042-0.028 0.067v0.122c0 0.195 0.161 0.448 0.332 0.448-0.127-0.199-0.037-0.538 0.275-0.538z"></path>
<path fill="#000" opacity="0.2" d="M15.032 16.925c0.017 0 0.034 0.001 0.051 0.003-0.002-0.024-0.012-0.046-0.030-0.063s-0.041-0.025-0.065-0.026h-0.474c-0.025 0-0.049 0.010-0.067 0.028s-0.028 0.042-0.028 0.067v0.122c0 0.195 0.161 0.448 0.332 0.448 0.012-0 0.024-0.002 0.036-0.005-0.166-0.19-0.085-0.575 0.244-0.575z"></path>
<path fill="#000" opacity="0.2" d="M16.178 16.974c0.015 0 0.029 0 0.043 0v-0.042c-0-0.025-0.010-0.049-0.028-0.067s-0.042-0.028-0.067-0.028h-0.474c-0.025 0-0.049 0.010-0.067 0.028s-0.028 0.042-0.028 0.067v0.122c0 0.195 0.161 0.448 0.332 0.448h0.013c-0.12-0.198-0.030-0.528 0.277-0.528z"></path>
<path fill="#000" opacity="0.2" d="M17.358 16.934c0-0.025-0.010-0.049-0.028-0.067s-0.042-0.028-0.067-0.028h-0.474c-0.013 0-0.025 0.003-0.036 0.007s-0.022 0.012-0.031 0.021-0.016 0.019-0.021 0.031c-0.005 0.011-0.007 0.024-0.007 0.036v0.122c0 0.195 0.161 0.448 0.331 0.448 0.034-0.001 0.068-0.010 0.097-0.027-0.129-0.191-0.051-0.517 0.235-0.543z"></path>
<path fill="#000" opacity="0.2" d="M18.496 16.96v-0.024c0-0.025-0.010-0.049-0.028-0.067s-0.042-0.028-0.067-0.028h-0.474c-0.025 0-0.049 0.010-0.067 0.028s-0.028 0.042-0.028 0.067v0.122c0 0.195 0.161 0.448 0.332 0.448 0.027-0 0.055-0.007 0.079-0.018-0.117-0.195-0.033-0.511 0.252-0.527z"></path>
<path fill="#000" opacity="0.2" d="M19.592 16.941c0.014 0 0.027 0 0.040 0v-0.008c-0-0.025-0.010-0.049-0.028-0.067s-0.042-0.028-0.067-0.028h-0.474c-0.025 0-0.049 0.010-0.067 0.028s-0.028 0.042-0.028 0.067v0.122c0 0.195 0.161 0.448 0.332 0.448 0.012-0 0.024-0.002 0.036-0.005-0.148-0.193-0.063-0.557 0.257-0.557z"></path>
<path fill="#000" opacity="0.2" d="M20.768 16.982v-0.048c-0-0.025-0.010-0.049-0.028-0.067s-0.042-0.028-0.067-0.028h-0.474c-0.025 0-0.049 0.010-0.067 0.028s-0.028 0.042-0.028 0.067v0.122c0 0.195 0.161 0.448 0.332 0.448 0.019-0 0.038-0.004 0.057-0.010-0.104-0.198-0.013-0.504 0.275-0.512z"></path>
<path fill="#000" opacity="0.2" d="M21.851 16.949c0.018 0 0.036 0.002 0.054 0.004v-0.018c0-0.025-0.010-0.049-0.028-0.067s-0.042-0.028-0.067-0.028h-0.474c-0.012 0-0.025 0.003-0.036 0.007s-0.022 0.012-0.031 0.021c-0.009 0.009-0.016 0.019-0.021 0.031s-0.007 0.024-0.007 0.036v0.122c0 0.195 0.161 0.448 0.332 0.448 0.006 0 0.012 0 0.018 0-0.143-0.198-0.056-0.555 0.26-0.555z"></path>
<path fill="#000" opacity="0.2" d="M22.997 16.998c0.015-0.001 0.029-0.001 0.044 0v-0.064c0-0.025-0.010-0.049-0.028-0.067s-0.042-0.028-0.067-0.028h-0.474c-0.025 0-0.049 0.010-0.067 0.028s-0.028 0.042-0.028 0.067v0.122c0 0.192 0.159 0.448 0.33 0.448-0.1-0.202-0.003-0.506 0.289-0.506z"></path>
<path fill="#000" opacity="0.2" d="M20.312 19.927v-0.631c0-0.043-0.035-0.078-0.077-0.078h-8.691c-0.043 0-0.077 0.035-0.077 0.078v0.631c0 0.043 0.035 0.078 0.077 0.078h8.691c0.043 0 0.077-0.035 0.077-0.078z"></path>
<path fill="#000" opacity="0.2" d="M21.488 19.438v-0.064c0-0.013-0.003-0.025-0.007-0.036s-0.012-0.022-0.021-0.031-0.019-0.016-0.031-0.021c-0.011-0.005-0.024-0.007-0.036-0.007h-0.474c-0.013 0-0.025 0.002-0.036 0.007s-0.022 0.012-0.031 0.021-0.016 0.019-0.021 0.031c-0.005 0.011-0.007 0.024-0.007 0.036v0.122c0 0.195 0.161 0.448 0.332 0.448 0.014-0 0.029-0.002 0.042-0.006-0.095-0.2 0.002-0.498 0.289-0.5z"></path>
<path fill="#000" opacity="0.2" d="M10.898 19.397c0.019 0 0.037 0.002 0.056 0.004v-0.027c-0-0.025-0.010-0.049-0.028-0.067s-0.042-0.028-0.067-0.028h-0.474c-0.025 0-0.049 0.010-0.067 0.028s-0.028 0.042-0.028 0.067v0.122c0 0.195 0.161 0.448 0.332 0.448h0.011c-0.136-0.198-0.047-0.547 0.266-0.547z"></path>
<path fill="#000" opacity="0.2" d="M8.045 6.048h15.688c0.108 0 0.211 0.043 0.287 0.119s0.119 0.18 0.119 0.287v3.584h-16.5v-3.584c0-0.108 0.043-0.211 0.119-0.287s0.18-0.119 0.287-0.119z"></path>
<path fill="#fff" d="M22.45 6.724h-13.12c-0.109-0.909-0.302-1.805-0.576-2.678h14.275c-0.278 0.872-0.472 1.769-0.578 2.678z"></path>
<path fill="#000" opacity="0.2" d="M22.579 5.86c-0.095 0.521-0.128 0.863-0.128 0.863h-13.12c0 0-0.033-0.336-0.131-0.863h13.379z"></path>
<path fill="#263238" d="M22.271 8.979h-12.871v5.295h12.871v-5.295z"></path>
<path fill="#fff" opacity="0.16000000000000003" d="M15.515 13.806l0.068 0.003c0.085-1.321 0.171-2.643 0.256-3.968-0.109 1.325-0.217 2.647-0.324 3.965z"></path>
<path fill="#fff" opacity="0.16000000000000003" d="M15.296 13.789l0.068 0.006c0.148-1.312 0.296-2.63 0.444-3.953-0.17 1.324-0.341 2.64-0.511 3.947z"></path>
<path fill="#fff" opacity="0.16000000000000003" d="M15.083 13.765c0.022 0 0.045 0.005 0.068 0.008 0.21-1.298 0.421-2.608 0.634-3.932-0.235 1.324-0.469 2.632-0.701 3.924z"></path>
<path fill="#fff" opacity="0.16000000000000003" d="M14.867 13.732l0.069 0.011c0.272-1.28 0.547-2.581 0.823-3.904-0.299 1.324-0.596 2.622-0.892 3.893z"></path>
<path fill="#fff" opacity="0.16000000000000003" d="M14.652 13.692l0.069 0.014c0.333-1.256 0.67-2.544 1.012-3.866-0.363 1.322-0.724 2.606-1.081 3.852z"></path>
<path fill="#fff" opacity="0.16000000000000003" d="M14.439 13.643l0.069 0.017c0.392-1.228 0.796-2.501 1.2-3.821-0.428 1.32-0.855 2.588-1.269 3.803z"></path>
<path fill="#fff" opacity="0.16000000000000003" d="M14.226 13.586l0.070 0.021c0.448-1.193 0.917-2.449 1.387-3.768-0.493 1.319-0.985 2.568-1.457 3.747z"></path>
<path fill="#fff" opacity="0.16000000000000003" d="M14.016 13.521l0.070 0.022c0.506-1.152 1.037-2.388 1.572-3.705-0.561 1.317-1.117 2.544-1.642 3.683z"></path>
<path fill="#fff" opacity="0.16000000000000003" d="M13.804 13.446l0.070 0.026c0.561-1.108 1.156-2.319 1.757-3.635-0.625 1.315-1.246 2.515-1.827 3.609z"></path>
<path fill="#fff" opacity="0.16000000000000003" d="M13.596 13.361l0.070 0.029c0.612-1.059 1.272-2.24 1.939-3.555-0.693 1.313-1.377 2.488-2.009 3.526z"></path>
<path fill="#fff" opacity="0.16000000000000003" d="M13.391 13.267l0.070 0.034c0.661-1.002 1.386-2.157 2.118-3.466-0.759 1.309-1.509 2.454-2.189 3.432z"></path>
<path fill="#fff" opacity="0.16000000000000003" d="M13.189 13.162l0.070 0.038c0.704-0.939 1.496-2.061 2.295-3.368-0.729 1.151-1.519 2.262-2.365 3.329z"></path>
<path fill="#fff" opacity="0.16000000000000003" d="M12.992 13.046c0.023 0.015 0.047 0.028 0.071 0.042 0.888-1.035 1.712-2.122 2.468-3.258-0.773 1.128-1.621 2.202-2.539 3.215z"></path>
<path fill="#fff" opacity="0.16000000000000003" d="M12.796 12.919l0.070 0.048c0.958-0.976 1.84-2.024 2.637-3.136-0.814 1.104-1.719 2.137-2.707 3.088z"></path>
<path fill="#fff" opacity="0.16000000000000003" d="M15.477 9.827c-1.030 1.29-2.037 2.273-2.869 2.953l0.068 0.053c1.027-0.911 1.965-1.917 2.801-3.006z"></path>
<path fill="#fff" opacity="0.16000000000000003" d="M15.452 9.825c-1.097 1.28-2.169 2.216-3.026 2.805l0.068 0.058c0.845-0.626 1.89-1.579 2.958-2.863z"></path>
<path fill="#fff" opacity="0.16000000000000003" d="M15.424 9.823c-1.163 1.27-2.296 2.151-3.172 2.643 0.021 0.022 0.042 0.043 0.064 0.064 0.868-0.531 1.976-1.433 3.108-2.707z"></path>
<path fill="#fff" opacity="0.16000000000000003" d="M15.401 9.821c-1.226 1.258-2.418 2.080-3.308 2.47l0.064 0.070c0.881-0.433 2.046-1.279 3.244-2.54z"></path>
<path fill="#fff" opacity="0.16000000000000003" d="M11.945 12.104c0.019 0.026 0.038 0.051 0.057 0.076 0.893-0.33 2.112-1.116 3.373-2.362-1.287 1.24-2.532 2.001-3.43 2.285z"></path>
<path fill="#fff" opacity="0.16000000000000003" d="M11.815 11.91c0.017 0.027 0.034 0.054 0.051 0.081 0.896-0.225 2.168-0.949 3.484-2.176-1.341 1.22-2.636 1.917-3.535 2.095z"></path>
<path fill="#fff" opacity="0.16000000000000003" d="M11.703 11.712c0.014 0.028 0.029 0.056 0.044 0.084 0.896-0.122 2.212-0.781 3.578-1.981-1.388 1.188-2.725 1.82-3.621 1.897z"></path>
<path fill="#fff" opacity="0.16000000000000003" d="M11.612 11.51c0.012 0.028 0.024 0.057 0.036 0.085 0.891-0.022 2.24-0.616 3.648-1.784-1.424 1.156-2.794 1.722-3.684 1.699z"></path>
<path fill="#fff" opacity="0.16000000000000003" d="M15.732 13.815h0.067c0.021-1.323 0.042-2.647 0.064-3.973-0.045 1.325-0.088 2.65-0.131 3.973z"></path>
<path fill="#fff" opacity="0.16000000000000003" d="M15.948 13.816h0.068c-0.043-1.323-0.085-2.647-0.128-3.973l0.060 3.973z"></path>
<path fill="#fff" opacity="0.16000000000000003" d="M16.165 13.811h0.068c-0.107-1.318-0.213-2.641-0.32-3.968 0.084 1.325 0.168 2.648 0.252 3.968z"></path>
<path fill="#fff" opacity="0.16000000000000003" d="M16.384 13.797l0.068-0.005c-0.171-1.309-0.341-2.625-0.512-3.95 0.147 1.325 0.295 2.643 0.444 3.955z"></path>
<path fill="#fff" opacity="0.16000000000000003" d="M16.597 13.777l0.068-0.008c-0.232-1.293-0.467-2.602-0.704-3.927 0.214 1.325 0.426 2.637 0.636 3.935z"></path>
<path fill="#fff" opacity="0.16000000000000003" d="M16.813 13.748l0.068-0.010c-0.294-1.274-0.592-2.572-0.893-3.896 0.276 1.324 0.551 2.627 0.824 3.907z"></path>
<path fill="#fff" opacity="0.16000000000000003" d="M17.028 13.711l0.068-0.013c-0.355-1.248-0.716-2.534-1.082-3.858 0.34 1.323 0.678 2.614 1.014 3.871z"></path>
<path fill="#fff" opacity="0.16000000000000003" d="M17.242 13.667l0.070-0.016c-0.415-1.216-0.842-2.488-1.272-3.811 0.406 1.323 0.806 2.599 1.202 3.827z"></path>
<path fill="#fff" opacity="0.16000000000000003" d="M17.456 13.614l0.069-0.020c-0.472-1.182-0.964-2.432-1.459-3.755 0.47 1.322 0.939 2.577 1.39 3.775z"></path>
<path fill="#fff" opacity="0.16000000000000003" d="M17.667 13.552l0.070-0.023c-0.529-1.14-1.088-2.368-1.647-3.691 0.536 1.32 1.069 2.557 1.576 3.714z"></path>
<path fill="#fff" opacity="0.16000000000000003" d="M17.878 13.481l0.070-0.026c-0.582-1.094-1.204-2.299-1.832-3.618 0.602 1.319 1.199 2.533 1.761 3.644z"></path>
<path fill="#fff" opacity="0.16000000000000003" d="M18.087 13.401c0.024-0.010 0.048-0.019 0.071-0.029-0.634-1.041-1.321-2.219-2.015-3.536 0.669 1.317 1.33 2.504 1.944 3.565z"></path>
<path fill="#fff" opacity="0.16000000000000003" d="M18.293 13.312l0.071-0.034c-0.682-0.981-1.435-2.129-2.197-3.443 0.735 1.313 1.462 2.472 2.125 3.477z"></path>
<path fill="#fff" opacity="0.16000000000000003" d="M18.496 13.211c0.024-0.012 0.047-0.026 0.070-0.038-0.85-1.071-1.642-2.186-2.374-3.341 0.804 1.312 1.6 2.438 2.304 3.379z"></path>
<path fill="#fff" opacity="0.16000000000000003" d="M18.697 13.101l0.072-0.042c-0.922-1.017-1.773-2.096-2.55-3.228 0.758 1.14 1.586 2.232 2.478 3.27z"></path>
<path fill="#fff" opacity="0.16000000000000003" d="M16.245 9.829c0.8 1.117 1.686 2.17 2.649 3.15l0.071-0.048c-0.993-0.955-1.903-1.993-2.72-3.102z"></path>
<path fill="#fff" opacity="0.16000000000000003" d="M16.27 9.827c0.84 1.094 1.783 2.105 2.816 3.018 0.024-0.017 0.046-0.035 0.069-0.053-0.834-0.68-1.85-1.668-2.885-2.965z"></path>
<path fill="#fff" opacity="0.16000000000000003" d="M16.296 9.825c1.075 1.291 2.126 2.248 2.974 2.874 0.023-0.019 0.047-0.038 0.069-0.058-0.86-0.588-1.939-1.526-3.043-2.816z"></path>
<path fill="#fff" opacity="0.16000000000000003" d="M16.32 9.823c1.142 1.28 2.256 2.188 3.126 2.719 0.022-0.021 0.043-0.043 0.064-0.064-0.877-0.491-2.018-1.375-3.19-2.655z"></path>
<path fill="#fff" opacity="0.16000000000000003" d="M16.347 9.821c1.208 1.271 2.381 2.12 3.264 2.55l0.064-0.070c-0.89-0.386-2.092-1.212-3.328-2.48z"></path>
<path fill="#fff" opacity="0.16000000000000003" d="M19.769 12.189c0.020-0.026 0.038-0.051 0.058-0.077-0.899-0.278-2.156-1.042-3.456-2.293 1.272 1.256 2.504 2.045 3.398 2.371z"></path>
<path fill="#fff" opacity="0.16000000000000003" d="M19.908 11.997l0.053-0.082c-0.901-0.17-2.207-0.868-3.563-2.099 1.331 1.237 2.61 1.963 3.51 2.18z"></path>
<path fill="#fff" opacity="0.16000000000000003" d="M20.032 11.798c0.015-0.028 0.030-0.056 0.045-0.085-0.896-0.064-2.247-0.697-3.648-1.899 1.375 1.212 2.707 1.873 3.603 1.984z"></path>
<path fill="#fff" opacity="0.16000000000000003" d="M16.448 9.811c1.423 1.181 2.79 1.776 3.68 1.785 0.013-0.029 0.025-0.058 0.037-0.086-0.888 0.036-2.273-0.53-3.717-1.699z"></path>
<path fill="#000" opacity="0.2" d="M14.016 9.937c-0.243 0.622 0.020 2.432 1.77 2.432s2.386-1.272 2.315-2.058l2.337-0.376c0 0 0.716 1.979-0.805 3.363s-6.792 1.295-7.906 0.243-0.496-3.131-0.496-3.131l2.785-0.473z"></path>
<path fill="#999" d="M24.271 7.253v-0.436c0-0.016 0.005-0.032 0.015-0.045s0.023-0.023 0.038-0.027l0.32-0.1v-0.436c0-0.052 0.021-0.102 0.058-0.139s0.087-0.058 0.139-0.058h0.384c0.019-0 0.037 0.007 0.051 0.020s0.022 0.031 0.023 0.050v0.141c0 0.019-0.008 0.038-0.021 0.051s-0.032 0.021-0.051 0.022h-0.488v0.427c-0 0.013-0.004 0.025-0.010 0.037s-0.016 0.021-0.026 0.027l-0.273 0.165v0.304l-0.159-0.001z"></path>
<path fill="#263238" d="M24.693 7.253h-0.421v1.26h0.421v-1.26z"></path>
<path fill="#757575" d="M25.219 7.146h-0.527v1.473h0.527v-1.473z"></path>
<path fill="#000" opacity="0.2" d="M25.218 8.043h-0.526v0.576h0.526v-0.576z"></path>
<path fill="#263238" d="M7.085 8.512h0.421v-1.26h-0.421v1.26z"></path>
<path fill="#757575" d="M6.558 8.619h0.527v-1.473h-0.527v1.473z"></path>
<path fill="#000" opacity="0.2" d="M7.086 8.043h-0.527v0.562h0.527v-0.562z"></path>
<path fill="#fff" d="M7.443 7.958c0.038-0.1 0.044-0.209 0.017-0.312s-0.086-0.196-0.168-0.264l-0.31-0.256c-0.020-0.017-0.043-0.029-0.067-0.036s-0.051-0.010-0.076-0.006c-0.026 0.003-0.050 0.011-0.072 0.025s-0.041 0.031-0.057 0.051l-1.228 1.694c-0.023 0.032-0.036 0.070-0.036 0.109v1.82c0 0.024 0.005 0.049 0.014 0.071s0.023 0.043 0.041 0.060c0.017 0.017 0.038 0.031 0.061 0.040s0.047 0.014 0.071 0.013c0.049 0 0.096-0.019 0.13-0.054s0.054-0.081 0.054-0.13v-1.478c0-0.037 0.011-0.072 0.033-0.102l0.918-1.28c0.008-0.011 0.018-0.021 0.030-0.028s0.025-0.012 0.039-0.013c0.014-0.002 0.028-0 0.041 0.003s0.026 0.011 0.036 0.020l0.169 0.143c0.042 0.036 0.095 0.055 0.15 0.055 0.046-0 0.090-0.014 0.128-0.040s0.066-0.063 0.083-0.105z"></path>
<path fill="#999" d="M7.189 7.792c0.048 0 0.088-0.039 0.088-0.088s-0.039-0.088-0.088-0.088c-0.048 0-0.088 0.039-0.088 0.088s0.039 0.088 0.088 0.088z"></path>
<path fill="#263238" d="M23.881 6.644h-15.984v2.476h15.984v-2.476z"></path>
<path fill="#fff" opacity="0.2" d="M23.65 6.831h-15.528c-0.049 0-0.088 0.040-0.088 0.088v0.401c0 0.049 0.040 0.088 0.088 0.088h15.528c0.049 0 0.088-0.040 0.088-0.088v-0.401c0-0.049-0.040-0.088-0.088-0.088z"></path>
<path fill="#fff" d="M22.45 9.618h-13.12c-0.37-0.845-0.566-1.756-0.576-2.678h14.275c0 1.24-0.578 2.678-0.578 2.678z"></path>
<path fill="#000" opacity="0.2" d="M22.584 9.248c-0.077 0.23-0.134 0.37-0.134 0.37h-13.12c0 0-0.064-0.134-0.152-0.37h13.405z"></path>
<path fill="#000" opacity="0.2" d="M22.857 8.279c-0.044 0.192-0.093 0.38-0.141 0.545h-13.681c-0.047-0.163-0.096-0.346-0.138-0.545h13.96z"></path>
<path fill="#757575" d="M7.894 6.517h-0.391v2.732h0.391v-2.732z"></path>
<path fill="#000" opacity="0.2" d="M7.886 8.438h-0.381v0.81h0.381v-0.81z"></path>
<path fill="#757575" d="M24.275 6.517h-0.391v2.732h0.391v-2.732z"></path>
<path fill="#000" opacity="0.2" d="M24.274 8.438h-0.394v0.81h0.394v-0.81z"></path>
<path fill="#999" d="M23.887 6.403v1.992h-15.996v-1.992h-0.154v2.126h16.303v-2.126h-0.154z"></path>
<path fill="#fff" d="M24.832 9.759v4.468c0 0.075-0.030 0.148-0.083 0.201s-0.125 0.083-0.201 0.083h-17.32c-0.075 0-0.148-0.030-0.201-0.083s-0.083-0.126-0.083-0.201v-4.468c0-0.075 0.030-0.148 0.083-0.201s0.126-0.083 0.201-0.083h7.981v0.284c0 0-1.363 1.182-3.712 1.618 0.337 1.524 2.176 2.688 4.395 2.688s4.059-1.165 4.396-2.688c-2.353-0.436-3.715-1.618-3.715-1.618v-0.287h7.977c0.037 0 0.074 0.008 0.109 0.022s0.066 0.036 0.092 0.062 0.047 0.058 0.061 0.093c0.014 0.035 0.021 0.072 0.021 0.109z"></path>
<path fill="#fff" d="M24.832 9.759v4.468c0 0.037-0.007 0.074-0.022 0.109s-0.035 0.066-0.062 0.092-0.058 0.047-0.092 0.062c-0.035 0.014-0.072 0.022-0.109 0.021h-17.32c-0.037 0-0.074-0.007-0.109-0.021s-0.066-0.035-0.092-0.062c-0.026-0.026-0.047-0.058-0.062-0.092s-0.022-0.072-0.022-0.109v-4.468c0-0.075 0.030-0.148 0.084-0.201s0.126-0.083 0.201-0.084h7.981v0.285c0 0-1.363 1.181-3.712 1.618 0.337 1.524 2.176 2.688 4.396 2.688s4.058-1.165 4.396-2.688c-2.353-0.437-3.715-1.618-3.715-1.618v-0.287h7.977c0.075 0.001 0.147 0.031 0.2 0.085s0.082 0.126 0.082 0.202z"></path>
<path fill="#fff" opacity="0.2" d="M24.448 9.827v4.125c0 0.027-0.005 0.055-0.016 0.080s-0.026 0.048-0.046 0.068-0.043 0.035-0.068 0.045c-0.025 0.010-0.053 0.016-0.080 0.015h-16.841c-0.027 0-0.054-0.005-0.080-0.016s-0.048-0.026-0.068-0.045c-0.019-0.019-0.035-0.042-0.045-0.068s-0.016-0.052-0.016-0.080v-4.125c-0-0.027 0.005-0.055 0.016-0.080s0.026-0.048 0.045-0.068c0.019-0.019 0.042-0.035 0.068-0.045s0.052-0.016 0.080-0.016h7.808v0.141c0 0-1.363 1.181-3.712 1.618 0.337 1.524 2.176 2.688 4.396 2.688s4.058-1.165 4.396-2.688c-2.353-0.436-3.715-1.618-3.715-1.618v-0.141h7.67c0.055 0.001 0.108 0.023 0.147 0.062s0.061 0.092 0.061 0.147z"></path>
<path fill="#000" opacity="0.13999999999999999" d="M19.11 15.835l0.851 2.373c0 0 0.368-2.611 0.587-2.611s0.693 1.428 0.693 1.428 0.292-0.745 0.568-0.772c0.276-0.027 0.527 1.829 0.527 1.829l0.043 4.12-0.349 6.23c0 0-2.225-2.451-2.874-3.083s-1.269-2.022-1.448-2.304c-0.179-0.282-0.225-1.76-0.225-1.76 0.227-0.29 0.345-0.651 0.335-1.019 0 0 0.522-0.874 0.49-1.519s-0.113-3.152 0.802-2.911z"></path>
<path fill="#fff" d="M25.805 27.328l-3.369 1.772c0-0.018-0.443-0.735-0.978-1.547-0.242-0.367-0.503-0.753-0.751-1.103-0.406-0.571-0.922-1.065-0.966-1.172-0.128-0.32-1.115-1.518-1.336-1.984s-0.271-1.916-0.369-2.257c-0.097-0.341 0.182-0.667 0.406-0.826s0.459-0.576 0.459-0.576-0.248-0.965-0.25-1.456c-0.003-0.491-0.17-2.204 0.030-2.364s0.378-0.093 0.428 0.017c0.164 0.363 0.311 1.276 0.437 1.696s0.363 1.64 0.479 1.728c0.116 0.088 0.324-0.241 0.324-0.241s0.020-1.024 0.064-1.448l-0.064-1.344c0 0-0.12-0.808 0.159-0.884 0.384-0.106 0.524 0.136 0.568 0.237s0.223 0.688 0.223 0.688l0.010 0.040c0 0.004 0 0.008 0 0.012v0.007c0.003 0.011 0.006 0.023 0.010 0.036 0.007 0.027 0.015 0.059 0.024 0.095 0.085 0.334 0.249 1.001 0.242 1.166-0.010 0.222-0.087 1.452 0.022 1.707l0.17-1.699c0 0-0.275-1.309-0.195-1.498s0.457 0.020 0.502 0.094c0.045 0.074 0.411 0.524 0.476 0.695l0.064 0.172c0 0 0.090-0.406 0.302-0.3s0.238 0.622 0.253 0.847 0.168 1.674 0.192 1.677c0.024 0.003 0.268 0.755 0.235 1.253-0.070 1.064 0.115 1.856 0.121 2.264s-0.302 1.354-0.302 1.354c0.011 0.019 0.212 0.36 0.267 0.661 0.040 0.22 0.758 1.016 1.344 1.649 0.408 0.437 0.75 0.794 0.767 0.833z"></path>
<path fill="#fff" opacity="0.4" d="M21.459 27.555c-0.242-0.367-0.503-0.753-0.751-1.103-0.406-0.572-0.922-1.065-0.966-1.173-0.128-0.32-1.115-1.518-1.336-1.984s-0.271-1.915-0.369-2.257 0.182-0.667 0.406-0.826c0.224-0.159 0.459-0.576 0.459-0.576s-0.248-0.965-0.25-1.456c-0.003-0.491-0.17-2.204 0.030-2.364s0.378-0.093 0.428 0.017c0.164 0.363 0.311 1.276 0.437 1.696s0.363 1.64 0.479 1.728c0.116 0.088 0.324-0.241 0.324-0.241s0.020-1.024 0.064-1.448l-0.064-1.344c0 0-0.12-0.808 0.159-0.884 0.384-0.106 0.524 0.136 0.568 0.237s0.223 0.688 0.223 0.688l0.010 0.040c0 0.004 0 0.008 0 0.012v0.007c0.003 0.011 0.006 0.023 0.010 0.036 0.007 0.027 0.015 0.059 0.024 0.095-0.099-0.157-0.235-0.291-0.418-0.326-0.512-0.1-0.401 0.47-0.353 0.812 0.028 0.227 0.022 0.456-0.016 0.682l0.128-0.074c-0.092 0.164-0.224 1.531-0.224 1.835s-0.241 0.405-0.456 0.316c-0.216-0.089-0.293-1.484-0.456-1.734s-0.619 0.228-0.64 0.665c-0.021 0.437 0.387 1.741 0.291 2.048s-0.095 1.472-0.095 1.472l-0.118-0.3c0.008 0.041 0 0.178-0.246 0.584-0.093 0.146-0.152 0.311-0.176 0.483s-0.009 0.347 0.042 0.512c0.15 0.332 0.913 1.208 1.041 1.298 0 0 0.093-0.38 0.384-0.279-0.099 0.158-0.171 0.331-0.214 0.512-0.060 0.279 0.547 0.458 0.737 0.723 0.116 0.162 0.195 0.655 0.904 1.868z"></path>
<path fill="#fff" opacity="0.4" d="M25.042 26.496c-0.599-0.603-1.653-1.178-1.589-1.329 0.086-0.202-0.023-0.633-0.207-0.982s0.064-0.916 0.064-0.916l0.114 0.33c0.091-0.38 0.102-0.775 0.031-1.16-0.116-0.654-0.207-0.424-0.207-0.424s0.024-0.589 0.128-0.91c0.104-0.321 0.192-1.102 0.048-1.563s-0.448-0.374-0.529-0.216 0.006 0.778 0.073 0.98c0.067 0.203-0.219 0.544-0.225 0.291s-0.114-0.96-0.114-0.96l0.217-1.419-0.217-1.127c0 0 0.090-0.406 0.302-0.3s0.238 0.622 0.253 0.847 0.168 1.674 0.192 1.677c0.024 0.003 0.268 0.755 0.235 1.253-0.070 1.064 0.114 1.856 0.121 2.264s-0.302 1.354-0.302 1.354c0.011 0.018 0.212 0.36 0.267 0.661 0.040 0.22 0.758 1.016 1.344 1.649l0.001 0.001z"></path>
<path fill="#fff" opacity="0.4" d="M22.562 16.92c0.012 0.032 0.022 0.058 0.030 0.079-0.203-0.473-0.55-0.326-0.612-0.192s0.145 0.968 0.192 1.098-0.186 1.162-0.22 1.503c-0.034 0.342-0.124 0.411-0.124 0.411-0.23 0.017-0.256-0.617-0.256-0.704 0.004 0.073 0.019 0.145 0.042 0.214l0.17-1.699c0 0-0.281-1.311-0.201-1.5s0.457 0.020 0.502 0.094 0.411 0.524 0.476 0.695z"></path>
<path fill="#fff" d="M19.66 17.971c0 0-0.104-0.153-0.377-0.102s-0.395 0.437-0.395 0.437z"></path>
<path fill="#000" opacity="0.13999999999999999" d="M13.667 16.896c0.384 0.298 0.060 2.124 0.060 2.124l0.034 0.595 0.659-0.287 0.3 1.27c0 0-0.008 0.465 0.236 0.64 0 0 0.060 1.044 0 1.807s-1.28 1.659-1.7 2.46-3.163 3.154-3.163 3.154l-2.322-1.105 1.679-6.78 1.504-1.933 0.892-2.224c0 0 0.153 1.453 0.064 2.432l1.758-2.153z"></path>
<path fill="#fff" d="M14.314 20.954c-0.058 0.28 0.082 1.817 0.058 2.024s-1.247 1.6-1.308 1.706c-0.061 0.106-0.879 0.576-1.069 0.801-0.888 1.036-1.373 1.99-1.763 2.947-0.075 0.184-0.147 0.369-0.217 0.555l-3.525-2.048c0.296-0.367 0.576-0.694 0.832-0.991 0.512-0.602 0.92-1.084 1.119-1.539 0.061-0.116 0.131-0.227 0.21-0.333 0.079-0.113 0.15-0.205 0.15-0.205s-0.256-0.721-0.196-0.948c0.059-0.227-0.074-2.089-0.074-2.089s-0.173-1.268-0.344-1.588c-0.042-0.084-0.061-0.177-0.055-0.27 0.008-0.293 0.178-0.661 0.261-1.088 0.111-0.576 0.058-0.861 0.407-0.662s0.186 1.408 0.186 1.408l0.528 1.17c0.139-0.283 0-1.108-0.007-1.304 0-0.032 0-0.085-0.005-0.154-0.011-0.337-0.033-1.038-0.005-1.314 0-0.015 0-0.029 0.005-0.042 0.043-0.285 0.196-1.194 0.293-1.295 0.145-0.15 0.374-0.276 0.591 0.064 0.121 0.192 0.069 1.715 0.069 1.715s0.502-0.605 0.654-0.753c0.152-0.148 0.614-0.418 0.738-0.105s-0.332 1.28-0.332 1.28c0.095 0.224 0.107 0.844 0.107 0.844s0.216 0.775 0.348 0.768h0.006c0.038-0.008 0.081-0.149 0.125-0.347 0.109-0.485 0.227-1.313 0.32-1.386l0.064-0.051c0.003-0.004 0.006-0.007 0.010-0.010l0.024-0.021c0.227-0.202 0.704-0.65 0.704-0.65s0.034-0.214 0.452-0.148c0.418 0.066-0.186 1.299-0.186 1.299-0.084 0.392-0.213 1.402-0.213 1.402-0.039 0.42-0.016 1.548-0.016 1.548s0.198-0.657 0.185-0.896c-0.013-0.239 0.393-0.826 0.512-0.977s0.65-0.098 0.502 0.192c-0.148 0.29-0.088 1.209-0.146 1.491z"></path>
<path fill="#fff" opacity="0.4" d="M8.438 24.411c0.061-0.116 0.131-0.227 0.21-0.333 0 0-0.208 0.576-0.228 0.883-0.013 0.202-0.546 0.552-1.101 0.989 0.515-0.602 0.92-1.084 1.119-1.539z"></path>
<path fill="#fff" opacity="0.4" d="M8.648 24.078c0.079-0.113 0.15-0.206 0.15-0.206s-0.256-0.721-0.197-0.948c0.060-0.227-0.074-2.089-0.074-2.089s-0.173-1.268-0.344-1.588l0.398 0.696c0 0-0.039 0.55 0.074 0.851s0.256 1.221 0.256 1.221-0.168 0.773-0.111 1.051c0.057 0.278 0.314 0.177 0.314 0.177s0.126 0.509-0.467 0.833z"></path>
<path fill="#fff" opacity="0.4" d="M9.577 18.841c0.275 1.608-0.198 1.163-0.369 0.816s-0.572-1.003-0.874-0.863c-0.085 0.040-0.156 0.104-0.204 0.184 0.008-0.292 0.178-0.661 0.261-1.088 0.111-0.576 0.058-0.861 0.407-0.662s0.186 1.408 0.186 1.408l0.528 1.17c0.139-0.283 0-1.109-0.007-1.304 0-0.032 0-0.085-0.005-0.154 0.021 0.148 0.047 0.312 0.077 0.493z"></path>
<path fill="#fff" opacity="0.4" d="M10.249 17.253c0 0-0.296-0.388-0.554-0.368-0.044 0.002-0.087 0.018-0.122 0.044s-0.063 0.062-0.078 0.104c0-0.015 0-0.029 0.005-0.042 0.043-0.285 0.196-1.194 0.293-1.295 0.145-0.15 0.374-0.276 0.591 0.064 0.121 0.192 0.069 1.715 0.069 1.715s0.502-0.605 0.654-0.753c0.152-0.148 0.614-0.418 0.738-0.105s-0.332 1.28-0.332 1.28c0.095 0.224 0.107 0.844 0.107 0.844s0.216 0.775 0.348 0.768c-0.292 0.549-0.486-0.665-0.486-0.665 0.043-0.251-0.111-0.795-0.096-0.938s-0.269-0.65-0.748-0.512c-0.479 0.138-0.133 2.030-0.133 2.030-0.095 0.151-0.15 0.323-0.16 0.5-0.148-0.182 0-0.704 0-0.704-0.131-0.499-0.096-1.967-0.096-1.967z"></path>
<path fill="#fff" opacity="0.4" d="M12.48 17.722c-0.204 0.214-0.176 0.757-0.384 1.437 0.109-0.485 0.227-1.313 0.32-1.386l0.064-0.051z"></path>
<path fill="#fff" opacity="0.4" d="M14.314 20.954c-0.058 0.28 0.082 1.817 0.058 2.024s-1.247 1.6-1.308 1.706c-0.061 0.106-0.879 0.576-1.069 0.801-0.888 1.036-1.373 1.99-1.763 2.947 0.147-0.496 0.324-0.982 0.531-1.457 0.421-0.945 0.592-1.114 0.844-1.384s0.225-0.844 0.225-0.844c0.186-0.045 0.377-0.067 0.568-0.067 0.32 0 1.267-1.35 1.593-1.587s0.384-0.237 0-0.759c-0.384-0.522-0.275 0.084-0.39 0.064s-0.178 0.232-0.178 0.232c-0.040-0.533-0.384-1.152-0.456-1.307s0.175-1.063 0.124-1.316c-0.051-0.253 0.22-1.792 0.22-1.792s-0.034-0.591-0.569-0.593c-0.082-0.005-0.163 0.020-0.229 0.069 0.227-0.202 0.704-0.65 0.704-0.65s0.034-0.214 0.452-0.148c0.418 0.066-0.186 1.299-0.186 1.299-0.084 0.392-0.213 1.402-0.213 1.402-0.039 0.42-0.016 1.548-0.016 1.548s0.198-0.657 0.185-0.896c-0.013-0.239 0.393-0.826 0.512-0.977s0.65-0.098 0.502 0.192c-0.148 0.29-0.083 1.21-0.141 1.492z"></path>
</svg>
